<?xml version="1.0" encoding="UTF-8" standalone="no"?>
<!-- Created with Inkscape (http://www.inkscape.org/) -->

<svg
   width="164"
   height="164"
   viewBox="0 0 164 164"
   version="1.1"
   id="svg5"
   inkscape:version="1.2.2 (b0a8486541, 2022-12-01)"
   sodipodi:docname="notes.svg"
   inkscape:export-filename="Images/fClef.svg"
   inkscape:export-xdpi="96"
   inkscape:export-ydpi="96"
   xmlns:inkscape="http://www.inkscape.org/namespaces/inkscape"
   xmlns:sodipodi="http://sodipodi.sourceforge.net/DTD/sodipodi-0.dtd"
   xmlns="http://www.w3.org/2000/svg"
   xmlns:svg="http://www.w3.org/2000/svg">
  <sodipodi:namedview
     id="namedview7"
     pagecolor="#505050"
     bordercolor="#ffffff"
     borderopacity="1"
     inkscape:showpageshadow="0"
     inkscape:pageopacity="0"
     inkscape:pagecheckerboard="1"
     inkscape:deskcolor="#505050"
     inkscape:document-units="px"
     showgrid="false"
     inkscape:zoom="1.9091735"
     inkscape:cx="137.49406"
     inkscape:cy="128.06589"
     inkscape:window-width="1362"
     inkscape:window-height="716"
     inkscape:window-x="0"
     inkscape:window-y="50"
     inkscape:window-maximized="1"
     inkscape:current-layer="layer2" />
  <defs
     id="defs2" />
  <g
     inkscape:label="Layer 1"
     inkscape:groupmode="layer"
     id="layer1"
     style="display:inline"
     transform="translate(49.324999,56.25)">
    <text
       xml:space="preserve"
       style="font-style:normal;font-variant:normal;font-weight:normal;font-stretch:normal;font-size:50px;font-family:Bravura;-inkscape-font-specification:Bravura;text-align:center;text-anchor:middle;display:inline;fill:#ffffff;fill-rule:evenodd;stroke-width:5.29167;stroke-linecap:round;stroke-linejoin:round"
       x="11.29999"
       y="34.809963"
       id="text296-0"
       inkscape:label="gClef"><tspan
         sodipodi:role="line"
         id="tspan294-6"
         style="font-style:normal;font-variant:normal;font-weight:normal;font-stretch:normal;font-size:50px;font-family:Bravura;-inkscape-font-specification:Bravura;display:inline;fill:#ffffff;stroke-width:5.29167"
         x="11.29999"
         y="34.809963">𝄞</tspan></text>
    <g
       aria-label="𝄚"
       id="text314-8"
       style="font-size:50px;font-family:Bravura;-inkscape-font-specification:Bravura;text-align:center;text-anchor:middle;display:inline;fill:#ffffff;fill-rule:evenodd;stroke-width:5.29167;stroke-linecap:round;stroke-linejoin:round"
       inkscape:label="linesRow"
       transform="matrix(1.2,0,0,1,-12.324999,-0.111521)">
      <path
         d="m 25,0.061521 h -25 v 1.6 h 25 z m 0,12.5 h -25 v 1.6 h 25 z m 0,12.5 h -25 v 1.6 h 25 z m 0,12.5 h -25 v 1.6 h 25 z m 0,12.5 h -25 v 1.6 h 25 z m 25,-50 h -25 v 1.6 h 25 z m 0,12.5 h -25 v 1.6 h 25 z m 0,12.5 h -25 v 1.6 h 25 z m 0,12.5 h -25 v 1.6 h 25 z m 0,12.5 h -25 v 1.6 h 25 z m 25,-50 h -25 v 1.6 h 25 z m 0,12.5 h -25 v 1.6 h 25 z m 0,12.5 h -25 v 1.6 h 25 z m 0,12.5 h -25 v 1.6 h 25 z m 0,12.5 h -25 v 1.6 h 25 z"
         id="path1465"
         style="display:inline;fill:#ffffff"
         inkscape:label="noteLines" />
      <path
         id="path2534"
         style="font-style:normal;font-variant:normal;font-weight:normal;font-stretch:normal;font-size:50px;font-family:Bravura;-inkscape-font-specification:Bravura;text-align:center;text-anchor:middle;display:none;fill:#ffffff;fill-rule:evenodd;stroke-width:5.29167;stroke-linecap:round;stroke-linejoin:round"
         inkscape:label="moreLines"
         d="m 0,-50.040038 v 1.59961 h 25 v -1.59961 z m 0,12.5 v 1.59961 h 25 v -1.59961 z m 0,12.5 v 1.59961 h 25 v -1.59961 z m 0,12.5 v 1.59961 h 25 v -1.59961 z m 0,12.478516 v 1.5996094 0.021484 h 25 v -1.59960943 -0.02148437 z m 0,12.5 v 1.599609 h 25 v -1.599609 z m 0,12.5 v 1.599609 h 25 v -1.599609 z m 0,12.5 v 1.599609 h 25 v -1.599609 z m 0,12.5 v 0.002 1.597656 0.002 h 25 v -0.002 -1.597656 -0.002 z m 0,12.501953 v 1.599609 h 25 v -1.599609 z m 0,12.5 v 1.599609 h 25 v -1.599609 z m 0,12.5 v 1.599609 h 25 v -1.599609 z m 0,12.499997 v 1.599612 h 25 v -1.599612 z"
         transform="translate(25,0.061521)" />
    </g>
    <g
       aria-label="𝄚"
       id="text314-0"
       style="font-size:50px;font-family:Bravura;-inkscape-font-specification:Bravura;text-align:center;text-anchor:middle;display:none;fill-rule:evenodd;stroke-width:5.29167;stroke-linecap:round;stroke-linejoin:round"
       inkscape:label="lines">
      <path
         d="m 25,6.4000008 h -25 v 1.6 h 25 z m 0,12.5000002 h -25 v 1.6 h 25 z m 0,12.5 h -25 v 1.6 h 25 z m 0,12.5 h -25 v 1.6 h 25 z m 0,12.5 h -25 v 1.6 h 25 z"
         id="path543"
         style="display:inline" />
    </g>
  </g>
  <g
     inkscape:groupmode="layer"
     id="layer2"
     inkscape:label="Up"
     style="display:inline"
     transform="translate(49.324999,56.25)">
    <path
       id="text296-8-5-8"
       style="font-style:normal;font-variant:normal;font-weight:normal;font-stretch:normal;font-size:50px;font-family:Bravura;-inkscape-font-specification:Bravura;text-align:center;text-anchor:middle;display:none;fill:#000000;fill-rule:evenodd;stroke-width:5.29167;stroke-linecap:round;stroke-linejoin:round"
       inkscape:label="note0"
       d="m 19.300781,56.949219 v 5.492187 h -19.300781 v 1.59961 h 19.300781 v 10.90039 h -19.300781 v 1.59961 h 19.300781 v 10.90039 h -19.300781 v 1.59961 h 19.300781 v 5.908203 c -0.949999,-0.849999 -2.350001,-1.298828 -4,-1.298828 -4.796148,0 -8.8503233,2.770359 -10.4082029,6.289062 h -4.8925781 v 1.601567 h 4.3710938 c -0.1045365,0.49708 -0.171875,1.00118 -0.171875,1.50976 0,2.95 2.4011749,4.69922 5.4511718,4.69922 3.8544524,0 8.3808064,-2.76669 10.2578124,-6.20898 h 5.091797 v -1.601567 h -4.433594 c 0.14495,-0.524768 0.234375,-1.056095 0.234375,-1.589844 v -9.308593 h 4.199219 v -1.59961 h -4.199219 v -10.90039 h 4.199219 v -1.59961 h -4.199219 v -10.90039 h 4.199219 v -1.59961 h -4.199219 v -5.492187 z" />
    <path
       id="text296-8-9-7-5-7-8"
       style="font-style:normal;font-variant:normal;font-weight:normal;font-stretch:normal;font-size:50px;font-family:Bravura;-inkscape-font-specification:Bravura;text-align:center;text-anchor:middle;display:none;fill:#000000;fill-rule:evenodd;stroke-width:5.29167;stroke-linecap:round;stroke-linejoin:round"
       inkscape:label="note1"
       d="m 19.300781,50.699219 v 11.742187 h -19.300781 v 1.59961 h 19.300781 v 10.90039 h -19.300781 v 1.59961 h 19.300781 v 10.90039 h -3.419922 c -0.193679,-0.01333 -0.378577,-0.04102 -0.580078,-0.04102 -0.298665,0 -0.592189,0.02004 -0.884765,0.04102 h -14.416016 v 1.59961 h 9.1875 c -3.0072142,1.752746 -4.9882813,4.694838 -4.9882812,7.759765 0,2.949997 2.4011749,4.699219 5.4511718,4.699219 4.9999954,0 11.1503904,-4.650395 11.1503904,-9.400391 v -3.058593 h 4.199219 v -1.59961 h -4.199219 v -10.90039 h 4.199219 v -1.59961 h -4.199219 v -10.90039 h 4.199219 v -1.59961 h -4.199219 v -11.742187 z" />
    <path
       id="text296-8-9-4-4"
       style="font-style:normal;font-variant:normal;font-weight:normal;font-stretch:normal;font-size:50px;font-family:Bravura;-inkscape-font-specification:Bravura;text-align:center;text-anchor:middle;display:none;fill:#000000;fill-rule:evenodd;stroke-width:5.29167;stroke-linecap:round;stroke-linejoin:round"
       inkscape:label="note2"
       d="m 19.300781,44.449219 v 17.992187 h -19.300781 v 1.59961 h 19.300781 v 10.90039 h -19.300781 v 1.59961 h 19.300781 v 5.908203 c -0.949999,-0.849999 -2.350001,-1.298828 -4,-1.298828 -4.797219,0 -8.8530491,2.77119 -10.410156,6.291015 h -4.890625 v 1.59961 h 4.3710938 c -0.1045365,0.497081 -0.171875,1.001186 -0.171875,1.509765 0,2.949997 2.4011749,4.699219 5.4511718,4.699219 3.8544524,0 8.3808064,-2.766693 10.2578124,-6.208984 h 5.091797 v -1.59961 h -4.433594 c 0.145278,-0.525365 0.234375,-1.057422 0.234375,-1.591797 v -9.308593 h 4.199219 v -1.59961 h -4.199219 v -10.90039 h 4.199219 v -1.59961 h -4.199219 v -17.992187 z" />
    <path
       id="text296-8-9-7-0-1"
       style="font-style:normal;font-variant:normal;font-weight:normal;font-stretch:normal;font-size:50px;font-family:Bravura;-inkscape-font-specification:Bravura;text-align:center;text-anchor:middle;display:none;fill:#000000;fill-rule:evenodd;stroke-width:5.29167;stroke-linecap:round;stroke-linejoin:round"
       inkscape:label="note3"
       d="m 19.300781,38.199219 v 24.242187 h -19.300781 v 1.59961 h 19.300781 v 10.90039 h -3.419922 c -0.193679,-0.01333 -0.378577,-0.04102 -0.580078,-0.04102 -0.298665,0 -0.592189,0.02004 -0.884765,0.04102 h -14.416016 v 1.59961 h 9.1875 c -3.0072142,1.752746 -4.9882813,4.694838 -4.9882812,7.759765 0,2.949997 2.4011749,4.699219 5.4511718,4.699219 4.9999954,0 11.1503904,-4.650395 11.1503904,-9.400391 v -3.058593 h 4.199219 v -1.59961 h -4.199219 v -10.90039 h 4.199219 v -1.59961 h -4.199219 v -24.242187 z" />
    <path
       id="text296-8-92"
       style="font-style:normal;font-variant:normal;font-weight:normal;font-stretch:normal;font-size:50px;font-family:Bravura;-inkscape-font-specification:Bravura;text-align:center;text-anchor:middle;display:none;fill:#000000;fill-rule:evenodd;stroke-width:5.29167;stroke-linecap:round;stroke-linejoin:round"
       inkscape:label="note4"
       d="m 19.300781,31.949219 v 30.492187 h -19.300781 v 1.59961 h 19.300781 v 5.908203 c -0.949999,-0.849999 -2.350001,-1.298828 -4,-1.298828 -4.797219,0 -8.8530491,2.77119 -10.410156,6.291015 h -4.890625 v 1.59961 h 4.3710938 c -0.1045365,0.497081 -0.171875,1.001186 -0.171875,1.509765 0,2.949997 2.4011749,4.699219 5.4511718,4.699219 3.8544524,0 8.3808064,-2.766693 10.2578124,-6.208984 h 5.091797 v -1.59961 h -4.433594 c 0.145278,-0.525365 0.234375,-1.057422 0.234375,-1.591797 v -9.308593 h 4.199219 v -1.59961 h -4.199219 v -30.492187 z" />
    <path
       id="text296-8-5"
       style="font-style:normal;font-variant:normal;font-weight:normal;font-stretch:normal;font-size:50px;font-family:Bravura;-inkscape-font-specification:Bravura;text-align:center;text-anchor:middle;display:none;fill:#000000;fill-rule:evenodd;stroke-width:5.29167;stroke-linecap:round;stroke-linejoin:round"
       inkscape:label="note5"
       d="m 19.300781,25.699219 v 36.742187 h -3.419922 c -0.193679,-0.01333 -0.378577,-0.04102 -0.580078,-0.04102 -0.298665,0 -0.592189,0.02004 -0.884765,0.04102 h -14.416016 v 1.59961 h 9.1875 c -3.0072142,1.752746 -4.9882813,4.694838 -4.9882812,7.759765 0,2.949997 2.4011749,4.699219 5.4511718,4.699219 4.9999954,0 11.1503904,-4.650395 11.1503904,-9.400391 v -3.058593 h 4.199219 v -1.59961 h -4.199219 v -36.742187 z" />
    <path
       id="text296-8-9-7-5-7"
       style="font-style:normal;font-variant:normal;font-weight:normal;font-stretch:normal;font-size:50px;font-family:Bravura;-inkscape-font-specification:Bravura;text-align:center;text-anchor:middle;display:none;fill:#000000;fill-rule:evenodd;stroke-width:5.29167;stroke-linecap:round;stroke-linejoin:round"
       inkscape:label="note6"
       d="m 19.300781,19.449219 v 38 c -0.949999,-0.849999 -2.350001,-1.298828 -4,-1.298828 -4.797219,0 -8.8530491,2.77119 -10.410156,6.291015 h -4.890625 v 1.59961 h 4.3710938 c -0.1045365,0.497081 -0.171875,1.001186 -0.171875,1.509765 0,2.949997 2.4011749,4.699219 5.4511718,4.699219 3.8544524,0 8.3808064,-2.766693 10.2578124,-6.208984 h 5.091797 v -1.59961 h -4.433594 c 0.145278,-0.525365 0.234375,-1.057422 0.234375,-1.591797 v -41.40039 z" />
    <path
       d="m 19.3,51.200001 c -0.95,-0.85 -2.35,-1.3 -4,-1.3 -6.1500002,0 -11.1000002,4.55 -11.1000002,9.4 0,2.95 2.4,4.7 5.45,4.7 5.0000002,0 11.1500002,-4.65 11.1500002,-9.4 v -41.4 h -1.5 z"
       style="font-size:50px;font-family:Bravura;-inkscape-font-specification:Bravura;text-align:center;text-anchor:middle;display:none;fill-rule:evenodd;stroke-width:5.29167;stroke-linecap:round;stroke-linejoin:round"
       id="path16636"
       inkscape:label="note7" />
    <path
       d="m 19.3,44.950001 c -0.95,-0.85 -2.35,-1.3 -4,-1.3 -6.1500002,0 -11.1000002,4.55 -11.1000002,9.4 0,2.95 2.4,4.7 5.45,4.7 5.0000002,0 11.1500002,-4.65 11.1500002,-9.4 v -41.4000002 h -1.5 z"
       style="font-size:50px;font-family:Bravura;-inkscape-font-specification:Bravura;text-align:center;text-anchor:middle;display:none;fill-rule:evenodd;stroke-width:5.29167;stroke-linecap:round;stroke-linejoin:round"
       id="path16639"
       inkscape:label="note8" />
    <path
       d="m 19.3,38.700001 c -0.95,-0.85 -2.35,-1.3 -4,-1.3 -6.1500002,0 -11.1000002,4.55 -11.1000002,9.4 0,2.95 2.4,4.7 5.45,4.7 5.0000002,0 11.1500002,-4.65 11.1500002,-9.4 v -41.40000024 h -1.5 z"
       style="font-size:50px;font-family:Bravura;-inkscape-font-specification:Bravura;text-align:center;text-anchor:middle;display:none;fill-rule:evenodd;stroke-width:5.29167;stroke-linecap:round;stroke-linejoin:round"
       id="path16642"
       inkscape:label="note9" />
    <path
       d="m 19.3,32.450001 c -0.95,-0.85 -2.35,-1.3 -4,-1.3 -6.1500002,0 -11.1000002,4.55 -11.1000002,9.4 0,2.95 2.4,4.7 5.45,4.7 5.0000002,0 11.1500002,-4.65 11.1500002,-9.4 v -41.4000002 h -1.5 z"
       style="font-size:50px;font-family:Bravura;-inkscape-font-specification:Bravura;text-align:center;text-anchor:middle;display:none;fill-rule:evenodd;stroke-width:5.29167;stroke-linecap:round;stroke-linejoin:round"
       id="path16645"
       inkscape:label="note10" />
    <path
       d="m 55.824981,26.150001 c -0.95,-0.85 -2.35,-1.3 -4,-1.3 -6.15,0 -11.1,4.55 -11.1,9.4 0,2.95 2.4,4.7 5.45,4.7 5,0 11.15,-4.65 11.15,-9.4 v -41.4 h -1.5 z"
       style="font-size:50px;font-family:Bravura;-inkscape-font-specification:Bravura;text-align:center;text-anchor:middle;display:inline;fill:#ffffff;fill-rule:evenodd;stroke-width:5.29167;stroke-linecap:round;stroke-linejoin:round"
       id="path16648"
       inkscape:label="note11" />
    <path
       d="m 19.3,19.950001 c -0.95,-0.85 -2.35,-1.3 -4,-1.3 -6.1500002,0 -11.1000002,4.55 -11.1000002,9.4 0,2.95 2.4,4.7 5.45,4.7 5.0000002,0 11.1500002,-4.65 11.1500002,-9.4 v -41.4 h -1.5 z"
       style="font-size:50px;font-family:Bravura;-inkscape-font-specification:Bravura;text-align:center;text-anchor:middle;display:none;fill-rule:evenodd;stroke-width:5.29167;stroke-linecap:round;stroke-linejoin:round"
       id="path16651"
       inkscape:label="note12" />
  </g>
  <g
     inkscape:groupmode="layer"
     id="layer3"
     inkscape:label="Down"
     style="display:none"
     transform="translate(49.324999,56.25)">
    <path
       d="m 4.1999998,53.949999 h 1.5 v -28.7 c 1,0.85 2.4,1.35 3.95,1.35 5.0000002,0 11.1500002,-4.65 11.1500002,-9.4 0,-2.85 -2.25,-4.7 -5.5,-4.7 -6.1500002,0 -11.1000002,4.55 -11.1000002,9.4 z"
       style="font-size:50px;font-family:Bravura;-inkscape-font-specification:Bravura;text-align:center;text-anchor:middle;display:none;fill-rule:evenodd;stroke-width:5.29167;stroke-linecap:round;stroke-linejoin:round"
       id="path16514"
       inkscape:label="note13" />
    <path
       d="m 4.1999998,47.7 h 1.5 v -28.7 c 1,0.85 2.4,1.35 3.95,1.35 5.0000002,0 11.1500002,-4.65 11.1500002,-9.4 0,-2.8499998 -2.25,-4.6999998 -5.5,-4.6999998 -6.1500002,0 -11.1000002,4.5499998 -11.1000002,9.3999998 z"
       style="font-size:50px;font-family:Bravura;-inkscape-font-specification:Bravura;text-align:center;text-anchor:middle;display:inline;fill-rule:evenodd;stroke-width:5.29167;stroke-linecap:round;stroke-linejoin:round"
       id="path16517"
       inkscape:label="note14" />
    <path
       d="m 4.1999998,41.45 h 1.5 v -28.7 c 1,0.85 2.4,1.35 3.95,1.35 5.0000002,0 11.1500002,-4.6499998 11.1500002,-9.3999998 0,-2.85 -2.25,-4.70000000926514 -5.5,-4.70000000926514 -6.1500002,0 -11.1000002,4.55000000926514 -11.1000002,9.40000000926514 z"
       style="font-size:50px;font-family:Bravura;-inkscape-font-specification:Bravura;text-align:center;text-anchor:middle;display:inline;fill-rule:evenodd;stroke-width:5.29167;stroke-linecap:round;stroke-linejoin:round"
       id="path16520"
       inkscape:label="note15" />
    <path
       d="m 4.1999998,35.2 h 1.5 v -28.7 c 1,0.85 2.4,1.35 3.95,1.35 5.0000002,0 11.1500002,-4.65 11.1500002,-9.4 0,-2.85 -2.25,-4.7 -5.5,-4.7 -6.1500002,0 -11.1000002,4.55 -11.1000002,9.4 z"
       style="font-size:50px;font-family:Bravura;-inkscape-font-specification:Bravura;text-align:center;text-anchor:middle;display:inline;fill-rule:evenodd;stroke-width:5.29167;stroke-linecap:round;stroke-linejoin:round"
       id="path16523"
       inkscape:label="note16" />
    <path
       d="m 4.1999998,28.95 h 1.5 v -28.69999981 c 1,0.85000001 2.4,1.35000001 3.95,1.35000001 5.0000002,0 11.1500002,-4.65 11.1500002,-9.4 0,-2.8500002 -2.25,-4.7000002 -5.5,-4.7000002 -6.1500002,0 -11.1000002,4.5500002 -11.1000002,9.4000002 z"
       style="font-size:50px;font-family:Bravura;-inkscape-font-specification:Bravura;text-align:center;text-anchor:middle;display:inline;fill-rule:evenodd;stroke-width:5.29167;stroke-linecap:round;stroke-linejoin:round"
       id="path16526"
       inkscape:label="note17"
       transform="translate(1.9e-5)" />
    <path
       id="text296-2-3-0-3-0"
       style="font-style:normal;font-variant:normal;font-weight:normal;font-stretch:normal;font-size:50px;font-family:Bravura;-inkscape-font-specification:Bravura;text-align:center;text-anchor:middle;display:inline;fill:#000000;fill-rule:evenodd;stroke-width:5.29167;stroke-linecap:round;stroke-linejoin:round"
       inkscape:label="note18"
       d="m 15.300781,-18.75 c -4.760238,0 -8.7896487,2.72986 -10.3730466,6.210938 h -4.9277344 v 1.599609 h 4.3847656 c -0.1158141,0.522847 -0.1855468,1.0539372 -0.1855468,1.5898436 v 32.0488284 h 1.5 v -28.699219 c 0.9999989,0.8499992 2.4011734,1.3496094 3.9511718,1.3496094 3.8843334,0 8.4490484,-2.8096034 10.2988284,-6.2890624 h 5.050781 v -1.599609 h -4.414062 c 0.131385,-0.499441 0.214843,-1.004457 0.214843,-1.511719 0,-2.849997 -2.250003,-4.699219 -5.5,-4.699219 z" />
    <path
       id="text2978"
       style="font-style:normal;font-variant:normal;font-weight:normal;font-stretch:normal;font-size:50px;font-family:Bravura;-inkscape-font-specification:Bravura;text-align:center;text-anchor:middle;display:inline;fill:#000000;fill-rule:evenodd;stroke-width:5.29167;stroke-linecap:round;stroke-linejoin:round"
       inkscape:label="note19"
       d="m 15.300763,-25 c -6.1499943,0 -11.1015629,4.550395 -11.1015629,9.400391 v 3.060547 h -4.199218792017 v 1.599609 h 4.199218792017 v 27.388672 h 1.5 v -27.388672 h 3.4707031 c 0.1609545,0.0111 0.3158299,0.03906 0.4804687,0.03906 0.2314813,0 0.4674381,-0.01958 0.7031251,-0.03906 h 14.646484 v -1.599609 h -9.777343 c 3.092577,-1.770279 5.578125,-4.744029 5.578125,-7.761719 0,-2.849997 -2.250004,-4.699219 -5.5,-4.699219 z"
       transform="translate(1.8692017e-5)" />
    <path
       id="text296-2-3-0-3-0-1"
       style="font-style:normal;font-variant:normal;font-weight:normal;font-stretch:normal;font-size:50px;font-family:Bravura;-inkscape-font-specification:Bravura;text-align:center;text-anchor:middle;display:inline;fill:#000000;fill-rule:evenodd;stroke-width:5.29167;stroke-linecap:round;stroke-linejoin:round"
       inkscape:label="note20"
       d="m 15.300781,-31.25 c -4.760238,0 -8.7896487,2.72986 -10.3730466,6.210938 h -4.9277344 v 1.599609 h 4.3847656 c -0.1158141,0.522847 -0.1855468,1.053937 -0.1855468,1.589844 v 9.310547 h -4.1992188 v 1.599609 h 4.1992188 v 21.138672 h 1.5 v -21.138672 h 19.3007812 v -1.599609 h -19.3007812 v -5.960938 c 0.9999989,0.849999 2.4011734,1.349609 3.9511718,1.349609 3.8843334,0 8.4490484,-2.809603 10.2988284,-6.289062 h 5.050781 v -1.599609 h -4.414062 c 0.131385,-0.499441 0.214843,-1.004457 0.214843,-1.511719 0,-2.849997 -2.250003,-4.699219 -5.5,-4.699219 z" />
    <path
       id="text2982"
       style="font-style:normal;font-variant:normal;font-weight:normal;font-stretch:normal;font-size:50px;font-family:Bravura;-inkscape-font-specification:Bravura;text-align:center;text-anchor:middle;display:inline;fill:#000000;fill-rule:evenodd;stroke-width:5.29167;stroke-linecap:round;stroke-linejoin:round"
       inkscape:label="note21"
       d="m 15.300763,-37.5 c -6.1499943,0 -11.1015629,4.550395 -11.1015629,9.400391 v 3.060547 h -4.199218792017 v 1.599609 h 4.199218792017 v 10.900391 h -4.199218792017 v 1.599609 h 4.199218792017 v 14.8886718 h 1.5 v -14.8886718 h 19.3007809 v -1.599609 h -19.3007809 v -10.900391 h 3.4707031 c 0.1609545,0.0111 0.3158299,0.03906 0.4804687,0.03906 0.2314813,0 0.4674381,-0.01958 0.7031251,-0.03906 h 14.646484 v -1.599609 h -9.777343 c 3.092577,-1.770279 5.578125,-4.744029 5.578125,-7.761719 0,-2.849997 -2.250004,-4.699219 -5.5,-4.699219 z"
       transform="translate(1.8692017e-5)" />
    <path
       id="text296-2-3-0-3-0-1-5"
       style="font-style:normal;font-variant:normal;font-weight:normal;font-stretch:normal;font-size:50px;font-family:Bravura;-inkscape-font-specification:Bravura;text-align:center;text-anchor:middle;display:inline;fill:#000000;fill-rule:evenodd;stroke-width:5.29167;stroke-linecap:round;stroke-linejoin:round"
       inkscape:label="note22"
       d="m 15.300781,-43.75 c -4.760238,0 -8.7896487,2.72986 -10.3730466,6.210938 h -4.9277344 v 1.599609 h 4.3847656 c -0.1158141,0.522847 -0.1855468,1.053937 -0.1855468,1.589844 v 9.310547 h -4.1992188 v 1.599609 h 4.1992188 v 10.900391 h -4.1992188 v 1.599609 h 4.1992188 v 8.6386718 h 1.5 v -8.6386718 h 19.3007812 v -1.599609 h -19.3007812 v -10.900391 h 19.3007812 v -1.599609 h -19.3007812 v -5.960938 c 0.9999989,0.849999 2.4011734,1.349609 3.9511718,1.349609 3.8843334,0 8.4490484,-2.809603 10.2988284,-6.289062 h 5.050781 v -1.599609 h -4.414062 c 0.131385,-0.499441 0.214843,-1.004457 0.214843,-1.511719 0,-2.849997 -2.250003,-4.699219 -5.5,-4.699219 z" />
    <path
       id="text2966"
       style="font-style:normal;font-variant:normal;font-weight:normal;font-stretch:normal;font-size:50px;font-family:Bravura;-inkscape-font-specification:Bravura;text-align:center;text-anchor:middle;display:inline;fill:#000000;fill-rule:evenodd;stroke-width:5.29167;stroke-linecap:round;stroke-linejoin:round"
       inkscape:label="note23"
       d="m 15.300763,-50 c -6.1499943,0 -11.1015629,4.550395 -11.1015629,9.400391 v 3.060547 h -4.199218792017 v 1.599609 h 4.199218792017 v 10.900391 h -4.199218792017 v 1.599609 h 4.199218792017 v 10.900391 h -4.199218792017 v 1.599609 h 4.199218792017 v 2.3886718 h 1.5 v -2.3886718 h 19.3007809 v -1.599609 h -19.3007809 v -10.900391 h 19.3007809 v -1.599609 h -19.3007809 v -10.900391 h 3.4707031 c 0.1609545,0.0111 0.3158299,0.03906 0.4804687,0.03906 0.2314813,0 0.4674381,-0.01958 0.7031251,-0.03906 h 14.646484 v -1.599609 h -9.777343 c 3.092577,-1.770279 5.578125,-4.744029 5.578125,-7.761719 0,-2.849997 -2.250004,-4.699219 -5.5,-4.699219 z"
       transform="translate(1.8692017e-5)" />
    <path
       id="text296-2-3-0-3-0-1-5-7"
       style="font-style:normal;font-variant:normal;font-weight:normal;font-stretch:normal;font-size:50px;font-family:Bravura;-inkscape-font-specification:Bravura;text-align:center;text-anchor:middle;display:inline;fill:#000000;fill-rule:evenodd;stroke-width:5.29167;stroke-linecap:round;stroke-linejoin:round"
       inkscape:label="note24"
       d="m 15.300781,-56.25 c -4.760238,0 -8.7896487,2.72986 -10.3730466,6.210938 h -4.9277344 v 1.599609 h 4.3847656 c -0.1158141,0.522847 -0.1855468,1.053937 -0.1855468,1.589844 v 9.310547 h -4.1992188 v 1.599609 h 4.1992188 v 10.900391 h -4.1992188 v 1.599609 h 4.1992188 v 8.638672 h 1.5 v -8.638672 h 19.3007812 v -1.599609 h -19.3007812 v -10.900391 h 19.3007812 v -1.599609 h -19.3007812 v -5.960938 c 0.9999989,0.849999 2.4011734,1.349609 3.9511718,1.349609 3.8843334,0 8.4490484,-2.809603 10.2988284,-6.289062 h 5.050781 v -1.599609 h -4.414062 c 0.131385,-0.499441 0.214843,-1.004457 0.214843,-1.511719 0,-2.849997 -2.250003,-4.699219 -5.5,-4.699219 z m -15.300781,43.710938 v 1.599609 h 25 v -1.599609 z" />
  </g>
  <g
     inkscape:groupmode="layer"
     id="layer4"
     inkscape:label="Backup"
     style="display:inline"
     sodipodi:insensitive="true"
     transform="translate(49.324999,56.25)">
    <g
       inkscape:groupmode="layer"
       id="layer3-7"
       inkscape:label="Down"
       style="display:none"
       transform="translate(1.8692017e-5)">
      <text
         xml:space="preserve"
         style="font-style:normal;font-variant:normal;font-weight:normal;font-stretch:normal;font-size:50px;font-family:Bravura;-inkscape-font-specification:Bravura;text-align:center;text-anchor:middle;display:inline;fill:#000000;fill-rule:evenodd;stroke-width:5.29167;stroke-linecap:round;stroke-linejoin:round"
         x="12.500018"
         y="19.549999"
         id="text296-2-3-7"
         inkscape:label="c2"
         sodipodi:insensitive="true"><tspan
           sodipodi:role="line"
           id="tspan294-61-1-1"
           style="font-style:normal;font-variant:normal;font-weight:normal;font-stretch:normal;font-size:50px;font-family:Bravura;-inkscape-font-specification:Bravura;display:inline;fill:#000000;stroke-width:5.29167"
           x="12.500018"
           y="19.549999"></tspan></text>
      <text
         xml:space="preserve"
         style="font-style:normal;font-variant:normal;font-weight:normal;font-stretch:normal;font-size:50px;font-family:Bravura;-inkscape-font-specification:Bravura;text-align:center;text-anchor:middle;display:inline;fill:#000000;fill-rule:evenodd;stroke-width:5.29167;stroke-linecap:round;stroke-linejoin:round"
         x="12.500018"
         y="13.3"
         id="text296-2-3-0-1"
         inkscape:label="d2"
         sodipodi:insensitive="true"><tspan
           sodipodi:role="line"
           id="tspan294-61-1-6-5"
           style="font-style:normal;font-variant:normal;font-weight:normal;font-stretch:normal;font-size:50px;font-family:Bravura;-inkscape-font-specification:Bravura;display:inline;fill:#000000;stroke-width:5.29167"
           x="12.500018"
           y="13.3"></tspan></text>
      <text
         xml:space="preserve"
         style="font-style:normal;font-variant:normal;font-weight:normal;font-stretch:normal;font-size:50px;font-family:Bravura;-inkscape-font-specification:Bravura;text-align:center;text-anchor:middle;display:inline;fill:#000000;fill-rule:evenodd;stroke-width:5.29167;stroke-linecap:round;stroke-linejoin:round"
         x="12.500018"
         y="7.0500002"
         id="text296-2-3-9-9"
         inkscape:label="e2"
         sodipodi:insensitive="true"><tspan
           sodipodi:role="line"
           id="tspan294-61-1-4-7"
           style="font-style:normal;font-variant:normal;font-weight:normal;font-stretch:normal;font-size:50px;font-family:Bravura;-inkscape-font-specification:Bravura;display:inline;fill:#000000;stroke-width:5.29167"
           x="12.500018"
           y="7.0500002"></tspan></text>
      <text
         xml:space="preserve"
         style="font-style:normal;font-variant:normal;font-weight:normal;font-stretch:normal;font-size:50px;font-family:Bravura;-inkscape-font-specification:Bravura;text-align:center;text-anchor:middle;display:inline;fill:#000000;fill-rule:evenodd;stroke-width:5.29167;stroke-linecap:round;stroke-linejoin:round"
         x="12.500018"
         y="0.80000001"
         id="text296-2-3-0-3-7"
         inkscape:label="f2"
         sodipodi:insensitive="true"><tspan
           sodipodi:role="line"
           id="tspan294-61-1-6-2-67"
           style="font-style:normal;font-variant:normal;font-weight:normal;font-stretch:normal;font-size:50px;font-family:Bravura;-inkscape-font-specification:Bravura;display:inline;fill:#000000;stroke-width:5.29167"
           x="12.500018"
           y="0.80000001"></tspan></text>
      <text
         xml:space="preserve"
         style="font-style:normal;font-variant:normal;font-weight:normal;font-stretch:normal;font-size:50px;font-family:Bravura;-inkscape-font-specification:Bravura;text-align:center;text-anchor:middle;display:inline;fill:#000000;fill-rule:evenodd;stroke-width:5.29167;stroke-linecap:round;stroke-linejoin:round"
         x="12.500018"
         y="-5.4499998"
         id="text296-2-3-9-4-3"
         inkscape:label="g2"
         sodipodi:insensitive="true"><tspan
           sodipodi:role="line"
           id="tspan294-61-1-4-5-6"
           style="font-style:normal;font-variant:normal;font-weight:normal;font-stretch:normal;font-size:50px;font-family:Bravura;-inkscape-font-specification:Bravura;display:inline;fill:#000000;stroke-width:5.29167"
           x="12.500018"
           y="-5.4499998"></tspan></text>
      <text
         xml:space="preserve"
         style="font-style:normal;font-variant:normal;font-weight:normal;font-stretch:normal;font-size:50px;font-family:Bravura;-inkscape-font-specification:Bravura;text-align:center;text-anchor:middle;display:inline;fill:#000000;fill-rule:evenodd;stroke-width:5.29167;stroke-linecap:round;stroke-linejoin:round"
         x="12.500018"
         y="-11.7"
         id="text296-2-3-0-3-0-5"
         inkscape:label="a2"
         sodipodi:insensitive="true"><tspan
           sodipodi:role="line"
           id="tspan294-61-1-6-2-6-6"
           style="font-style:normal;font-variant:normal;font-weight:normal;font-stretch:normal;font-size:50px;font-family:Bravura;-inkscape-font-specification:Bravura;display:inline;fill:#000000;stroke-width:5.29167"
           x="12.500018"
           y="-11.7"></tspan></text>
      <text
         xml:space="preserve"
         style="font-style:normal;font-variant:normal;font-weight:normal;font-stretch:normal;font-size:50px;font-family:Bravura;-inkscape-font-specification:Bravura;text-align:center;text-anchor:middle;display:inline;fill:#000000;fill-rule:evenodd;stroke-width:5.29167;stroke-linecap:round;stroke-linejoin:round"
         x="12.500018"
         y="-17.950001"
         id="text296-2-3-9-4-0-3"
         inkscape:label="h2"
         sodipodi:insensitive="true"><tspan
           sodipodi:role="line"
           id="tspan294-61-1-4-5-3-9"
           style="font-style:normal;font-variant:normal;font-weight:normal;font-stretch:normal;font-size:50px;font-family:Bravura;-inkscape-font-specification:Bravura;display:inline;fill:#000000;stroke-width:5.29167"
           x="12.500018"
           y="-17.950001"></tspan></text>
      <text
         xml:space="preserve"
         style="font-style:normal;font-variant:normal;font-weight:normal;font-stretch:normal;font-size:50px;font-family:Bravura;-inkscape-font-specification:Bravura;text-align:center;text-anchor:middle;display:inline;fill:#000000;fill-rule:evenodd;stroke-width:5.29167;stroke-linecap:round;stroke-linejoin:round"
         x="12.500018"
         y="-24.200001"
         id="text296-2-3-0-3-0-1-4"
         inkscape:label="c3"
         sodipodi:insensitive="true"><tspan
           sodipodi:role="line"
           id="tspan294-61-1-6-2-6-5-8"
           style="font-style:normal;font-variant:normal;font-weight:normal;font-stretch:normal;font-size:50px;font-family:Bravura;-inkscape-font-specification:Bravura;display:inline;fill:#000000;stroke-width:5.29167"
           x="12.500018"
           y="-24.200001"></tspan></text>
      <text
         xml:space="preserve"
         style="font-style:normal;font-variant:normal;font-weight:normal;font-stretch:normal;font-size:50px;font-family:Bravura;-inkscape-font-specification:Bravura;text-align:center;text-anchor:middle;display:inline;fill:#000000;fill-rule:evenodd;stroke-width:5.29167;stroke-linecap:round;stroke-linejoin:round"
         x="12.5"
         y="-30.450001"
         id="text296-2-3-9-4-0-6-1"
         inkscape:label="d3"
         sodipodi:insensitive="true"><tspan
           sodipodi:role="line"
           id="tspan294-61-1-4-5-3-1-2"
           style="font-style:normal;font-variant:normal;font-weight:normal;font-stretch:normal;font-size:50px;font-family:Bravura;-inkscape-font-specification:Bravura;display:inline;fill:#000000;stroke-width:5.29167"
           x="12.5"
           y="-30.450001"></tspan></text>
    </g>
    <g
       inkscape:groupmode="layer"
       id="layer2-8"
       inkscape:label="Up"
       style="display:none"
       transform="translate(1.8692017e-5)">
      <text
         xml:space="preserve"
         style="font-style:normal;font-variant:normal;font-weight:normal;font-stretch:normal;font-size:50px;font-family:Bravura;-inkscape-font-specification:Bravura;text-align:center;text-anchor:middle;display:inline;fill:#000000;fill-rule:evenodd;stroke-width:5.29167;stroke-linecap:round;stroke-linejoin:round"
         x="12.374991"
         y="100.7"
         id="text296-8-5-8-9"
         inkscape:label="D"><tspan
           sodipodi:role="line"
           id="tspan294-7-4-6-2"
           style="font-style:normal;font-variant:normal;font-weight:normal;font-stretch:normal;font-size:50px;font-family:Bravura;-inkscape-font-specification:Bravura;display:inline;stroke-width:5.29167"
           x="12.374991"
           y="100.7">𝅘𝅥</tspan></text>
      <text
         xml:space="preserve"
         style="font-style:normal;font-variant:normal;font-weight:normal;font-stretch:normal;font-size:50px;font-family:Bravura;-inkscape-font-specification:Bravura;text-align:center;text-anchor:middle;display:inline;fill:#000000;fill-rule:evenodd;stroke-width:5.29167;stroke-linecap:round;stroke-linejoin:round"
         x="12.374991"
         y="94.449997"
         id="text296-8-9-7-5-7-8-6"
         inkscape:label="E"><tspan
           sodipodi:role="line"
           id="tspan294-7-3-4-2-4-8-6"
           style="font-style:normal;font-variant:normal;font-weight:normal;font-stretch:normal;font-size:50px;font-family:Bravura;-inkscape-font-specification:Bravura;display:inline;stroke-width:5.29167"
           x="12.374991"
           y="94.449997">𝅘𝅥</tspan></text>
      <text
         xml:space="preserve"
         style="font-style:normal;font-variant:normal;font-weight:normal;font-stretch:normal;font-size:50px;font-family:Bravura;-inkscape-font-specification:Bravura;text-align:center;text-anchor:middle;display:inline;fill:#000000;fill-rule:evenodd;stroke-width:5.29167;stroke-linecap:round;stroke-linejoin:round"
         x="12.374991"
         y="88.199997"
         id="text296-8-9-4-4-4"
         inkscape:label="F"><tspan
           sodipodi:role="line"
           id="tspan294-7-3-3-3-9"
           style="font-style:normal;font-variant:normal;font-weight:normal;font-stretch:normal;font-size:50px;font-family:Bravura;-inkscape-font-specification:Bravura;display:inline;stroke-width:5.29167"
           x="12.374991"
           y="88.199997">𝅘𝅥</tspan></text>
      <text
         xml:space="preserve"
         style="font-style:normal;font-variant:normal;font-weight:normal;font-stretch:normal;font-size:50px;font-family:Bravura;-inkscape-font-specification:Bravura;text-align:center;text-anchor:middle;display:inline;fill:#000000;fill-rule:evenodd;stroke-width:5.29167;stroke-linecap:round;stroke-linejoin:round"
         x="12.374991"
         y="81.949997"
         id="text296-8-9-7-0-1-5"
         inkscape:label="G"><tspan
           sodipodi:role="line"
           id="tspan294-7-3-4-7-4-0"
           style="font-style:normal;font-variant:normal;font-weight:normal;font-stretch:normal;font-size:50px;font-family:Bravura;-inkscape-font-specification:Bravura;display:inline;stroke-width:5.29167"
           x="12.374991"
           y="81.949997">𝅘𝅥</tspan></text>
      <text
         xml:space="preserve"
         style="font-style:normal;font-variant:normal;font-weight:normal;font-stretch:normal;font-size:50px;font-family:Bravura;-inkscape-font-specification:Bravura;text-align:center;text-anchor:middle;display:inline;fill:#000000;fill-rule:evenodd;stroke-width:5.29167;stroke-linecap:round;stroke-linejoin:round"
         x="12.374991"
         y="75.699997"
         id="text296-8-92-4"
         inkscape:label="A"><tspan
           sodipodi:role="line"
           id="tspan294-7-0-8"
           style="font-style:normal;font-variant:normal;font-weight:normal;font-stretch:normal;font-size:50px;font-family:Bravura;-inkscape-font-specification:Bravura;display:inline;stroke-width:5.29167"
           x="12.374991"
           y="75.699997">𝅘𝅥</tspan></text>
      <text
         xml:space="preserve"
         style="font-style:normal;font-variant:normal;font-weight:normal;font-stretch:normal;font-size:50px;font-family:Bravura;-inkscape-font-specification:Bravura;text-align:center;text-anchor:middle;display:inline;fill:#000000;fill-rule:evenodd;stroke-width:5.29167;stroke-linecap:round;stroke-linejoin:round"
         x="12.374991"
         y="69.449997"
         id="text296-8-5-7"
         inkscape:label="H"><tspan
           sodipodi:role="line"
           id="tspan294-7-4-1"
           style="font-style:normal;font-variant:normal;font-weight:normal;font-stretch:normal;font-size:50px;font-family:Bravura;-inkscape-font-specification:Bravura;display:inline;stroke-width:5.29167"
           x="12.374991"
           y="69.449997">𝅘𝅥</tspan></text>
      <text
         xml:space="preserve"
         style="font-style:normal;font-variant:normal;font-weight:normal;font-stretch:normal;font-size:50px;font-family:Bravura;-inkscape-font-specification:Bravura;text-align:center;text-anchor:middle;display:inline;fill:#000000;fill-rule:evenodd;stroke-width:5.29167;stroke-linecap:round;stroke-linejoin:round"
         x="12.374991"
         y="63.200001"
         id="text296-8-9-7-5-7-7"
         inkscape:label="c1"><tspan
           sodipodi:role="line"
           id="tspan294-7-3-4-2-4-2"
           style="font-style:normal;font-variant:normal;font-weight:normal;font-stretch:normal;font-size:50px;font-family:Bravura;-inkscape-font-specification:Bravura;display:inline;stroke-width:5.29167"
           x="12.374991"
           y="63.200001">𝅘𝅥</tspan></text>
      <text
         xml:space="preserve"
         style="font-style:normal;font-variant:normal;font-weight:normal;font-stretch:normal;font-size:50px;font-family:Bravura;-inkscape-font-specification:Bravura;text-align:center;text-anchor:middle;display:inline;fill:#000000;fill-rule:evenodd;stroke-width:5.29167;stroke-linecap:round;stroke-linejoin:round"
         x="12.374991"
         y="56.950001"
         id="text296-8-9-4-7"
         inkscape:label="d1"><tspan
           sodipodi:role="line"
           id="tspan294-7-3-3-2"
           style="font-style:normal;font-variant:normal;font-weight:normal;font-stretch:normal;font-size:50px;font-family:Bravura;-inkscape-font-specification:Bravura;display:inline;stroke-width:5.29167"
           x="12.374991"
           y="56.950001">𝅘𝅥</tspan></text>
      <text
         xml:space="preserve"
         style="font-style:normal;font-variant:normal;font-weight:normal;font-stretch:normal;font-size:50px;font-family:Bravura;-inkscape-font-specification:Bravura;text-align:center;text-anchor:middle;display:inline;fill:#000000;fill-rule:evenodd;stroke-width:5.29167;stroke-linecap:round;stroke-linejoin:round"
         x="12.374991"
         y="50.700001"
         id="text296-8-9-7-0-2"
         inkscape:label="e1"><tspan
           sodipodi:role="line"
           id="tspan294-7-3-4-7-6"
           style="font-style:normal;font-variant:normal;font-weight:normal;font-stretch:normal;font-size:50px;font-family:Bravura;-inkscape-font-specification:Bravura;display:inline;stroke-width:5.29167"
           x="12.374991"
           y="50.700001">𝅘𝅥</tspan></text>
      <text
         xml:space="preserve"
         style="font-style:normal;font-variant:normal;font-weight:normal;font-stretch:normal;font-size:50px;font-family:Bravura;-inkscape-font-specification:Bravura;text-align:center;text-anchor:middle;display:inline;fill:#000000;fill-rule:evenodd;stroke-width:5.29167;stroke-linecap:round;stroke-linejoin:round"
         x="12.374991"
         y="44.450001"
         id="text296-8-1"
         inkscape:label="f1"><tspan
           sodipodi:role="line"
           id="tspan294-7-06"
           style="font-style:normal;font-variant:normal;font-weight:normal;font-stretch:normal;font-size:50px;font-family:Bravura;-inkscape-font-specification:Bravura;display:inline;stroke-width:5.29167"
           x="12.374991"
           y="44.450001">𝅘𝅥</tspan></text>
      <text
         xml:space="preserve"
         style="font-style:normal;font-variant:normal;font-weight:normal;font-stretch:normal;font-size:50px;font-family:Bravura;-inkscape-font-specification:Bravura;text-align:center;text-anchor:middle;display:inline;fill:#000000;fill-rule:evenodd;stroke-width:5.29167;stroke-linecap:round;stroke-linejoin:round"
         x="12.374991"
         y="38.200001"
         id="text296-8-9-7-5-1"
         inkscape:label="g1"><tspan
           sodipodi:role="line"
           id="tspan294-7-3-4-2-5"
           style="font-style:normal;font-variant:normal;font-weight:normal;font-stretch:normal;font-size:50px;font-family:Bravura;-inkscape-font-specification:Bravura;display:inline;stroke-width:5.29167"
           x="12.374991"
           y="38.200001">𝅘𝅥</tspan></text>
      <text
         xml:space="preserve"
         style="font-style:normal;font-variant:normal;font-weight:normal;font-stretch:normal;font-size:50px;font-family:Bravura;-inkscape-font-specification:Bravura;text-align:center;text-anchor:middle;display:inline;fill:#000000;fill-rule:evenodd;stroke-width:5.29167;stroke-linecap:round;stroke-linejoin:round"
         x="11.899973"
         y="31.950001"
         id="text296-8-9-9"
         inkscape:label="a1"><tspan
           sodipodi:role="line"
           id="tspan294-7-3-49"
           style="font-style:normal;font-variant:normal;font-weight:normal;font-stretch:normal;font-size:50px;font-family:Bravura;-inkscape-font-specification:Bravura;display:inline;stroke-width:5.29167"
           x="11.899973"
           y="31.950001">𝅘𝅥</tspan></text>
      <text
         xml:space="preserve"
         style="font-style:normal;font-variant:normal;font-weight:normal;font-stretch:normal;font-size:50px;font-family:Bravura;-inkscape-font-specification:Bravura;text-align:center;text-anchor:middle;display:inline;fill:#000000;fill-rule:evenodd;stroke-width:5.29167;stroke-linecap:round;stroke-linejoin:round"
         x="12.374991"
         y="25.700001"
         id="text296-8-9-7-09"
         inkscape:label="h1"><tspan
           sodipodi:role="line"
           id="tspan294-7-3-4-1"
           style="font-style:normal;font-variant:normal;font-weight:normal;font-stretch:normal;font-size:50px;font-family:Bravura;-inkscape-font-specification:Bravura;display:inline;stroke-width:5.29167"
           x="12.374991"
           y="25.700001">𝅘𝅥</tspan></text>
    </g>
  </g>
</svg>
