<?xml version="1.0" encoding="UTF-8" standalone="no"?>
<!-- Created with Inkscape (http://www.inkscape.org/) -->

<svg
   width="90"
   height="164"
   viewBox="0 0 90 164"
   version="1.1"
   id="svg5"
   inkscape:version="1.2.2 (b0a8486541, 2022-12-01)"
   sodipodi:docname="notes.svg"
   inkscape:export-filename="gClef.svg"
   inkscape:export-xdpi="96"
   inkscape:export-ydpi="96"
   xmlns:inkscape="http://www.inkscape.org/namespaces/inkscape"
   xmlns:sodipodi="http://sodipodi.sourceforge.net/DTD/sodipodi-0.dtd"
   xmlns="http://www.w3.org/2000/svg"
   xmlns:svg="http://www.w3.org/2000/svg">
  <sodipodi:namedview
     id="namedview7"
     pagecolor="#505050"
     bordercolor="#ffffff"
     borderopacity="1"
     inkscape:showpageshadow="0"
     inkscape:pageopacity="0"
     inkscape:pagecheckerboard="1"
     inkscape:deskcolor="#505050"
     inkscape:document-units="px"
     showgrid="false"
     inkscape:zoom="2.081446"
     inkscape:cx="-20.418498"
     inkscape:cy="82.875078"
     inkscape:window-width="1362"
     inkscape:window-height="716"
     inkscape:window-x="0"
     inkscape:window-y="50"
     inkscape:window-maximized="1"
     inkscape:current-layer="layer1" />
  <defs
     id="defs2" />
  <g
     inkscape:label="Layer 1"
     inkscape:groupmode="layer"
     id="layer1"
     style="display:inline"
     transform="translate(49.324999,56.25)">
    <text
       xml:space="preserve"
       style="font-style:normal;font-variant:normal;font-weight:normal;font-stretch:normal;font-size:50px;font-family:Bravura;-inkscape-font-specification:Bravura;text-align:center;text-anchor:middle;display:inline;fill:#000000;fill-rule:evenodd;stroke-width:5.29167;stroke-linecap:round;stroke-linejoin:round"
       x="-25.650005"
       y="14.759967"
       id="text296-9"
       inkscape:label="fClef"><tspan
         sodipodi:role="line"
         id="tspan486-2"
         style="font-style:normal;font-variant:normal;font-weight:normal;font-stretch:normal;font-size:50px;font-family:Bravura;-inkscape-font-specification:Bravura;display:inline;stroke-width:5.29167"
         x="-25.650005"
         y="14.759967">𝄢</tspan></text>
    <g
       aria-label="𝄚"
       id="text314-8"
       style="font-size:50px;font-family:Bravura;-inkscape-font-specification:Bravura;text-align:center;text-anchor:middle;display:inline;fill:#000000;fill-rule:evenodd;stroke-width:5.29167;stroke-linecap:round;stroke-linejoin:round"
       inkscape:label="linesRow"
       transform="matrix(1.2,0,0,1,-49.324999,-0.061521)">
      <path
         d="m 25,0.061521 h -25 v 1.6 h 25 z m 0,12.5 h -25 v 1.6 h 25 z m 0,12.5 h -25 v 1.6 h 25 z m 0,12.5 h -25 v 1.6 h 25 z m 0,12.5 h -25 v 1.6 h 25 z m 25,-50 h -25 v 1.6 h 25 z m 0,12.5 h -25 v 1.6 h 25 z m 0,12.5 h -25 v 1.6 h 25 z m 0,12.5 h -25 v 1.6 h 25 z m 0,12.5 h -25 v 1.6 h 25 z m 25,-50 h -25 v 1.6 h 25 z m 0,12.5 h -25 v 1.6 h 25 z m 0,12.5 h -25 v 1.6 h 25 z m 0,12.5 h -25 v 1.6 h 25 z m 0,12.5 h -25 v 1.6 h 25 z"
         id="path1465"
         style="display:inline;fill:#000000"
         inkscape:label="noteLines" />
    </g>
  </g>
</svg>
