<svg xmlns="http://www.w3.org/2000/svg" xmlns:xlink="http://www.w3.org/1999/xlink" width="342.7" height="331.5" viewBox="10 -315 342.7 331.5"><title>DS18B20AndTM1637</title><style type="text/css">
path, polyline, polygon {stroke-linejoin:round;}
rect, circle, ellipse, polyline, line, polygon, path {shape-rendering:crispEdges;}
</style>
<rect x="10" y="-315" width="342.7" height="331.5" fill="#3B4855" stroke="none"/><g xmlns="http://www.w3.org/2000/svg" id="g1" c_spiceCmd="null" c_para="Prefix Start`1" importFlag="" c_portOfADImportHack="" c_transformList=""><g c_origin="210,-65" c_para="package`TO-92-3_L4.9-W3.7-P1.27-L`BOM_Supplier`LCSC`BOM_Supplier Part`C376006`BOM_Manufacturer`Youtai Semiconductor Co., Ltd.`BOM_Manufacturer Part`DS18B20`Contributor`LCSC`BOM_JLCPCB Part Class`Extended Part`spicePre`U`spiceSymbolName`DS18B20`" c_partid="part_lib_ggee7bc56ac51bdbaa4" id="ggee7bc56ac51bdbaa4" locked="0" c_shapetype="group" c_etype="pinpart" puuid="6924b36489de4921bb29ca14bf27c33f" uuid="207283c67b3f48f4b2421c110e860fe9" convert_to_pcb="yes" datastrid="478ffe80b3db45b89a8dff8ecf2ec4d9" pdatastrid="c4a998d910814327a5c882a6a07de9f6" utime="1646635205" add_into_bom="yes" c_rotation="90"><g c_partid="part_annotation" id="gge226"   c_shapetype="group"><text c_note="note_name" x="235.58" y="-61.5" fill="#000080" font-family="Arial" font-size="7pt" font-weight="" font-style="" dominant-baseline="" text-anchor="start"  >DS18B20</text></g><g c_partid="part_annotation" id="gge6556" display="none"  c_shapetype="group"><text c_note="note_pre" x="204.05" y="-92.86" fill="#000080" font-family="Arial" font-size="7pt" font-weight="" font-style="" dominant-baseline="" text-anchor="start"  >U1</text></g><rect id="gge241" locked="0" c_etype="" x="190" y="-80" rx="2" ry="2" width="40" height="30" stroke="#880000" stroke-width="1" fill="none"   /><ellipse cx="195" cy="-55" rx="1.5" ry="1.5" id="gge244" locked="0" stroke="#880000" stroke-width="1" fill="#880000"   /><g c_partid="part_pin" c_etype="pinpart"  c_show="show"  c_elec="0" c_spicepin="1" c_origin="200,-40" id="gge247" locked="0" c_rotation="270"><text x="204" y="-53.7" font-family="Verdana" font-size="7pt" fill="#000000" text-anchor="start" c_pinname="GND"  transform="rotate(270,204,-53.7)" >GND</text><text x="199" y="-49.5" font-family="Verdana" font-size="7pt" fill="#000000" text-anchor="end" c_pinnumber="1"  transform="rotate(270,199,-49.5)" >1</text><circle c_pindot="true" class="pindot" cx="200" cy="-40" r="2" fill="none" stroke="none" /><path d="M 200 -40 v -10" fill="none" stroke="#000000" stroke-width="1"/><circle cx="200" cy="-47" r="3" stroke="#000000" fill="none" stroke-width="1" display="none" /><path d="M 203 -50 L 200 -53 L 197 -50" fill="none" stroke="#000000" stroke-width="1"  display="none" /></g><g c_partid="part_pin" c_etype="pinpart"  c_show="show"  c_elec="0" c_spicepin="2" c_origin="210,-40" id="gge268" locked="0" c_rotation="270"><text x="214" y="-53.7" font-family="Verdana" font-size="7pt" fill="#0000FF" text-anchor="start" c_pinname="DQ"  transform="rotate(270,214,-53.7)" >DQ</text><text x="209" y="-49.5" font-family="Verdana" font-size="7pt" fill="#0000FF" text-anchor="end" c_pinnumber="2"  transform="rotate(270,209,-49.5)" >2</text><circle c_pindot="true" class="pindot" cx="210" cy="-40" r="2" fill="none" stroke="none" /><path d="M 210 -40 v -10" fill="none" stroke="#880000" stroke-width="1"/><circle cx="210" cy="-47" r="3" stroke="#880000" fill="none" stroke-width="1" display="none" /><path d="M 213 -50 L 210 -53 L 207 -50" fill="none" stroke="#880000" stroke-width="1"  display="none" /></g><g c_partid="part_pin" c_etype="pinpart"  c_show="show"  c_elec="0" c_spicepin="3" c_origin="220,-40" id="gge289" locked="0" c_rotation="270"><text x="224" y="-53.7" font-family="Verdana" font-size="7pt" fill="#FF0000" text-anchor="start" c_pinname="VDD"  transform="rotate(270,224,-53.7)" >VDD</text><text x="219" y="-49.5" font-family="Verdana" font-size="7pt" fill="#FF0000" text-anchor="end" c_pinnumber="3"  transform="rotate(270,219,-49.5)" >3</text><circle c_pindot="true" class="pindot" cx="220" cy="-40" r="2" fill="none" stroke="none" /><path d="M 220 -40 v -10" fill="none" stroke="#FF0000" stroke-width="1"/><circle cx="220" cy="-47" r="3" stroke="#FF0000" fill="none" stroke-width="1" display="none" /><path d="M 223 -50 L 220 -53 L 217 -50" fill="none" stroke="#FF0000" stroke-width="1"  display="none" /></g></g><g c_origin="325,-250" c_para="package`TM1637 DISPLAY 2 HOLES`BOM_Manufacturer``BOM_Manufacturer Part``BOM_Supplier Part``BOM_Supplier``link``Contributor`S&#x1a1;n V&#xf5; Ho&#xe0;i`spicePre`U`spiceSymbolName`TM1637 DISPLAY MODULE`" c_partid="part_lib_gge9e4b72ebfaeb752e" id="gge9e4b72ebfaeb752e" locked="0" c_shapetype="group" c_etype="pinpart" puuid="6d00a9905b494ec2870844956591fa26" uuid="e3a171240ab44117b754b342226bc58a" convert_to_pcb="yes" datastrid="9ca0fa7a25a74e48a56d1ab1b157c749" pdatastrid="e5b0560de2604b3981082d607760ebc1" utime="1653740496" add_into_bom="yes" ><g c_partid="part_annotation" id="gge4252"   c_shapetype="group"><text c_note="note_name" x="307.33" y="-276.4" fill="#000080" font-family="Arial" font-size="7pt" font-weight="" font-style="" dominant-baseline="" text-anchor="start"  >TM1637</text></g><g c_partid="part_annotation" id="gge6553" display="none"  c_shapetype="group"><text c_note="note_pre" x="313.05" y="-288" fill="#000080" font-family="Arial" font-size="7pt" font-weight="" font-style="" dominant-baseline="" text-anchor="start"  >U2</text></g><rect id="gge4264" locked="0" c_etype="" x="310" y="-275" rx="2" ry="2" width="30" height="50" stroke="#880000" stroke-width="1" fill="none"   /><ellipse cx="315" cy="-270" rx="1.5" ry="1.5" id="gge4267" locked="0" stroke="#880000" stroke-width="1" fill="#880000"   /><g c_partid="part_pin" c_etype="pinpart"  c_show="show"  c_elec="0" c_spicepin="1" c_origin="300,-265" id="gge4270" locked="0" c_rotation="180"><text x="313.7" y="-261" font-family="Verdana" font-size="7pt" fill="#0000FF" text-anchor="start" c_pinname="CLK"   >CLK</text><text x="309.5" y="-266" font-family="Verdana" font-size="7pt" fill="#0000FF" text-anchor="end" c_pinnumber="1"   >1</text><circle c_pindot="true" class="pindot" cx="300" cy="-265" r="2" fill="none" stroke="none" /><path d="M 300 -265 h 10" fill="none" stroke="#880000" stroke-width="1"/><circle cx="307" cy="-265" r="3" stroke="#880000" fill="none" stroke-width="1" display="none" /><path d="M 310 -262 L 313 -265 L 310 -268" fill="none" stroke="#880000" stroke-width="1"  display="none" /></g><g c_partid="part_pin" c_etype="pinpart"  c_show="show"  c_elec="0" c_spicepin="2" c_origin="300,-255" id="gge4291" locked="0" c_rotation="180"><text x="313.7" y="-251" font-family="Verdana" font-size="7pt" fill="#0000FF" text-anchor="start" c_pinname="DIO"   >DIO</text><text x="309.5" y="-256" font-family="Verdana" font-size="7pt" fill="#0000FF" text-anchor="end" c_pinnumber="2"   >2</text><circle c_pindot="true" class="pindot" cx="300" cy="-255" r="2" fill="none" stroke="none" /><path d="M 300 -255 h 10" fill="none" stroke="#880000" stroke-width="1"/><circle cx="307" cy="-255" r="3" stroke="#880000" fill="none" stroke-width="1" display="none" /><path d="M 310 -252 L 313 -255 L 310 -258" fill="none" stroke="#880000" stroke-width="1"  display="none" /></g><g c_partid="part_pin" c_etype="pinpart"  c_show="show"  c_elec="0" c_spicepin="3" c_origin="300,-245" id="gge4312" locked="0" c_rotation="180"><text x="313.7" y="-241" font-family="Verdana" font-size="7pt" fill="#FF0000" text-anchor="start" c_pinname="VCC"   >VCC</text><text x="309.5" y="-246" font-family="Verdana" font-size="7pt" fill="#FF0000" text-anchor="end" c_pinnumber="3"   >3</text><circle c_pindot="true" class="pindot" cx="300" cy="-245" r="2" fill="none" stroke="none" /><path d="M 300 -245 h 10" fill="none" stroke="#FF0000" stroke-width="1"/><circle cx="307" cy="-245" r="3" stroke="#FF0000" fill="none" stroke-width="1" display="none" /><path d="M 310 -242 L 313 -245 L 310 -248" fill="none" stroke="#FF0000" stroke-width="1"  display="none" /></g><g c_partid="part_pin" c_etype="pinpart"  c_show="show"  c_elec="0" c_spicepin="4" c_origin="300,-235" id="gge4333" locked="0" c_rotation="180"><text x="313.7" y="-231" font-family="Verdana" font-size="7pt" fill="#000000" text-anchor="start" c_pinname="GND"   >GND</text><text x="309.5" y="-236" font-family="Verdana" font-size="7pt" fill="#000000" text-anchor="end" c_pinnumber="4"   >4</text><circle c_pindot="true" class="pindot" cx="300" cy="-235" r="2" fill="none" stroke="none" /><path d="M 300 -235 h 10" fill="none" stroke="#000000" stroke-width="1"/><circle cx="307" cy="-235" r="3" stroke="#000000" fill="none" stroke-width="1" display="none" /><path d="M 310 -232 L 313 -235 L 310 -238" fill="none" stroke="#000000" stroke-width="1"  display="none" /></g></g><g c_origin="230,-20" c_para="package`RESISTORT 1/2TH`BOM_Manufacturer``BOM_Manufacturer Part``BOM_Supplier Part``BOM_Supplier``link``Contributor`c.francisco`spicePre`R`spiceSymbolName`resistorth 1/2W`" c_partid="part_lib_ggef09d23bdf8433dbb" id="ggef09d23bdf8433dbb" locked="0" c_shapetype="group" c_etype="pinpart" puuid="1d1d618204e34fa2bec525ada617e7f4" uuid="1ba843a749474b9daf33635d9140233e" convert_to_pcb="yes" datastrid="" pdatastrid="" utime="1595387897" add_into_bom="yes" ><g c_partid="part_annotation" id="gge6430"   c_shapetype="group"><text c_note="note_name" x="212.6" y="3.61" fill="#000080" font-family="Arial" font-size="7pt" font-weight="" font-style="" dominant-baseline="" text-anchor="start"  >resistorth 4.7K</text></g><g c_partid="part_annotation" id="gge6550" display="none"  c_shapetype="group"><text c_note="note_pre" x="239.33" y="-32.89" fill="#000080" font-family="Arial" font-size="7pt" font-weight="" font-style="" dominant-baseline="" text-anchor="start"  >R1</text></g><rect id="gge6442" locked="0" c_etype="" x="235" y="-20"   width="20" height="10" stroke="#990000" stroke-width="1" fill="none"   /><g c_partid="part_pin" c_etype="pinpart"  c_show="show"  c_elec="0" c_spicepin="2" c_origin="265,-15" id="gge6445" locked="0" c_rotation=""><text x="253" y="-12" font-family="Verdana" font-size="7pt" fill="#0000FF" text-anchor="end" c_pinname="2" display="none"  >2</text><text x="255" y="-16" font-family="Verdana" font-size="7pt" fill="#0000FF" text-anchor="start" c_pinnumber="2" display="none"  >2</text><circle c_pindot="true" class="pindot" cx="265" cy="-15" r="2" fill="none" stroke="none" /><path d="M 265 -15 h -10" fill="none" stroke="#880000" stroke-width="1"/><circle cx="258" cy="-15" r="3" stroke="#880000" fill="none" stroke-width="1" display="none" /><path d="M 255 -18 L 252 -15 L 255 -12" fill="none" stroke="#880000" stroke-width="1"  display="none" /></g><g c_partid="part_pin" c_etype="pinpart"  c_show="show"  c_elec="0" c_spicepin="1" c_origin="225,-15" id="gge6466" locked="0" c_rotation="180"><text x="237" y="-12" font-family="Verdana" font-size="7pt" fill="#0000FF" text-anchor="start" c_pinname="1" display="none"  >1</text><text x="235" y="-16" font-family="Verdana" font-size="7pt" fill="#0000FF" text-anchor="end" c_pinnumber="1" display="none"  >1</text><circle c_pindot="true" class="pindot" cx="225" cy="-15" r="2" fill="none" stroke="none" /><path d="M 225 -15 h 10" fill="none" stroke="#880000" stroke-width="1"/><circle cx="232" cy="-15" r="3" stroke="#880000" fill="none" stroke-width="1" display="none" /><path d="M 235 -12 L 238 -15 L 235 -18" fill="none" stroke="#880000" stroke-width="1"  display="none" /></g></g><polyline c_etype="wire" c_shapetype="line" points="155 -110 155 -35 200 -35 200 -40" stroke="#000000" id="gge6559" locked="0" stroke-width="1"   fill="none" stroke-linecap="round" /><polyline c_etype="wire" c_shapetype="line" points="210 -40 210 -15 210 -15 20 -15 20 -295 210 -295 210 -286" stroke="#FF6600" id="gge6562" locked="0" stroke-width="1"   fill="none" stroke-linecap="round" /><polyline c_etype="wire" c_shapetype="line" points="220 -286 220 -305 290 -305 290 -265 300 -265" stroke="#000099" id="gge6565" locked="0" stroke-width="1"   fill="none" stroke-linecap="round" /><polyline c_etype="wire" c_shapetype="line" points="230 -286 230 -295 280 -295 280 -255 300 -255" stroke="#FF00FF" id="gge6568" locked="0" stroke-width="1"   fill="none" stroke-linecap="round" /><polyline c_etype="wire" c_shapetype="line" points="300 -235 290 -235 290 -95 155 -95" stroke="#000000" id="gge6593" locked="0" stroke-width="1"   fill="none" stroke-linecap="round" /><polyline c_etype="wire" c_shapetype="line" points="265 -15 280 -15 280 -245 300 -245" stroke="#FF0000" id="gge6606" locked="0" stroke-width="1"   fill="none" stroke-linecap="round" /><polyline c_etype="wire" c_shapetype="line" points="145 -110 145 -85 280 -85" stroke="#FF0000" id="gge6609" locked="0" stroke-width="1"   fill="none" stroke-linecap="round" /><polyline c_etype="wire" c_shapetype="line" points="225 -15 210 -15" stroke="#FF9900" id="gge6616" locked="0" stroke-width="1"   fill="none" stroke-linecap="round" /><polyline c_etype="wire" c_shapetype="line" points="220 -40 220 -30 280 -30" stroke="#FF0000" id="gge6621" locked="0" stroke-width="1"   fill="none" stroke-linecap="round" /><g c_origin="110,-240" c_para="package``BOM_Manufacturer``BOM_Manufacturer Part``BOM_Supplier Part``BOM_Supplier`Arduino`link``Contributor`Halina20011`spicePre`U`spiceSymbolName`ARDUINO UNO`" c_partid="part_lib_gged65b40641083ff6c" id="gged65b40641083ff6c" locked="0" c_shapetype="group" c_etype="pinpart" puuid="" uuid="4ec8fcb662d94f318a545330e18f639e" convert_to_pcb="yes" datastrid="039cfa9eba91419786d8b4c7ef933d60" pdatastrid="" utime="1663959301" add_into_bom="yes" ><g c_partid="part_annotation" id="gge4462"   c_shapetype="group"><text c_note="note_name" x="41.59" y="-136.48" fill="#000080" font-family="Arial" font-size="7pt" font-weight="" font-style="" dominant-baseline="" text-anchor="start"  >ARDUINO UNO</text></g><g c_partid="part_annotation" id="gge5896" display="none"  c_shapetype="group"><text c_note="note_pre" x="267" y="-194.28" fill="#000080" font-family="Arial" font-size="7pt" font-weight="" font-style="" dominant-baseline="" text-anchor="start"  >U3</text></g><polyline points="183 -214 183 -203 185 -201 189 -201 191 -203 191 -214 191 -213" stroke="#000000" id="gge6625" locked="0" stroke-width="2"   fill="none" stroke-linecap="round" /><polyline points="197 -201 197 -214 206 -201 206 -214" stroke="#000000" id="gge6628" locked="0" stroke-width="2"   fill="none" stroke-linecap="round" /><polyline points="215 -214 214 -214 212 -213 211 -211 211 -204 212 -202 214 -201 217 -201 219 -202 220 -204 220 -211 219 -213 217 -214 215 -214" stroke="#000000" id="gge6631" locked="0" stroke-width="2"   fill="none" stroke-linecap="round" /><g c_partid="part_pin" c_etype="pinpart"  c_show="show"  c_elec="0" c_spicepin="33" c_origin="105,-110" id="gge6634" locked="0" c_rotation="270"><text x="108" y="-132" font-family="Verdana" font-size="7pt" fill="#FFFFFF" text-anchor="start" c_pinname="33" display="none" transform="rotate(270,108,-132)" >33</text><text x="104" y="-125" font-family="Verdana" font-size="7pt" fill="#FFFFFF" text-anchor="end" c_pinnumber="33" display="none" transform="rotate(270,104,-125)" >33</text><circle c_pindot="true" class="pindot" cx="105" cy="-110" r="2" fill="none" stroke="none" /><path d="M 105 -110 v -20" fill="none" stroke="#000000" stroke-width="1"/><circle cx="105" cy="-127" r="3" stroke="#000000" fill="none" stroke-width="1" display="none" /><path d="M 108 -130 L 105 -133 L 102 -130" fill="none" stroke="#000000" stroke-width="1"  display="none" /></g><g c_partid="part_pin" c_etype="pinpart"  c_show="show"  c_elec="0" c_spicepin="32" c_origin="115,-110" id="gge6655" locked="0" c_rotation="270"><text x="117" y="-143" font-family="Verdana" font-size="5.5pt" fill="#000000" text-anchor="start" c_pinname="IOREF"  transform="rotate(270,117,-143)" >IOREF</text><text x="114" y="-125" font-family="Verdana" font-size="5.5pt" fill="#000000" text-anchor="end" c_pinnumber="32" display="none" transform="rotate(270,114,-125)" >32</text><circle c_pindot="true" class="pindot" cx="115" cy="-110" r="2" fill="none" stroke="none" /><path d="M 115 -110 v -20" fill="none" stroke="#000000" stroke-width="1"/><circle cx="115" cy="-127" r="3" stroke="#000000" fill="none" stroke-width="1" display="none" /><path d="M 118 -130 L 115 -133 L 112 -130" fill="none" stroke="#000000" stroke-width="1"  display="none" /></g><g c_partid="part_pin" c_etype="pinpart"  c_show="show"  c_elec="0" c_spicepin="31" c_origin="125,-110" id="gge6676" locked="0" c_rotation="270"><text x="127" y="-143" font-family="Verdana" font-size="5.5pt" fill="#000000" text-anchor="start" c_pinname="RESET"  transform="rotate(270,127,-143)" >RESET</text><text x="124" y="-125" font-family="Verdana" font-size="5.5pt" fill="#000000" text-anchor="end" c_pinnumber="31" display="none" transform="rotate(270,124,-125)" >31</text><circle c_pindot="true" class="pindot" cx="125" cy="-110" r="2" fill="none" stroke="none" /><path d="M 125 -110 v -20" fill="none" stroke="#000000" stroke-width="1"/><circle cx="125" cy="-127" r="3" stroke="#000000" fill="none" stroke-width="1" display="none" /><path d="M 128 -130 L 125 -133 L 122 -130" fill="none" stroke="#000000" stroke-width="1"  display="none" /></g><g c_partid="part_pin" c_etype="pinpart"  c_show="show"  c_elec="4" c_spicepin="30" c_origin="135,-110" id="gge6697" locked="0" c_rotation="270"><text x="138" y="-143" font-family="Verdana" font-size="5.5pt" fill="#000000" text-anchor="start" c_pinname="3.3V"  transform="rotate(270,138,-143)" >3.3V</text><text x="134" y="-125" font-family="Verdana" font-size="5.5pt" fill="#000000" text-anchor="end" c_pinnumber="30" display="none" transform="rotate(270,134,-125)" >30</text><circle c_pindot="true" class="pindot" cx="135" cy="-110" r="2" fill="none" stroke="none" /><path d="M 135 -110 v -20" fill="none" stroke="#000000" stroke-width="1"/><circle cx="135" cy="-127" r="3" stroke="#000000" fill="none" stroke-width="1" display="none" /><path d="M 138 -130 L 135 -133 L 132 -130" fill="none" stroke="#000000" stroke-width="1"  display="none" /></g><g c_partid="part_pin" c_etype="pinpart"  c_show="show"  c_elec="4" c_spicepin="29" c_origin="145,-110" id="gge6718" locked="0" c_rotation="270"><text x="148" y="-143" font-family="Verdana" font-size="5.5pt" fill="#000000" text-anchor="start" c_pinname="5V"  transform="rotate(270,148,-143)" >5V</text><text x="144" y="-125" font-family="Verdana" font-size="5.5pt" fill="#000000" text-anchor="end" c_pinnumber="29" display="none" transform="rotate(270,144,-125)" >29</text><circle c_pindot="true" class="pindot" cx="145" cy="-110" r="2" fill="none" stroke="none" /><path d="M 145 -110 v -20" fill="none" stroke="#000000" stroke-width="1"/><circle cx="145" cy="-127" r="3" stroke="#000000" fill="none" stroke-width="1" display="none" /><path d="M 148 -130 L 145 -133 L 142 -130" fill="none" stroke="#000000" stroke-width="1"  display="none" /></g><g c_partid="part_pin" c_etype="pinpart"  c_show="show"  c_elec="4" c_spicepin="28" c_origin="155,-110" id="gge6739" locked="0" c_rotation="270"><text x="158" y="-142" font-family="Verdana" font-size="5.5pt" fill="#000000" text-anchor="start" c_pinname="GND"  transform="rotate(270,158,-142)" >GND</text><text x="154" y="-125" font-family="Verdana" font-size="5.5pt" fill="#000000" text-anchor="end" c_pinnumber="28" display="none" transform="rotate(270,154,-125)" >28</text><circle c_pindot="true" class="pindot" cx="155" cy="-110" r="2" fill="none" stroke="none" /><path d="M 155 -110 v -20" fill="none" stroke="#000000" stroke-width="1"/><circle cx="155" cy="-127" r="3" stroke="#000000" fill="none" stroke-width="1" display="none" /><path d="M 158 -130 L 155 -133 L 152 -130" fill="none" stroke="#000000" stroke-width="1"  display="none" /></g><g c_partid="part_pin" c_etype="pinpart"  c_show="show"  c_elec="4" c_spicepin="27" c_origin="165,-110" id="gge6760" locked="0" c_rotation="270"><text x="168" y="-142" font-family="Verdana" font-size="5.5pt" fill="#000000" text-anchor="start" c_pinname="GND"  transform="rotate(270,168,-142)" >GND</text><text x="164" y="-125" font-family="Verdana" font-size="5.5pt" fill="#000000" text-anchor="end" c_pinnumber="27" display="none" transform="rotate(270,164,-125)" >27</text><circle c_pindot="true" class="pindot" cx="165" cy="-110" r="2" fill="none" stroke="none" /><path d="M 165 -110 v -20" fill="none" stroke="#000000" stroke-width="1"/><circle cx="165" cy="-127" r="3" stroke="#000000" fill="none" stroke-width="1" display="none" /><path d="M 168 -130 L 165 -133 L 162 -130" fill="none" stroke="#000000" stroke-width="1"  display="none" /></g><g c_partid="part_pin" c_etype="pinpart"  c_show="show"  c_elec="0" c_spicepin="26" c_origin="175,-110" id="gge6781" locked="0" c_rotation="270"><text x="178" y="-142" font-family="Verdana" font-size="5.5pt" fill="#000000" text-anchor="start" c_pinname="VIN"  transform="rotate(270,178,-142)" >VIN</text><text x="174" y="-125" font-family="Verdana" font-size="5.5pt" fill="#000000" text-anchor="end" c_pinnumber="26" display="none" transform="rotate(270,174,-125)" >26</text><circle c_pindot="true" class="pindot" cx="175" cy="-110" r="2" fill="none" stroke="none" /><path d="M 175 -110 v -20" fill="none" stroke="#000000" stroke-width="1"/><circle cx="175" cy="-127" r="3" stroke="#000000" fill="none" stroke-width="1" display="none" /><path d="M 178 -130 L 175 -133 L 172 -130" fill="none" stroke="#000000" stroke-width="1"  display="none" /></g><g c_partid="part_pin" c_etype="pinpart"  c_show="show"  c_elec="1" c_spicepin="24" c_origin="200,-110" id="gge6802" locked="0" c_rotation="270"><text x="203" y="-142" font-family="Verdana" font-size="7pt" fill="#000000" text-anchor="start" c_pinname="A0"  transform="rotate(270,203,-142)" >A0</text><text x="199" y="-125" font-family="Verdana" font-size="7pt" fill="#000000" text-anchor="end" c_pinnumber="24" display="none" transform="rotate(270,199,-125)" >24</text><circle c_pindot="true" class="pindot" cx="200" cy="-110" r="2" fill="none" stroke="none" /><path d="M 200 -110 v -20" fill="none" stroke="#000000" stroke-width="1"/><circle cx="200" cy="-127" r="3" stroke="#000000" fill="none" stroke-width="1" display="none" /><path d="M 203 -130 L 200 -133 L 197 -130" fill="none" stroke="#000000" stroke-width="1"  display="none" /></g><g c_partid="part_pin" c_etype="pinpart"  c_show="show"  c_elec="1" c_spicepin="23" c_origin="210,-110" id="gge6823" locked="0" c_rotation="270"><text x="213" y="-142" font-family="Verdana" font-size="7pt" fill="#000000" text-anchor="start" c_pinname="A1"  transform="rotate(270,213,-142)" >A1</text><text x="209" y="-125" font-family="Verdana" font-size="7pt" fill="#000000" text-anchor="end" c_pinnumber="23" display="none" transform="rotate(270,209,-125)" >23</text><circle c_pindot="true" class="pindot" cx="210" cy="-110" r="2" fill="none" stroke="none" /><path d="M 210 -110 v -20" fill="none" stroke="#000000" stroke-width="1"/><circle cx="210" cy="-127" r="3" stroke="#000000" fill="none" stroke-width="1" display="none" /><path d="M 213 -130 L 210 -133 L 207 -130" fill="none" stroke="#000000" stroke-width="1"  display="none" /></g><g c_partid="part_pin" c_etype="pinpart"  c_show="show"  c_elec="1" c_spicepin="22" c_origin="220,-110" id="gge6844" locked="0" c_rotation="270"><text x="224" y="-142" font-family="Verdana" font-size="7pt" fill="#000000" text-anchor="start" c_pinname="A2"  transform="rotate(270,224,-142)" >A2</text><text x="219" y="-125" font-family="Verdana" font-size="7pt" fill="#000000" text-anchor="end" c_pinnumber="22" display="none" transform="rotate(270,219,-125)" >22</text><circle c_pindot="true" class="pindot" cx="220" cy="-110" r="2" fill="none" stroke="none" /><path d="M 220 -110 v -20" fill="none" stroke="#000000" stroke-width="1"/><circle cx="220" cy="-127" r="3" stroke="#000000" fill="none" stroke-width="1" display="none" /><path d="M 223 -130 L 220 -133 L 217 -130" fill="none" stroke="#000000" stroke-width="1"  display="none" /></g><g c_partid="part_pin" c_etype="pinpart"  c_show="show"  c_elec="1" c_spicepin="21" c_origin="230,-110" id="gge6865" locked="0" c_rotation="270"><text x="233" y="-142" font-family="Verdana" font-size="7pt" fill="#000000" text-anchor="start" c_pinname="A3"  transform="rotate(270,233,-142)" >A3</text><text x="229" y="-125" font-family="Verdana" font-size="7pt" fill="#000000" text-anchor="end" c_pinnumber="21" display="none" transform="rotate(270,229,-125)" >21</text><circle c_pindot="true" class="pindot" cx="230" cy="-110" r="2" fill="none" stroke="none" /><path d="M 230 -110 v -20" fill="none" stroke="#000000" stroke-width="1"/><circle cx="230" cy="-127" r="3" stroke="#000000" fill="none" stroke-width="1" display="none" /><path d="M 233 -130 L 230 -133 L 227 -130" fill="none" stroke="#000000" stroke-width="1"  display="none" /></g><g c_partid="part_pin" c_etype="pinpart"  c_show="show"  c_elec="1" c_spicepin="20" c_origin="240,-110" id="gge6886" locked="0" c_rotation="270"><text x="243" y="-142" font-family="Verdana" font-size="7pt" fill="#000000" text-anchor="start" c_pinname="A4"  transform="rotate(270,243,-142)" >A4</text><text x="239" y="-125" font-family="Verdana" font-size="7pt" fill="#000000" text-anchor="end" c_pinnumber="20" display="none" transform="rotate(270,239,-125)" >20</text><circle c_pindot="true" class="pindot" cx="240" cy="-110" r="2" fill="none" stroke="none" /><path d="M 240 -110 v -20" fill="none" stroke="#000000" stroke-width="1"/><circle cx="240" cy="-127" r="3" stroke="#000000" fill="none" stroke-width="1" display="none" /><path d="M 243 -130 L 240 -133 L 237 -130" fill="none" stroke="#000000" stroke-width="1"  display="none" /></g><g c_partid="part_pin" c_etype="pinpart"  c_show="show"  c_elec="1" c_spicepin="19" c_origin="250,-110" id="gge6907" locked="0" c_rotation="270"><text x="253" y="-142" font-family="Verdana" font-size="7pt" fill="#000000" text-anchor="start" c_pinname="A5"  transform="rotate(270,253,-142)" >A5</text><text x="249" y="-125" font-family="Verdana" font-size="7pt" fill="#000000" text-anchor="end" c_pinnumber="19" display="none" transform="rotate(270,249,-125)" >19</text><circle c_pindot="true" class="pindot" cx="250" cy="-110" r="2" fill="none" stroke="none" /><path d="M 250 -110 v -20" fill="none" stroke="#000000" stroke-width="1"/><circle cx="250" cy="-127" r="3" stroke="#000000" fill="none" stroke-width="1" display="none" /><path d="M 253 -130 L 250 -133 L 247 -130" fill="none" stroke="#000000" stroke-width="1"  display="none" /></g><g c_partid="part_pin" c_etype="pinpart"  c_show="show"  c_elec="3" c_spicepin="34" c_origin="240,-286" id="gge6928" locked="0" c_rotation="90"><text x="243" y="-256" font-family="Verdana" font-size="7pt" fill="#000000" text-anchor="end" c_pinname="TX 1"  transform="rotate(270,243,-256)" >TX 1</text><text x="239" y="-271" font-family="Verdana" font-size="7pt" fill="#000000" text-anchor="start" c_pinnumber="2" display="none" transform="rotate(270,239,-271)" >2</text><circle c_pindot="true" class="pindot" cx="240" cy="-286" r="2" fill="none" stroke="none" /><path d="M 240 -286 v 20" fill="none" stroke="#000000" stroke-width="1"/><circle cx="240" cy="-269" r="3" stroke="#000000" fill="none" stroke-width="1" display="none" /><path d="M 237 -266 L 240 -263 L 243 -266" fill="none" stroke="#000000" stroke-width="1"  display="none" /></g><g c_partid="part_pin" c_etype="pinpart"  c_show="show"  c_elec="0" c_spicepin="18" c_origin="80,-286" id="gge6949" locked="0" c_rotation="90"><text x="83" y="-254" font-family="Verdana" font-size="7pt" fill="#000000" text-anchor="end" c_pinname="SCL"  transform="rotate(270,83,-254)" >SCL</text><text x="79" y="-271" font-family="Verdana" font-size="7pt" fill="#000000" text-anchor="start" c_pinnumber="18" display="none" transform="rotate(270,79,-271)" >18</text><circle c_pindot="true" class="pindot" cx="80" cy="-286" r="2" fill="none" stroke="none" /><path d="M 80 -286 v 20" fill="none" stroke="#000000" stroke-width="1"/><circle cx="80" cy="-269" r="3" stroke="#000000" fill="none" stroke-width="1" display="none" /><path d="M 77 -266 L 80 -263 L 83 -266" fill="none" stroke="#000000" stroke-width="1"  display="none" /></g><g c_partid="part_pin" c_etype="pinpart"  c_show="show"  c_elec="0" c_spicepin="17" c_origin="90,-286" id="gge6970" locked="0" c_rotation="90"><text x="93" y="-254" font-family="Verdana" font-size="7pt" fill="#000000" text-anchor="end" c_pinname="SDA"  transform="rotate(270,93,-254)" >SDA</text><text x="89" y="-271" font-family="Verdana" font-size="7pt" fill="#000000" text-anchor="start" c_pinnumber="17" display="none" transform="rotate(270,89,-271)" >17</text><circle c_pindot="true" class="pindot" cx="90" cy="-286" r="2" fill="none" stroke="none" /><path d="M 90 -286 v 20" fill="none" stroke="#000000" stroke-width="1"/><circle cx="90" cy="-269" r="3" stroke="#000000" fill="none" stroke-width="1" display="none" /><path d="M 87 -266 L 90 -263 L 93 -266" fill="none" stroke="#000000" stroke-width="1"  display="none" /></g><g c_partid="part_pin" c_etype="pinpart"  c_show="show"  c_elec="0" c_spicepin="16" c_origin="100,-286" id="gge6991" locked="0" c_rotation="90"><text x="103" y="-255" font-family="Verdana" font-size="7pt" fill="#000000" text-anchor="end" c_pinname="AREF"  transform="rotate(270,103,-255)" >AREF</text><text x="99" y="-271" font-family="Verdana" font-size="7pt" fill="#000000" text-anchor="start" c_pinnumber="16" display="none" transform="rotate(270,99,-271)" >16</text><circle c_pindot="true" class="pindot" cx="100" cy="-286" r="2" fill="none" stroke="none" /><path d="M 100 -286 v 20" fill="none" stroke="#000000" stroke-width="1"/><circle cx="100" cy="-269" r="3" stroke="#000000" fill="none" stroke-width="1" display="none" /><path d="M 97 -266 L 100 -263 L 103 -266" fill="none" stroke="#000000" stroke-width="1"  display="none" /></g><g c_partid="part_pin" c_etype="pinpart"  c_show="show"  c_elec="4" c_spicepin="15" c_origin="110,-286" id="gge7012" locked="0" c_rotation="90"><text x="113" y="-255" font-family="Verdana" font-size="7pt" fill="#000000" text-anchor="end" c_pinname="GND"  transform="rotate(270,113,-255)" >GND</text><text x="109" y="-271" font-family="Verdana" font-size="7pt" fill="#000000" text-anchor="start" c_pinnumber="15" display="none" transform="rotate(270,109,-271)" >15</text><circle c_pindot="true" class="pindot" cx="110" cy="-286" r="2" fill="none" stroke="none" /><path d="M 110 -286 v 20" fill="none" stroke="#000000" stroke-width="1"/><circle cx="110" cy="-269" r="3" stroke="#000000" fill="none" stroke-width="1" display="none" /><path d="M 107 -266 L 110 -263 L 113 -266" fill="none" stroke="#000000" stroke-width="1"  display="none" /></g><g c_partid="part_pin" c_etype="pinpart"  c_show="show"  c_elec="3" c_spicepin="14" c_origin="120,-286" id="gge7033" locked="0" c_rotation="90"><text x="123" y="-255" font-family="Verdana" font-size="7pt" fill="#000000" text-anchor="end" c_pinname="13"  transform="rotate(270,123,-255)" >13</text><text x="119" y="-271" font-family="Verdana" font-size="7pt" fill="#000000" text-anchor="start" c_pinnumber="14" display="none" transform="rotate(270,119,-271)" >14</text><circle c_pindot="true" class="pindot" cx="120" cy="-286" r="2" fill="none" stroke="none" /><path d="M 120 -286 v 20" fill="none" stroke="#000000" stroke-width="1"/><circle cx="120" cy="-269" r="3" stroke="#000000" fill="none" stroke-width="1" display="none" /><path d="M 117 -266 L 120 -263 L 123 -266" fill="none" stroke="#000000" stroke-width="1"  display="none" /></g><g c_partid="part_pin" c_etype="pinpart"  c_show="show"  c_elec="3" c_spicepin="13" c_origin="130,-286" id="gge7054" locked="0" c_rotation="90"><text x="133" y="-255" font-family="Verdana" font-size="7pt" fill="#000000" text-anchor="end" c_pinname="12"  transform="rotate(270,133,-255)" >12</text><text x="129" y="-271" font-family="Verdana" font-size="7pt" fill="#000000" text-anchor="start" c_pinnumber="13" display="none" transform="rotate(270,129,-271)" >13</text><circle c_pindot="true" class="pindot" cx="130" cy="-286" r="2" fill="none" stroke="none" /><path d="M 130 -286 v 20" fill="none" stroke="#000000" stroke-width="1"/><circle cx="130" cy="-269" r="3" stroke="#000000" fill="none" stroke-width="1" display="none" /><path d="M 127 -266 L 130 -263 L 133 -266" fill="none" stroke="#000000" stroke-width="1"  display="none" /></g><g c_partid="part_pin" c_etype="pinpart"  c_show="show"  c_elec="3" c_spicepin="12" c_origin="140,-286" id="gge7075" locked="0" c_rotation="90"><text x="143" y="-256" font-family="Verdana" font-size="7pt" fill="#000000" text-anchor="end" c_pinname="~11"  transform="rotate(270,143,-256)" >~11</text><text x="139" y="-271" font-family="Verdana" font-size="7pt" fill="#000000" text-anchor="start" c_pinnumber="12" display="none" transform="rotate(270,139,-271)" >12</text><circle c_pindot="true" class="pindot" cx="140" cy="-286" r="2" fill="none" stroke="none" /><path d="M 140 -286 v 20" fill="none" stroke="#000000" stroke-width="1"/><circle cx="140" cy="-269" r="3" stroke="#000000" fill="none" stroke-width="1" display="none" /><path d="M 137 -266 L 140 -263 L 143 -266" fill="none" stroke="#000000" stroke-width="1"  display="none" /></g><g c_partid="part_pin" c_etype="pinpart"  c_show="show"  c_elec="3" c_spicepin="11" c_origin="150,-286" id="gge7096" locked="0" c_rotation="90"><text x="154" y="-255" font-family="Verdana" font-size="7pt" fill="#000000" text-anchor="end" c_pinname="~10"  transform="rotate(270,154,-255)" >~10</text><text x="149" y="-271" font-family="Verdana" font-size="7pt" fill="#000000" text-anchor="start" c_pinnumber="11" display="none" transform="rotate(270,149,-271)" >11</text><circle c_pindot="true" class="pindot" cx="150" cy="-286" r="2" fill="none" stroke="none" /><path d="M 150 -286 v 20" fill="none" stroke="#000000" stroke-width="1"/><circle cx="150" cy="-269" r="3" stroke="#000000" fill="none" stroke-width="1" display="none" /><path d="M 147 -266 L 150 -263 L 153 -266" fill="none" stroke="#000000" stroke-width="1"  display="none" /></g><g c_partid="part_pin" c_etype="pinpart"  c_show="show"  c_elec="3" c_spicepin="10" c_origin="160,-286" id="gge7117" locked="0" c_rotation="90"><text x="163" y="-255" font-family="Verdana" font-size="7pt" fill="#000000" text-anchor="end" c_pinname="~9"  transform="rotate(270,163,-255)" >~9</text><text x="159" y="-271" font-family="Verdana" font-size="7pt" fill="#000000" text-anchor="start" c_pinnumber="10" display="none" transform="rotate(270,159,-271)" >10</text><circle c_pindot="true" class="pindot" cx="160" cy="-286" r="2" fill="none" stroke="none" /><path d="M 160 -286 v 20" fill="none" stroke="#000000" stroke-width="1"/><circle cx="160" cy="-269" r="3" stroke="#000000" fill="none" stroke-width="1" display="none" /><path d="M 157 -266 L 160 -263 L 163 -266" fill="none" stroke="#000000" stroke-width="1"  display="none" /></g><g c_partid="part_pin" c_etype="pinpart"  c_show="show"  c_elec="3" c_spicepin="9" c_origin="170,-286" id="gge7138" locked="0" c_rotation="90"><text x="173" y="-255" font-family="Verdana" font-size="7pt" fill="#000000" text-anchor="end" c_pinname="8"  transform="rotate(270,173,-255)" >8</text><text x="169" y="-271" font-family="Verdana" font-size="7pt" fill="#000000" text-anchor="start" c_pinnumber="9" display="none" transform="rotate(270,169,-271)" >9</text><circle c_pindot="true" class="pindot" cx="170" cy="-286" r="2" fill="none" stroke="none" /><path d="M 170 -286 v 20" fill="none" stroke="#000000" stroke-width="1"/><circle cx="170" cy="-269" r="3" stroke="#000000" fill="none" stroke-width="1" display="none" /><path d="M 167 -266 L 170 -263 L 173 -266" fill="none" stroke="#000000" stroke-width="1"  display="none" /></g><g c_partid="part_pin" c_etype="pinpart"  c_show="show"  c_elec="3" c_spicepin="8" c_origin="180,-286" id="gge7159" locked="0" c_rotation="90"><text x="183" y="-255" font-family="Verdana" font-size="7pt" fill="#000000" text-anchor="end" c_pinname="7"  transform="rotate(270,183,-255)" >7</text><text x="179" y="-271" font-family="Verdana" font-size="7pt" fill="#000000" text-anchor="start" c_pinnumber="8" display="none" transform="rotate(270,179,-271)" >8</text><circle c_pindot="true" class="pindot" cx="180" cy="-286" r="2" fill="none" stroke="none" /><path d="M 180 -286 v 20" fill="none" stroke="#000000" stroke-width="1"/><circle cx="180" cy="-269" r="3" stroke="#000000" fill="none" stroke-width="1" display="none" /><path d="M 177 -266 L 180 -263 L 183 -266" fill="none" stroke="#000000" stroke-width="1"  display="none" /></g><g c_partid="part_pin" c_etype="pinpart"  c_show="show"  c_elec="3" c_spicepin="7" c_origin="190,-286" id="gge7180" locked="0" c_rotation="90"><text x="193" y="-255" font-family="Verdana" font-size="7pt" fill="#000000" text-anchor="end" c_pinname="~6"  transform="rotate(270,193,-255)" >~6</text><text x="189" y="-271" font-family="Verdana" font-size="7pt" fill="#000000" text-anchor="start" c_pinnumber="7" display="none" transform="rotate(270,189,-271)" >7</text><circle c_pindot="true" class="pindot" cx="190" cy="-286" r="2" fill="none" stroke="none" /><path d="M 190 -286 v 20" fill="none" stroke="#000000" stroke-width="1"/><circle cx="190" cy="-269" r="3" stroke="#000000" fill="none" stroke-width="1" display="none" /><path d="M 187 -266 L 190 -263 L 193 -266" fill="none" stroke="#000000" stroke-width="1"  display="none" /></g><g c_partid="part_pin" c_etype="pinpart"  c_show="show"  c_elec="3" c_spicepin="6" c_origin="200,-286" id="gge7201" locked="0" c_rotation="90"><text x="203" y="-255" font-family="Verdana" font-size="7pt" fill="#000000" text-anchor="end" c_pinname="~5"  transform="rotate(270,203,-255)" >~5</text><text x="199" y="-271" font-family="Verdana" font-size="7pt" fill="#000000" text-anchor="start" c_pinnumber="6" display="none" transform="rotate(270,199,-271)" >6</text><circle c_pindot="true" class="pindot" cx="200" cy="-286" r="2" fill="none" stroke="none" /><path d="M 200 -286 v 20" fill="none" stroke="#000000" stroke-width="1"/><circle cx="200" cy="-269" r="3" stroke="#000000" fill="none" stroke-width="1" display="none" /><path d="M 197 -266 L 200 -263 L 203 -266" fill="none" stroke="#000000" stroke-width="1"  display="none" /></g><g c_partid="part_pin" c_etype="pinpart"  c_show="show"  c_elec="3" c_spicepin="5" c_origin="210,-286" id="gge7222" locked="0" c_rotation="90"><text x="213" y="-255" font-family="Verdana" font-size="7pt" fill="#000000" text-anchor="end" c_pinname="4"  transform="rotate(270,213,-255)" >4</text><text x="209" y="-271" font-family="Verdana" font-size="7pt" fill="#000000" text-anchor="start" c_pinnumber="5" display="none" transform="rotate(270,209,-271)" >5</text><circle c_pindot="true" class="pindot" cx="210" cy="-286" r="2" fill="none" stroke="none" /><path d="M 210 -286 v 20" fill="none" stroke="#000000" stroke-width="1"/><circle cx="210" cy="-269" r="3" stroke="#000000" fill="none" stroke-width="1" display="none" /><path d="M 207 -266 L 210 -263 L 213 -266" fill="none" stroke="#000000" stroke-width="1"  display="none" /></g><g c_partid="part_pin" c_etype="pinpart"  c_show="show"  c_elec="3" c_spicepin="4" c_origin="220,-286" id="gge7243" locked="0" c_rotation="90"><text x="224" y="-255" font-family="Verdana" font-size="7pt" fill="#000000" text-anchor="end" c_pinname="3"  transform="rotate(270,224,-255)" >3</text><text x="219" y="-271" font-family="Verdana" font-size="7pt" fill="#000000" text-anchor="start" c_pinnumber="4" display="none" transform="rotate(270,219,-271)" >4</text><circle c_pindot="true" class="pindot" cx="220" cy="-286" r="2" fill="none" stroke="none" /><path d="M 220 -286 v 20" fill="none" stroke="#000000" stroke-width="1"/><circle cx="220" cy="-269" r="3" stroke="#000000" fill="none" stroke-width="1" display="none" /><path d="M 217 -266 L 220 -263 L 223 -266" fill="none" stroke="#000000" stroke-width="1"  display="none" /></g><g c_partid="part_pin" c_etype="pinpart"  c_show="show"  c_elec="3" c_spicepin="3" c_origin="230,-286" id="gge7264" locked="0" c_rotation="90"><text x="233" y="-255" font-family="Verdana" font-size="7pt" fill="#000000" text-anchor="end" c_pinname="2"  transform="rotate(270,233,-255)" >2</text><text x="229" y="-271" font-family="Verdana" font-size="7pt" fill="#000000" text-anchor="start" c_pinnumber="3" display="none" transform="rotate(270,229,-271)" >3</text><circle c_pindot="true" class="pindot" cx="230" cy="-286" r="2" fill="none" stroke="none" /><path d="M 230 -286 v 20" fill="none" stroke="#000000" stroke-width="1"/><circle cx="230" cy="-269" r="3" stroke="#000000" fill="none" stroke-width="1" display="none" /><path d="M 227 -266 L 230 -263 L 233 -266" fill="none" stroke="#000000" stroke-width="1"  display="none" /></g><g c_partid="part_pin" c_etype="pinpart"  c_show="show"  c_elec="3" c_spicepin="1" c_origin="250,-286" id="gge7285" locked="0" c_rotation="90"><text x="252" y="-255" font-family="Verdana" font-size="7pt" fill="#000000" text-anchor="end" c_pinname="RX 0"  transform="rotate(270,252,-255)" >RX 0</text><text x="249" y="-271" font-family="Verdana" font-size="7pt" fill="#000000" text-anchor="start" c_pinnumber="1" display="none" transform="rotate(270,249,-271)" >1</text><circle c_pindot="true" class="pindot" cx="250" cy="-286" r="2" fill="none" stroke="none" /><path d="M 250 -286 v 20" fill="none" stroke="#000000" stroke-width="1"/><circle cx="250" cy="-269" r="3" stroke="#000000" fill="none" stroke-width="1" display="none" /><path d="M 247 -266 L 250 -263 L 253 -266" fill="none" stroke="#000000" stroke-width="1"  display="none" /></g><ellipse cx="157.25" cy="-206.25" rx="12" ry="12" id="gge7306" locked="0" stroke="#000000" stroke-width="3" fill="none"   /><ellipse cx="133" cy="-206" rx="12" ry="12" id="gge7309" locked="0" stroke="#000000" stroke-width="3" fill="none"   /><g c_partid="part_annotation" id="gge7312" locked="0" c_origin="128,-183" c_shapetype="group" c_etype="pinpart"><text x="128" y="-183" fill="#000000" font-family="Arial" font-size="7pt" font-weight="normal" font-style="" dominant-baseline="" text-anchor="start" type="comment"  >Arduino</text></g><polyline points="129 -206 135 -206" stroke="#000000" id="gge7318" locked="0" stroke-width="3"   fill="none" stroke-linecap="round" /><polyline points="155 -206 161 -206 158 -206 158 -203 158 -209" stroke="#000000" id="gge7321" locked="0" stroke-width="3"   fill="none" stroke-linecap="round" /><rect id="gge7324" locked="0" c_etype="" x="35" y="-266"   width="230" height="136" stroke="#000000" stroke-width="1" fill="none"   /></g><g c_partid="part_junction" c_etype="pinpart" c_origin="155,-95" id="gge6594" locked="0" c_shapetype="group"><circle c_pindot="true" class="pindot" cx="155" cy="-95" r="2" fill="none" stroke="none"/><circle cx="155" cy="-95" r="2.5" fill="#CC0000" stroke-width="1"/></g><g c_partid="part_junction" c_etype="pinpart" c_origin="210,-15" id="gge6617" locked="0" c_shapetype="group"><circle c_pindot="true" class="pindot" cx="210" cy="-15" r="2" fill="none" stroke="none"/><circle cx="210" cy="-15" r="2.5" fill="#CC0000" stroke-width="1"/></g><g c_partid="part_junction" c_etype="pinpart" c_origin="280,-85" id="gge6618" locked="0" c_shapetype="group"><circle c_pindot="true" class="pindot" cx="280" cy="-85" r="2" fill="none" stroke="none"/><circle cx="280" cy="-85" r="2.5" fill="#CC0000" stroke-width="1"/></g><g c_partid="part_junction" c_etype="pinpart" c_origin="280,-30" id="gge6622" locked="0" c_shapetype="group"><circle c_pindot="true" class="pindot" cx="280" cy="-30" r="2" fill="none" stroke="none"/><circle cx="280" cy="-30" r="2.5" fill="#CC0000" stroke-width="1"/></g></g></svg>