<svg xmlns="http://www.w3.org/2000/svg" xmlns:xlink="http://www.w3.org/1999/xlink" width="297.5" height="306.3" viewBox="40 -325 297.5 306.3"><title>DS18B20</title><style type="text/css">
path, polyline, polygon {stroke-linejoin:round;}
rect, circle, ellipse, polyline, line, polygon, path {shape-rendering:crispEdges;}
</style>
<rect x="40" y="-325" width="297.5" height="306.3" fill="#3B4855" stroke="none"/><g xmlns="http://www.w3.org/2000/svg" id="g1" c_spiceCmd="null" c_para="Prefix Start`1" importFlag="" c_portOfADImportHack="" c_transformList=""><g c_origin="135,-260" c_para="package``BOM_Manufacturer``BOM_Manufacturer Part``BOM_Supplier Part``BOM_Supplier`Arduino`link``Contributor`Halina20011`spicePre`U`spiceSymbolName`ARDUINO UNO`" c_partid="part_lib_ggee9125bf703f8e77a" id="ggee9125bf703f8e77a" locked="0" c_shapetype="group" c_etype="pinpart" puuid="" uuid="4ec8fcb662d94f318a545330e18f639e" convert_to_pcb="yes" datastrid="039cfa9eba91419786d8b4c7ef933d60" pdatastrid="" utime="1663959301" add_into_bom="yes" ><g c_partid="part_annotation" id="gge370"   c_shapetype="group"><text c_note="note_name" x="66.59" y="-156.48" fill="#000080" font-family="Arial" font-size="7pt" font-weight="" font-style="" dominant-baseline="" text-anchor="start"  >ARDUINO UNO</text></g><g c_partid="part_annotation" id="gge376" display="none"  c_shapetype="group"><text c_note="note_pre" x="292" y="-214.28" fill="#000080" font-family="Arial" font-size="7pt" font-weight="" font-style="" dominant-baseline="" text-anchor="start"  >U4</text></g><polyline points="208 -234 208 -223 210 -221 214 -221 216 -223 216 -234 216 -233" stroke="#000000" id="gge2055" locked="0" stroke-width="2"   fill="none" stroke-linecap="round" /><polyline points="222 -221 222 -234 231 -221 231 -234" stroke="#000000" id="gge2058" locked="0" stroke-width="2"   fill="none" stroke-linecap="round" /><polyline points="240 -234 239 -234 237 -233 236 -231 236 -224 237 -222 239 -221 242 -221 244 -222 245 -224 245 -231 244 -233 242 -234 240 -234" stroke="#000000" id="gge2061" locked="0" stroke-width="2"   fill="none" stroke-linecap="round" /><g c_partid="part_pin" c_etype="pinpart"  c_show="show"  c_elec="0" c_spicepin="33" c_origin="130,-130" id="gge2064" locked="0" c_rotation="270"><text x="133" y="-152" font-family="Verdana" font-size="7pt" fill="#FFFFFF" text-anchor="start" c_pinname="33" display="none" transform="rotate(270,133,-152)" >33</text><text x="129" y="-145" font-family="Verdana" font-size="7pt" fill="#FFFFFF" text-anchor="end" c_pinnumber="33" display="none" transform="rotate(270,129,-145)" >33</text><circle c_pindot="true" class="pindot" cx="130" cy="-130" r="2" fill="none" stroke="none" /><path d="M 130 -130 v -20" fill="none" stroke="#000000" stroke-width="1"/><circle cx="130" cy="-147" r="3" stroke="#000000" fill="none" stroke-width="1" display="none" /><path d="M 133 -150 L 130 -153 L 127 -150" fill="none" stroke="#000000" stroke-width="1"  display="none" /></g><g c_partid="part_pin" c_etype="pinpart"  c_show="show"  c_elec="0" c_spicepin="32" c_origin="140,-130" id="gge2085" locked="0" c_rotation="270"><text x="142" y="-163" font-family="Verdana" font-size="5.5pt" fill="#000000" text-anchor="start" c_pinname="IOREF"  transform="rotate(270,142,-163)" >IOREF</text><text x="139" y="-145" font-family="Verdana" font-size="5.5pt" fill="#000000" text-anchor="end" c_pinnumber="32" display="none" transform="rotate(270,139,-145)" >32</text><circle c_pindot="true" class="pindot" cx="140" cy="-130" r="2" fill="none" stroke="none" /><path d="M 140 -130 v -20" fill="none" stroke="#000000" stroke-width="1"/><circle cx="140" cy="-147" r="3" stroke="#000000" fill="none" stroke-width="1" display="none" /><path d="M 143 -150 L 140 -153 L 137 -150" fill="none" stroke="#000000" stroke-width="1"  display="none" /></g><g c_partid="part_pin" c_etype="pinpart"  c_show="show"  c_elec="0" c_spicepin="31" c_origin="150,-130" id="gge2106" locked="0" c_rotation="270"><text x="152" y="-163" font-family="Verdana" font-size="5.5pt" fill="#000000" text-anchor="start" c_pinname="RESET"  transform="rotate(270,152,-163)" >RESET</text><text x="149" y="-145" font-family="Verdana" font-size="5.5pt" fill="#000000" text-anchor="end" c_pinnumber="31" display="none" transform="rotate(270,149,-145)" >31</text><circle c_pindot="true" class="pindot" cx="150" cy="-130" r="2" fill="none" stroke="none" /><path d="M 150 -130 v -20" fill="none" stroke="#000000" stroke-width="1"/><circle cx="150" cy="-147" r="3" stroke="#000000" fill="none" stroke-width="1" display="none" /><path d="M 153 -150 L 150 -153 L 147 -150" fill="none" stroke="#000000" stroke-width="1"  display="none" /></g><g c_partid="part_pin" c_etype="pinpart"  c_show="show"  c_elec="4" c_spicepin="30" c_origin="160,-130" id="gge2127" locked="0" c_rotation="270"><text x="163" y="-163" font-family="Verdana" font-size="5.5pt" fill="#000000" text-anchor="start" c_pinname="3.3V"  transform="rotate(270,163,-163)" >3.3V</text><text x="159" y="-145" font-family="Verdana" font-size="5.5pt" fill="#000000" text-anchor="end" c_pinnumber="30" display="none" transform="rotate(270,159,-145)" >30</text><circle c_pindot="true" class="pindot" cx="160" cy="-130" r="2" fill="none" stroke="none" /><path d="M 160 -130 v -20" fill="none" stroke="#000000" stroke-width="1"/><circle cx="160" cy="-147" r="3" stroke="#000000" fill="none" stroke-width="1" display="none" /><path d="M 163 -150 L 160 -153 L 157 -150" fill="none" stroke="#000000" stroke-width="1"  display="none" /></g><g c_partid="part_pin" c_etype="pinpart"  c_show="show"  c_elec="4" c_spicepin="29" c_origin="170,-130" id="gge2148" locked="0" c_rotation="270"><text x="173" y="-163" font-family="Verdana" font-size="5.5pt" fill="#000000" text-anchor="start" c_pinname="5V"  transform="rotate(270,173,-163)" >5V</text><text x="169" y="-145" font-family="Verdana" font-size="5.5pt" fill="#000000" text-anchor="end" c_pinnumber="29" display="none" transform="rotate(270,169,-145)" >29</text><circle c_pindot="true" class="pindot" cx="170" cy="-130" r="2" fill="none" stroke="none" /><path d="M 170 -130 v -20" fill="none" stroke="#000000" stroke-width="1"/><circle cx="170" cy="-147" r="3" stroke="#000000" fill="none" stroke-width="1" display="none" /><path d="M 173 -150 L 170 -153 L 167 -150" fill="none" stroke="#000000" stroke-width="1"  display="none" /></g><g c_partid="part_pin" c_etype="pinpart"  c_show="show"  c_elec="4" c_spicepin="28" c_origin="180,-130" id="gge2169" locked="0" c_rotation="270"><text x="183" y="-162" font-family="Verdana" font-size="5.5pt" fill="#000000" text-anchor="start" c_pinname="GND"  transform="rotate(270,183,-162)" >GND</text><text x="179" y="-145" font-family="Verdana" font-size="5.5pt" fill="#000000" text-anchor="end" c_pinnumber="28" display="none" transform="rotate(270,179,-145)" >28</text><circle c_pindot="true" class="pindot" cx="180" cy="-130" r="2" fill="none" stroke="none" /><path d="M 180 -130 v -20" fill="none" stroke="#000000" stroke-width="1"/><circle cx="180" cy="-147" r="3" stroke="#000000" fill="none" stroke-width="1" display="none" /><path d="M 183 -150 L 180 -153 L 177 -150" fill="none" stroke="#000000" stroke-width="1"  display="none" /></g><g c_partid="part_pin" c_etype="pinpart"  c_show="show"  c_elec="4" c_spicepin="27" c_origin="190,-130" id="gge2190" locked="0" c_rotation="270"><text x="193" y="-162" font-family="Verdana" font-size="5.5pt" fill="#000000" text-anchor="start" c_pinname="GND"  transform="rotate(270,193,-162)" >GND</text><text x="189" y="-145" font-family="Verdana" font-size="5.5pt" fill="#000000" text-anchor="end" c_pinnumber="27" display="none" transform="rotate(270,189,-145)" >27</text><circle c_pindot="true" class="pindot" cx="190" cy="-130" r="2" fill="none" stroke="none" /><path d="M 190 -130 v -20" fill="none" stroke="#000000" stroke-width="1"/><circle cx="190" cy="-147" r="3" stroke="#000000" fill="none" stroke-width="1" display="none" /><path d="M 193 -150 L 190 -153 L 187 -150" fill="none" stroke="#000000" stroke-width="1"  display="none" /></g><g c_partid="part_pin" c_etype="pinpart"  c_show="show"  c_elec="0" c_spicepin="26" c_origin="200,-130" id="gge2211" locked="0" c_rotation="270"><text x="203" y="-162" font-family="Verdana" font-size="5.5pt" fill="#000000" text-anchor="start" c_pinname="VIN"  transform="rotate(270,203,-162)" >VIN</text><text x="199" y="-145" font-family="Verdana" font-size="5.5pt" fill="#000000" text-anchor="end" c_pinnumber="26" display="none" transform="rotate(270,199,-145)" >26</text><circle c_pindot="true" class="pindot" cx="200" cy="-130" r="2" fill="none" stroke="none" /><path d="M 200 -130 v -20" fill="none" stroke="#000000" stroke-width="1"/><circle cx="200" cy="-147" r="3" stroke="#000000" fill="none" stroke-width="1" display="none" /><path d="M 203 -150 L 200 -153 L 197 -150" fill="none" stroke="#000000" stroke-width="1"  display="none" /></g><g c_partid="part_pin" c_etype="pinpart"  c_show="show"  c_elec="1" c_spicepin="24" c_origin="225,-130" id="gge2232" locked="0" c_rotation="270"><text x="228" y="-162" font-family="Verdana" font-size="7pt" fill="#000000" text-anchor="start" c_pinname="A0"  transform="rotate(270,228,-162)" >A0</text><text x="224" y="-145" font-family="Verdana" font-size="7pt" fill="#000000" text-anchor="end" c_pinnumber="24" display="none" transform="rotate(270,224,-145)" >24</text><circle c_pindot="true" class="pindot" cx="225" cy="-130" r="2" fill="none" stroke="none" /><path d="M 225 -130 v -20" fill="none" stroke="#000000" stroke-width="1"/><circle cx="225" cy="-147" r="3" stroke="#000000" fill="none" stroke-width="1" display="none" /><path d="M 228 -150 L 225 -153 L 222 -150" fill="none" stroke="#000000" stroke-width="1"  display="none" /></g><g c_partid="part_pin" c_etype="pinpart"  c_show="show"  c_elec="1" c_spicepin="23" c_origin="235,-130" id="gge2253" locked="0" c_rotation="270"><text x="238" y="-162" font-family="Verdana" font-size="7pt" fill="#000000" text-anchor="start" c_pinname="A1"  transform="rotate(270,238,-162)" >A1</text><text x="234" y="-145" font-family="Verdana" font-size="7pt" fill="#000000" text-anchor="end" c_pinnumber="23" display="none" transform="rotate(270,234,-145)" >23</text><circle c_pindot="true" class="pindot" cx="235" cy="-130" r="2" fill="none" stroke="none" /><path d="M 235 -130 v -20" fill="none" stroke="#000000" stroke-width="1"/><circle cx="235" cy="-147" r="3" stroke="#000000" fill="none" stroke-width="1" display="none" /><path d="M 238 -150 L 235 -153 L 232 -150" fill="none" stroke="#000000" stroke-width="1"  display="none" /></g><g c_partid="part_pin" c_etype="pinpart"  c_show="show"  c_elec="1" c_spicepin="22" c_origin="245,-130" id="gge2274" locked="0" c_rotation="270"><text x="249" y="-162" font-family="Verdana" font-size="7pt" fill="#000000" text-anchor="start" c_pinname="A2"  transform="rotate(270,249,-162)" >A2</text><text x="244" y="-145" font-family="Verdana" font-size="7pt" fill="#000000" text-anchor="end" c_pinnumber="22" display="none" transform="rotate(270,244,-145)" >22</text><circle c_pindot="true" class="pindot" cx="245" cy="-130" r="2" fill="none" stroke="none" /><path d="M 245 -130 v -20" fill="none" stroke="#000000" stroke-width="1"/><circle cx="245" cy="-147" r="3" stroke="#000000" fill="none" stroke-width="1" display="none" /><path d="M 248 -150 L 245 -153 L 242 -150" fill="none" stroke="#000000" stroke-width="1"  display="none" /></g><g c_partid="part_pin" c_etype="pinpart"  c_show="show"  c_elec="1" c_spicepin="21" c_origin="255,-130" id="gge2295" locked="0" c_rotation="270"><text x="258" y="-162" font-family="Verdana" font-size="7pt" fill="#000000" text-anchor="start" c_pinname="A3"  transform="rotate(270,258,-162)" >A3</text><text x="254" y="-145" font-family="Verdana" font-size="7pt" fill="#000000" text-anchor="end" c_pinnumber="21" display="none" transform="rotate(270,254,-145)" >21</text><circle c_pindot="true" class="pindot" cx="255" cy="-130" r="2" fill="none" stroke="none" /><path d="M 255 -130 v -20" fill="none" stroke="#000000" stroke-width="1"/><circle cx="255" cy="-147" r="3" stroke="#000000" fill="none" stroke-width="1" display="none" /><path d="M 258 -150 L 255 -153 L 252 -150" fill="none" stroke="#000000" stroke-width="1"  display="none" /></g><g c_partid="part_pin" c_etype="pinpart"  c_show="show"  c_elec="1" c_spicepin="20" c_origin="265,-130" id="gge2316" locked="0" c_rotation="270"><text x="268" y="-162" font-family="Verdana" font-size="7pt" fill="#000000" text-anchor="start" c_pinname="A4"  transform="rotate(270,268,-162)" >A4</text><text x="264" y="-145" font-family="Verdana" font-size="7pt" fill="#000000" text-anchor="end" c_pinnumber="20" display="none" transform="rotate(270,264,-145)" >20</text><circle c_pindot="true" class="pindot" cx="265" cy="-130" r="2" fill="none" stroke="none" /><path d="M 265 -130 v -20" fill="none" stroke="#000000" stroke-width="1"/><circle cx="265" cy="-147" r="3" stroke="#000000" fill="none" stroke-width="1" display="none" /><path d="M 268 -150 L 265 -153 L 262 -150" fill="none" stroke="#000000" stroke-width="1"  display="none" /></g><g c_partid="part_pin" c_etype="pinpart"  c_show="show"  c_elec="1" c_spicepin="19" c_origin="275,-130" id="gge2337" locked="0" c_rotation="270"><text x="278" y="-162" font-family="Verdana" font-size="7pt" fill="#000000" text-anchor="start" c_pinname="A5"  transform="rotate(270,278,-162)" >A5</text><text x="274" y="-145" font-family="Verdana" font-size="7pt" fill="#000000" text-anchor="end" c_pinnumber="19" display="none" transform="rotate(270,274,-145)" >19</text><circle c_pindot="true" class="pindot" cx="275" cy="-130" r="2" fill="none" stroke="none" /><path d="M 275 -130 v -20" fill="none" stroke="#000000" stroke-width="1"/><circle cx="275" cy="-147" r="3" stroke="#000000" fill="none" stroke-width="1" display="none" /><path d="M 278 -150 L 275 -153 L 272 -150" fill="none" stroke="#000000" stroke-width="1"  display="none" /></g><g c_partid="part_pin" c_etype="pinpart"  c_show="show"  c_elec="3" c_spicepin="34" c_origin="265,-306" id="gge2358" locked="0" c_rotation="90"><text x="268" y="-276" font-family="Verdana" font-size="7pt" fill="#000000" text-anchor="end" c_pinname="TX 1"  transform="rotate(270,268,-276)" >TX 1</text><text x="264" y="-291" font-family="Verdana" font-size="7pt" fill="#000000" text-anchor="start" c_pinnumber="2" display="none" transform="rotate(270,264,-291)" >2</text><circle c_pindot="true" class="pindot" cx="265" cy="-306" r="2" fill="none" stroke="none" /><path d="M 265 -306 v 20" fill="none" stroke="#000000" stroke-width="1"/><circle cx="265" cy="-289" r="3" stroke="#000000" fill="none" stroke-width="1" display="none" /><path d="M 262 -286 L 265 -283 L 268 -286" fill="none" stroke="#000000" stroke-width="1"  display="none" /></g><g c_partid="part_pin" c_etype="pinpart"  c_show="show"  c_elec="0" c_spicepin="18" c_origin="105,-306" id="gge2379" locked="0" c_rotation="90"><text x="108" y="-274" font-family="Verdana" font-size="7pt" fill="#000000" text-anchor="end" c_pinname="SCL"  transform="rotate(270,108,-274)" >SCL</text><text x="104" y="-291" font-family="Verdana" font-size="7pt" fill="#000000" text-anchor="start" c_pinnumber="18" display="none" transform="rotate(270,104,-291)" >18</text><circle c_pindot="true" class="pindot" cx="105" cy="-306" r="2" fill="none" stroke="none" /><path d="M 105 -306 v 20" fill="none" stroke="#000000" stroke-width="1"/><circle cx="105" cy="-289" r="3" stroke="#000000" fill="none" stroke-width="1" display="none" /><path d="M 102 -286 L 105 -283 L 108 -286" fill="none" stroke="#000000" stroke-width="1"  display="none" /></g><g c_partid="part_pin" c_etype="pinpart"  c_show="show"  c_elec="0" c_spicepin="17" c_origin="115,-306" id="gge2400" locked="0" c_rotation="90"><text x="118" y="-274" font-family="Verdana" font-size="7pt" fill="#000000" text-anchor="end" c_pinname="SDA"  transform="rotate(270,118,-274)" >SDA</text><text x="114" y="-291" font-family="Verdana" font-size="7pt" fill="#000000" text-anchor="start" c_pinnumber="17" display="none" transform="rotate(270,114,-291)" >17</text><circle c_pindot="true" class="pindot" cx="115" cy="-306" r="2" fill="none" stroke="none" /><path d="M 115 -306 v 20" fill="none" stroke="#000000" stroke-width="1"/><circle cx="115" cy="-289" r="3" stroke="#000000" fill="none" stroke-width="1" display="none" /><path d="M 112 -286 L 115 -283 L 118 -286" fill="none" stroke="#000000" stroke-width="1"  display="none" /></g><g c_partid="part_pin" c_etype="pinpart"  c_show="show"  c_elec="0" c_spicepin="16" c_origin="125,-306" id="gge2421" locked="0" c_rotation="90"><text x="128" y="-275" font-family="Verdana" font-size="7pt" fill="#000000" text-anchor="end" c_pinname="AREF"  transform="rotate(270,128,-275)" >AREF</text><text x="124" y="-291" font-family="Verdana" font-size="7pt" fill="#000000" text-anchor="start" c_pinnumber="16" display="none" transform="rotate(270,124,-291)" >16</text><circle c_pindot="true" class="pindot" cx="125" cy="-306" r="2" fill="none" stroke="none" /><path d="M 125 -306 v 20" fill="none" stroke="#000000" stroke-width="1"/><circle cx="125" cy="-289" r="3" stroke="#000000" fill="none" stroke-width="1" display="none" /><path d="M 122 -286 L 125 -283 L 128 -286" fill="none" stroke="#000000" stroke-width="1"  display="none" /></g><g c_partid="part_pin" c_etype="pinpart"  c_show="show"  c_elec="4" c_spicepin="15" c_origin="135,-306" id="gge2442" locked="0" c_rotation="90"><text x="138" y="-275" font-family="Verdana" font-size="7pt" fill="#000000" text-anchor="end" c_pinname="GND"  transform="rotate(270,138,-275)" >GND</text><text x="134" y="-291" font-family="Verdana" font-size="7pt" fill="#000000" text-anchor="start" c_pinnumber="15" display="none" transform="rotate(270,134,-291)" >15</text><circle c_pindot="true" class="pindot" cx="135" cy="-306" r="2" fill="none" stroke="none" /><path d="M 135 -306 v 20" fill="none" stroke="#000000" stroke-width="1"/><circle cx="135" cy="-289" r="3" stroke="#000000" fill="none" stroke-width="1" display="none" /><path d="M 132 -286 L 135 -283 L 138 -286" fill="none" stroke="#000000" stroke-width="1"  display="none" /></g><g c_partid="part_pin" c_etype="pinpart"  c_show="show"  c_elec="3" c_spicepin="14" c_origin="145,-306" id="gge2463" locked="0" c_rotation="90"><text x="148" y="-275" font-family="Verdana" font-size="7pt" fill="#000000" text-anchor="end" c_pinname="13"  transform="rotate(270,148,-275)" >13</text><text x="144" y="-291" font-family="Verdana" font-size="7pt" fill="#000000" text-anchor="start" c_pinnumber="14" display="none" transform="rotate(270,144,-291)" >14</text><circle c_pindot="true" class="pindot" cx="145" cy="-306" r="2" fill="none" stroke="none" /><path d="M 145 -306 v 20" fill="none" stroke="#000000" stroke-width="1"/><circle cx="145" cy="-289" r="3" stroke="#000000" fill="none" stroke-width="1" display="none" /><path d="M 142 -286 L 145 -283 L 148 -286" fill="none" stroke="#000000" stroke-width="1"  display="none" /></g><g c_partid="part_pin" c_etype="pinpart"  c_show="show"  c_elec="3" c_spicepin="13" c_origin="155,-306" id="gge2484" locked="0" c_rotation="90"><text x="158" y="-275" font-family="Verdana" font-size="7pt" fill="#000000" text-anchor="end" c_pinname="12"  transform="rotate(270,158,-275)" >12</text><text x="154" y="-291" font-family="Verdana" font-size="7pt" fill="#000000" text-anchor="start" c_pinnumber="13" display="none" transform="rotate(270,154,-291)" >13</text><circle c_pindot="true" class="pindot" cx="155" cy="-306" r="2" fill="none" stroke="none" /><path d="M 155 -306 v 20" fill="none" stroke="#000000" stroke-width="1"/><circle cx="155" cy="-289" r="3" stroke="#000000" fill="none" stroke-width="1" display="none" /><path d="M 152 -286 L 155 -283 L 158 -286" fill="none" stroke="#000000" stroke-width="1"  display="none" /></g><g c_partid="part_pin" c_etype="pinpart"  c_show="show"  c_elec="3" c_spicepin="12" c_origin="165,-306" id="gge2505" locked="0" c_rotation="90"><text x="168" y="-276" font-family="Verdana" font-size="7pt" fill="#000000" text-anchor="end" c_pinname="~11"  transform="rotate(270,168,-276)" >~11</text><text x="164" y="-291" font-family="Verdana" font-size="7pt" fill="#000000" text-anchor="start" c_pinnumber="12" display="none" transform="rotate(270,164,-291)" >12</text><circle c_pindot="true" class="pindot" cx="165" cy="-306" r="2" fill="none" stroke="none" /><path d="M 165 -306 v 20" fill="none" stroke="#000000" stroke-width="1"/><circle cx="165" cy="-289" r="3" stroke="#000000" fill="none" stroke-width="1" display="none" /><path d="M 162 -286 L 165 -283 L 168 -286" fill="none" stroke="#000000" stroke-width="1"  display="none" /></g><g c_partid="part_pin" c_etype="pinpart"  c_show="show"  c_elec="3" c_spicepin="11" c_origin="175,-306" id="gge2526" locked="0" c_rotation="90"><text x="179" y="-275" font-family="Verdana" font-size="7pt" fill="#000000" text-anchor="end" c_pinname="~10"  transform="rotate(270,179,-275)" >~10</text><text x="174" y="-291" font-family="Verdana" font-size="7pt" fill="#000000" text-anchor="start" c_pinnumber="11" display="none" transform="rotate(270,174,-291)" >11</text><circle c_pindot="true" class="pindot" cx="175" cy="-306" r="2" fill="none" stroke="none" /><path d="M 175 -306 v 20" fill="none" stroke="#000000" stroke-width="1"/><circle cx="175" cy="-289" r="3" stroke="#000000" fill="none" stroke-width="1" display="none" /><path d="M 172 -286 L 175 -283 L 178 -286" fill="none" stroke="#000000" stroke-width="1"  display="none" /></g><g c_partid="part_pin" c_etype="pinpart"  c_show="show"  c_elec="3" c_spicepin="10" c_origin="185,-306" id="gge2547" locked="0" c_rotation="90"><text x="188" y="-275" font-family="Verdana" font-size="7pt" fill="#000000" text-anchor="end" c_pinname="~9"  transform="rotate(270,188,-275)" >~9</text><text x="184" y="-291" font-family="Verdana" font-size="7pt" fill="#000000" text-anchor="start" c_pinnumber="10" display="none" transform="rotate(270,184,-291)" >10</text><circle c_pindot="true" class="pindot" cx="185" cy="-306" r="2" fill="none" stroke="none" /><path d="M 185 -306 v 20" fill="none" stroke="#000000" stroke-width="1"/><circle cx="185" cy="-289" r="3" stroke="#000000" fill="none" stroke-width="1" display="none" /><path d="M 182 -286 L 185 -283 L 188 -286" fill="none" stroke="#000000" stroke-width="1"  display="none" /></g><g c_partid="part_pin" c_etype="pinpart"  c_show="show"  c_elec="3" c_spicepin="9" c_origin="195,-306" id="gge2568" locked="0" c_rotation="90"><text x="198" y="-275" font-family="Verdana" font-size="7pt" fill="#000000" text-anchor="end" c_pinname="8"  transform="rotate(270,198,-275)" >8</text><text x="194" y="-291" font-family="Verdana" font-size="7pt" fill="#000000" text-anchor="start" c_pinnumber="9" display="none" transform="rotate(270,194,-291)" >9</text><circle c_pindot="true" class="pindot" cx="195" cy="-306" r="2" fill="none" stroke="none" /><path d="M 195 -306 v 20" fill="none" stroke="#000000" stroke-width="1"/><circle cx="195" cy="-289" r="3" stroke="#000000" fill="none" stroke-width="1" display="none" /><path d="M 192 -286 L 195 -283 L 198 -286" fill="none" stroke="#000000" stroke-width="1"  display="none" /></g><g c_partid="part_pin" c_etype="pinpart"  c_show="show"  c_elec="3" c_spicepin="8" c_origin="205,-306" id="gge2589" locked="0" c_rotation="90"><text x="208" y="-275" font-family="Verdana" font-size="7pt" fill="#000000" text-anchor="end" c_pinname="7"  transform="rotate(270,208,-275)" >7</text><text x="204" y="-291" font-family="Verdana" font-size="7pt" fill="#000000" text-anchor="start" c_pinnumber="8" display="none" transform="rotate(270,204,-291)" >8</text><circle c_pindot="true" class="pindot" cx="205" cy="-306" r="2" fill="none" stroke="none" /><path d="M 205 -306 v 20" fill="none" stroke="#000000" stroke-width="1"/><circle cx="205" cy="-289" r="3" stroke="#000000" fill="none" stroke-width="1" display="none" /><path d="M 202 -286 L 205 -283 L 208 -286" fill="none" stroke="#000000" stroke-width="1"  display="none" /></g><g c_partid="part_pin" c_etype="pinpart"  c_show="show"  c_elec="3" c_spicepin="7" c_origin="215,-306" id="gge2610" locked="0" c_rotation="90"><text x="218" y="-275" font-family="Verdana" font-size="7pt" fill="#000000" text-anchor="end" c_pinname="~6"  transform="rotate(270,218,-275)" >~6</text><text x="214" y="-291" font-family="Verdana" font-size="7pt" fill="#000000" text-anchor="start" c_pinnumber="7" display="none" transform="rotate(270,214,-291)" >7</text><circle c_pindot="true" class="pindot" cx="215" cy="-306" r="2" fill="none" stroke="none" /><path d="M 215 -306 v 20" fill="none" stroke="#000000" stroke-width="1"/><circle cx="215" cy="-289" r="3" stroke="#000000" fill="none" stroke-width="1" display="none" /><path d="M 212 -286 L 215 -283 L 218 -286" fill="none" stroke="#000000" stroke-width="1"  display="none" /></g><g c_partid="part_pin" c_etype="pinpart"  c_show="show"  c_elec="3" c_spicepin="6" c_origin="225,-306" id="gge2631" locked="0" c_rotation="90"><text x="228" y="-275" font-family="Verdana" font-size="7pt" fill="#000000" text-anchor="end" c_pinname="~5"  transform="rotate(270,228,-275)" >~5</text><text x="224" y="-291" font-family="Verdana" font-size="7pt" fill="#000000" text-anchor="start" c_pinnumber="6" display="none" transform="rotate(270,224,-291)" >6</text><circle c_pindot="true" class="pindot" cx="225" cy="-306" r="2" fill="none" stroke="none" /><path d="M 225 -306 v 20" fill="none" stroke="#000000" stroke-width="1"/><circle cx="225" cy="-289" r="3" stroke="#000000" fill="none" stroke-width="1" display="none" /><path d="M 222 -286 L 225 -283 L 228 -286" fill="none" stroke="#000000" stroke-width="1"  display="none" /></g><g c_partid="part_pin" c_etype="pinpart"  c_show="show"  c_elec="3" c_spicepin="5" c_origin="235,-306" id="gge2652" locked="0" c_rotation="90"><text x="238" y="-275" font-family="Verdana" font-size="7pt" fill="#000000" text-anchor="end" c_pinname="4"  transform="rotate(270,238,-275)" >4</text><text x="234" y="-291" font-family="Verdana" font-size="7pt" fill="#000000" text-anchor="start" c_pinnumber="5" display="none" transform="rotate(270,234,-291)" >5</text><circle c_pindot="true" class="pindot" cx="235" cy="-306" r="2" fill="none" stroke="none" /><path d="M 235 -306 v 20" fill="none" stroke="#000000" stroke-width="1"/><circle cx="235" cy="-289" r="3" stroke="#000000" fill="none" stroke-width="1" display="none" /><path d="M 232 -286 L 235 -283 L 238 -286" fill="none" stroke="#000000" stroke-width="1"  display="none" /></g><g c_partid="part_pin" c_etype="pinpart"  c_show="show"  c_elec="3" c_spicepin="4" c_origin="245,-306" id="gge2673" locked="0" c_rotation="90"><text x="249" y="-275" font-family="Verdana" font-size="7pt" fill="#000000" text-anchor="end" c_pinname="3"  transform="rotate(270,249,-275)" >3</text><text x="244" y="-291" font-family="Verdana" font-size="7pt" fill="#000000" text-anchor="start" c_pinnumber="4" display="none" transform="rotate(270,244,-291)" >4</text><circle c_pindot="true" class="pindot" cx="245" cy="-306" r="2" fill="none" stroke="none" /><path d="M 245 -306 v 20" fill="none" stroke="#000000" stroke-width="1"/><circle cx="245" cy="-289" r="3" stroke="#000000" fill="none" stroke-width="1" display="none" /><path d="M 242 -286 L 245 -283 L 248 -286" fill="none" stroke="#000000" stroke-width="1"  display="none" /></g><g c_partid="part_pin" c_etype="pinpart"  c_show="show"  c_elec="3" c_spicepin="3" c_origin="255,-306" id="gge2694" locked="0" c_rotation="90"><text x="258" y="-275" font-family="Verdana" font-size="7pt" fill="#000000" text-anchor="end" c_pinname="2"  transform="rotate(270,258,-275)" >2</text><text x="254" y="-291" font-family="Verdana" font-size="7pt" fill="#000000" text-anchor="start" c_pinnumber="3" display="none" transform="rotate(270,254,-291)" >3</text><circle c_pindot="true" class="pindot" cx="255" cy="-306" r="2" fill="none" stroke="none" /><path d="M 255 -306 v 20" fill="none" stroke="#000000" stroke-width="1"/><circle cx="255" cy="-289" r="3" stroke="#000000" fill="none" stroke-width="1" display="none" /><path d="M 252 -286 L 255 -283 L 258 -286" fill="none" stroke="#000000" stroke-width="1"  display="none" /></g><g c_partid="part_pin" c_etype="pinpart"  c_show="show"  c_elec="3" c_spicepin="1" c_origin="275,-306" id="gge2715" locked="0" c_rotation="90"><text x="277" y="-275" font-family="Verdana" font-size="7pt" fill="#000000" text-anchor="end" c_pinname="RX 0"  transform="rotate(270,277,-275)" >RX 0</text><text x="274" y="-291" font-family="Verdana" font-size="7pt" fill="#000000" text-anchor="start" c_pinnumber="1" display="none" transform="rotate(270,274,-291)" >1</text><circle c_pindot="true" class="pindot" cx="275" cy="-306" r="2" fill="none" stroke="none" /><path d="M 275 -306 v 20" fill="none" stroke="#000000" stroke-width="1"/><circle cx="275" cy="-289" r="3" stroke="#000000" fill="none" stroke-width="1" display="none" /><path d="M 272 -286 L 275 -283 L 278 -286" fill="none" stroke="#000000" stroke-width="1"  display="none" /></g><ellipse cx="182.25" cy="-226.25" rx="12" ry="12" id="gge2736" locked="0" stroke="#000000" stroke-width="3" fill="none"   /><ellipse cx="158" cy="-226" rx="12" ry="12" id="gge2739" locked="0" stroke="#000000" stroke-width="3" fill="none"   /><g c_partid="part_annotation" id="gge2742" locked="0" c_origin="153,-203" c_shapetype="group" c_etype="pinpart"><text x="153" y="-203" fill="#000000" font-family="Arial" font-size="7pt" font-weight="normal" font-style="" dominant-baseline="" text-anchor="start" type="comment"  >Arduino</text></g><polyline points="154 -226 160 -226" stroke="#000000" id="gge2748" locked="0" stroke-width="3"   fill="none" stroke-linecap="round" /><polyline points="180 -226 186 -226 183 -226 183 -223 183 -229" stroke="#000000" id="gge2751" locked="0" stroke-width="3"   fill="none" stroke-linecap="round" /><rect id="gge2754" locked="0" c_etype="" x="60" y="-286"   width="230" height="136" stroke="#000000" stroke-width="1" fill="none"   /></g><polyline c_etype="wire" c_shapetype="line" points="235 -70 235 -50 50 -50 50 -315 235 -315 235 -306" stroke="#FF6600" id="gge286" locked="0" stroke-width="1"   fill="none" stroke-linecap="round" /><polyline c_etype="wire" c_shapetype="line" points="180 -130 180 -60 225 -60 225 -70" stroke="#000000" id="gge289" locked="0" stroke-width="1"   fill="none" stroke-linecap="round" /><g c_origin="270,-55" c_para="package`RESISTORT 1/2TH`BOM_Manufacturer``BOM_Manufacturer Part``BOM_Supplier Part``BOM_Supplier``link``Contributor`c.francisco`spicePre`R`spiceSymbolName`resistorth 1/2W`" c_partid="part_lib_gge57e9c503e5971353" id="gge57e9c503e5971353" locked="0" c_shapetype="group" c_etype="pinpart" puuid="1d1d618204e34fa2bec525ada617e7f4" uuid="1ba843a749474b9daf33635d9140233e" convert_to_pcb="yes" datastrid="" pdatastrid="" utime="1595387897" add_into_bom="yes" ><g c_partid="part_annotation" id="gge298"   c_shapetype="group"><text c_note="note_name" x="252.6" y="-31.48" fill="#000080" font-family="Arial" font-size="7pt" font-weight="" font-style="" dominant-baseline="" text-anchor="start"  >resistorth 4.7K</text></g><g c_partid="part_annotation" id="gge304" display="none"  c_shapetype="group"><text c_note="note_pre" x="279.33" y="-67.89" fill="#000080" font-family="Arial" font-size="7pt" font-weight="" font-style="" dominant-baseline="" text-anchor="start"  >R2</text></g><rect id="gge310" locked="0" c_etype="" x="275" y="-55"   width="20" height="10" stroke="#990000" stroke-width="1" fill="none"   /><g c_partid="part_pin" c_etype="pinpart"  c_show="show"  c_elec="0" c_spicepin="2" c_origin="305,-50" id="gge313" locked="0" c_rotation=""><text x="293" y="-47" font-family="Verdana" font-size="7pt" fill="#0000FF" text-anchor="end" c_pinname="2" display="none"  >2</text><text x="295" y="-51" font-family="Verdana" font-size="7pt" fill="#0000FF" text-anchor="start" c_pinnumber="2" display="none"  >2</text><circle c_pindot="true" class="pindot" cx="305" cy="-50" r="2" fill="none" stroke="none" /><path d="M 305 -50 h -10" fill="none" stroke="#880000" stroke-width="1"/><circle cx="298" cy="-50" r="3" stroke="#880000" fill="none" stroke-width="1" display="none" /><path d="M 295 -53 L 292 -50 L 295 -47" fill="none" stroke="#880000" stroke-width="1"  display="none" /></g><g c_partid="part_pin" c_etype="pinpart"  c_show="show"  c_elec="0" c_spicepin="1" c_origin="265,-50" id="gge334" locked="0" c_rotation="180"><text x="277" y="-47" font-family="Verdana" font-size="7pt" fill="#0000FF" text-anchor="start" c_pinname="1" display="none"  >1</text><text x="275" y="-51" font-family="Verdana" font-size="7pt" fill="#0000FF" text-anchor="end" c_pinnumber="1" display="none"  >1</text><circle c_pindot="true" class="pindot" cx="265" cy="-50" r="2" fill="none" stroke="none" /><path d="M 265 -50 h 10" fill="none" stroke="#880000" stroke-width="1"/><circle cx="272" cy="-50" r="3" stroke="#880000" fill="none" stroke-width="1" display="none" /><path d="M 275 -47 L 278 -50 L 275 -53" fill="none" stroke="#880000" stroke-width="1"  display="none" /></g></g><g c_origin="235,-95" c_para="package`TO-92-3_L4.9-W3.7-P1.27-L`BOM_Supplier`LCSC`BOM_Supplier Part`C376006`BOM_Manufacturer`Youtai Semiconductor Co., Ltd.`BOM_Manufacturer Part`DS18B20`Contributor`LCSC`BOM_JLCPCB Part Class`Extended Part`spicePre`U`spiceSymbolName`DS18B20`" c_partid="part_lib_ggef0f06fc499e663c3" id="ggef0f06fc499e663c3" locked="0" c_shapetype="group" c_etype="pinpart" puuid="6924b36489de4921bb29ca14bf27c33f" uuid="207283c67b3f48f4b2421c110e860fe9" convert_to_pcb="yes" datastrid="478ffe80b3db45b89a8dff8ecf2ec4d9" pdatastrid="c4a998d910814327a5c882a6a07de9f6" utime="1646635205" add_into_bom="yes" c_rotation="90"><g c_partid="part_annotation" id="gge1216"   c_shapetype="group"><text c_note="note_name" x="265.58" y="-91.48" fill="#000080" font-family="Arial" font-size="7pt" font-weight="" font-style="" dominant-baseline="" text-anchor="start"  >DS18B20</text></g><g c_partid="part_annotation" id="gge1222" display="none"  c_shapetype="group"><text c_note="note_pre" x="229.05" y="-122.86" fill="#000080" font-family="Arial" font-size="7pt" font-weight="" font-style="" dominant-baseline="" text-anchor="start"  >U6</text></g><rect id="gge1228" locked="0" c_etype="" x="215" y="-110" rx="2" ry="2" width="40" height="30" stroke="#880000" stroke-width="1" fill="none"   /><ellipse cx="220" cy="-85" rx="1.5" ry="1.5" id="gge1231" locked="0" stroke="#880000" stroke-width="1" fill="#880000"   /><g c_partid="part_pin" c_etype="pinpart"  c_show="show"  c_elec="0" c_spicepin="1" c_origin="225,-70" id="gge1234" locked="0" c_rotation="270"><text x="229" y="-83.7" font-family="Verdana" font-size="7pt" fill="#000000" text-anchor="start" c_pinname="GND"  transform="rotate(270,229,-83.7)" >GND</text><text x="224" y="-79.5" font-family="Verdana" font-size="7pt" fill="#000000" text-anchor="end" c_pinnumber="1"  transform="rotate(270,224,-79.5)" >1</text><circle c_pindot="true" class="pindot" cx="225" cy="-70" r="2" fill="none" stroke="none" /><path d="M 225 -70 v -10" fill="none" stroke="#000000" stroke-width="1"/><circle cx="225" cy="-77" r="3" stroke="#000000" fill="none" stroke-width="1" display="none" /><path d="M 228 -80 L 225 -83 L 222 -80" fill="none" stroke="#000000" stroke-width="1"  display="none" /></g><g c_partid="part_pin" c_etype="pinpart"  c_show="show"  c_elec="0" c_spicepin="2" c_origin="235,-70" id="gge1255" locked="0" c_rotation="270"><text x="239" y="-83.7" font-family="Verdana" font-size="7pt" fill="#0000FF" text-anchor="start" c_pinname="DQ"  transform="rotate(270,239,-83.7)" >DQ</text><text x="234" y="-79.5" font-family="Verdana" font-size="7pt" fill="#0000FF" text-anchor="end" c_pinnumber="2"  transform="rotate(270,234,-79.5)" >2</text><circle c_pindot="true" class="pindot" cx="235" cy="-70" r="2" fill="none" stroke="none" /><path d="M 235 -70 v -10" fill="none" stroke="#880000" stroke-width="1"/><circle cx="235" cy="-77" r="3" stroke="#880000" fill="none" stroke-width="1" display="none" /><path d="M 238 -80 L 235 -83 L 232 -80" fill="none" stroke="#880000" stroke-width="1"  display="none" /></g><g c_partid="part_pin" c_etype="pinpart"  c_show="show"  c_elec="0" c_spicepin="3" c_origin="245,-70" id="gge1276" locked="0" c_rotation="270"><text x="249" y="-83.7" font-family="Verdana" font-size="7pt" fill="#FF0000" text-anchor="start" c_pinname="VDD"  transform="rotate(270,249,-83.7)" >VDD</text><text x="244" y="-79.5" font-family="Verdana" font-size="7pt" fill="#FF0000" text-anchor="end" c_pinnumber="3"  transform="rotate(270,244,-79.5)" >3</text><circle c_pindot="true" class="pindot" cx="245" cy="-70" r="2" fill="none" stroke="none" /><path d="M 245 -70 v -10" fill="none" stroke="#FF0000" stroke-width="1"/><circle cx="245" cy="-77" r="3" stroke="#FF0000" fill="none" stroke-width="1" display="none" /><path d="M 248 -80 L 245 -83 L 242 -80" fill="none" stroke="#FF0000" stroke-width="1"  display="none" /></g></g><polyline c_etype="wire" c_shapetype="line" points="170 -130 170 -120 325 -120 325 -60 245 -60 245 -70" stroke="#CC0000" id="gge1312" locked="0" stroke-width="1"   fill="none" stroke-linecap="round" /><polyline c_etype="wire" c_shapetype="line" points="305 -50 325 -50 325 -60" stroke="#CC0000" id="gge1315" locked="0" stroke-width="1"   fill="none" stroke-linecap="round" /><polyline c_etype="wire" c_shapetype="line" points="265 -50 235 -50" stroke="#FF6600" id="gge1319" locked="0" stroke-width="1"   fill="none" stroke-linecap="round" /><g c_partid="part_junction" c_etype="pinpart" c_origin="325,-60" id="gge1316" locked="0" c_shapetype="group"><circle c_pindot="true" class="pindot" cx="325" cy="-60" r="2" fill="none" stroke="none"/><circle cx="325" cy="-60" r="2.5" fill="#CC0000" stroke-width="1"/></g><g c_partid="part_junction" c_etype="pinpart" c_origin="235,-50" id="gge1320" locked="0" c_shapetype="group"><circle c_pindot="true" class="pindot" cx="235" cy="-50" r="2" fill="none" stroke="none"/><circle cx="235" cy="-50" r="2.5" fill="#CC0000" stroke-width="1"/></g></g></svg>