<svg xmlns="http://www.w3.org/2000/svg" xmlns:xlink="http://www.w3.org/1999/xlink" width="549.4" height="330" viewBox="15.600000000000001 -445 549.4 330"><title>Sheet_1</title><style type="text/css">
path, polyline, polygon {stroke-linejoin:round;}
rect, circle, ellipse, polyline, line, polygon, path {shape-rendering:crispEdges;}
</style>
<rect x="15.600000000000001" y="-445" width="549.4" height="330" fill="#3B4855" stroke="none"/><g xmlns="http://www.w3.org/2000/svg" id="g1" c_spiceCmd="null" c_para="Prefix Start`1`" importFlag="0" c_portOfADImportHack="" c_transformList=""><g c_origin="400,-305" c_para="package``BOM_Manufacturer``BOM_Manufacturer Part``BOM_Supplier Part``BOM_Supplier`Arduino`link``Contributor`Halina20011`spicePre`U`spiceSymbolName`ARDUINO UNO`" c_partid="part_lib_ggedc972200bc238696" id="ggedc972200bc238696" locked="0" c_shapetype="group" c_etype="pinpart" puuid="" uuid="4ec8fcb662d94f318a545330e18f639e" convert_to_pcb="yes" datastrid="9e785a993eb44a0d9427f9e258116bc2" pdatastrid="" utime="1662056499" add_into_bom="yes" ><g c_partid="part_annotation" id="gge44246"   c_shapetype="group"><text c_note="note_name" x="331.59" y="-201.48" fill="#000080" font-family="Arial" font-size="5.5pt" font-weight="" font-style="" dominant-baseline="" text-anchor="start"  >ARDUINO UNO</text></g><g c_partid="part_annotation" id="gge46386" display="none"  c_shapetype="group"><text c_note="note_pre" x="557" y="-259.5" fill="#000080" font-family="Arial" font-size="7pt" font-weight="" font-style="" dominant-baseline="" text-anchor="start"  >U2</text></g><polyline points="473 -279 473 -268 475 -266 479 -266 481 -268 481 -279 481 -278" stroke="#000000" id="gge48895" locked="0" stroke-width="2"   fill="none" stroke-linecap="round" /><polyline points="487 -266 487 -279 496 -266 496 -279" stroke="#000000" id="gge48898" locked="0" stroke-width="2"   fill="none" stroke-linecap="round" /><polyline points="505 -279 504 -279 502 -278 501 -276 501 -269 502 -267 504 -266 507 -266 509 -267 510 -269 510 -276 509 -278 507 -279 505 -279" stroke="#000000" id="gge48901" locked="0" stroke-width="2"   fill="none" stroke-linecap="round" /><g c_partid="part_pin" c_etype="pinpart"  c_show="show"  c_elec="0" c_spicepin="33" c_origin="395,-175" id="gge48904" locked="0" c_rotation="270"><text x="398" y="-197" font-family="Verdana" font-size="7pt" fill="#3B4855" text-anchor="start" c_pinname="33" display="none" transform="rotate(270,398,-197)" >33</text><text x="394" y="-190" font-family="Verdana" font-size="7pt" fill="#3B4855" text-anchor="end" c_pinnumber="33" display="none" transform="rotate(270,394,-190)" >33</text><circle c_pindot="true" class="pindot" cx="395" cy="-175" r="2" fill="none" stroke="none" /><path d="M 395 -175 v -20" fill="none" stroke="#000000" stroke-width="1"/><circle cx="395" cy="-192" r="3" stroke="#000000" fill="none" stroke-width="1" display="none" /><path d="M 398 -195 L 395 -198 L 392 -195" fill="none" stroke="#000000" stroke-width="1"  display="none" /></g><g c_partid="part_pin" c_etype="pinpart"  c_show="show"  c_elec="0" c_spicepin="32" c_origin="405,-175" id="gge48925" locked="0" c_rotation="270"><text x="407" y="-208" font-family="Verdana" font-size="5.5pt" fill="#000000" text-anchor="start" c_pinname="IOREF"  transform="rotate(270,407,-208)" >IOREF</text><text x="404" y="-190" font-family="Verdana" font-size="5.5pt" fill="#000000" text-anchor="end" c_pinnumber="32" display="none" transform="rotate(270,404,-190)" >32</text><circle c_pindot="true" class="pindot" cx="405" cy="-175" r="2" fill="none" stroke="none" /><path d="M 405 -175 v -20" fill="none" stroke="#000000" stroke-width="1"/><circle cx="405" cy="-192" r="3" stroke="#000000" fill="none" stroke-width="1" display="none" /><path d="M 408 -195 L 405 -198 L 402 -195" fill="none" stroke="#000000" stroke-width="1"  display="none" /></g><g c_partid="part_pin" c_etype="pinpart"  c_show="show"  c_elec="0" c_spicepin="31" c_origin="415,-175" id="gge48946" locked="0" c_rotation="270"><text x="417" y="-208" font-family="Verdana" font-size="5.5pt" fill="#000000" text-anchor="start" c_pinname="RESET"  transform="rotate(270,417,-208)" >RESET</text><text x="414" y="-190" font-family="Verdana" font-size="5.5pt" fill="#000000" text-anchor="end" c_pinnumber="31" display="none" transform="rotate(270,414,-190)" >31</text><circle c_pindot="true" class="pindot" cx="415" cy="-175" r="2" fill="none" stroke="none" /><path d="M 415 -175 v -20" fill="none" stroke="#000000" stroke-width="1"/><circle cx="415" cy="-192" r="3" stroke="#000000" fill="none" stroke-width="1" display="none" /><path d="M 418 -195 L 415 -198 L 412 -195" fill="none" stroke="#000000" stroke-width="1"  display="none" /></g><g c_partid="part_pin" c_etype="pinpart"  c_show="show"  c_elec="4" c_spicepin="30" c_origin="425,-175" id="gge48967" locked="0" c_rotation="270"><text x="428" y="-208" font-family="Verdana" font-size="5.5pt" fill="#000000" text-anchor="start" c_pinname="3.3V"  transform="rotate(270,428,-208)" >3.3V</text><text x="424" y="-190" font-family="Verdana" font-size="5.5pt" fill="#000000" text-anchor="end" c_pinnumber="30" display="none" transform="rotate(270,424,-190)" >30</text><circle c_pindot="true" class="pindot" cx="425" cy="-175" r="2" fill="none" stroke="none" /><path d="M 425 -175 v -20" fill="none" stroke="#000000" stroke-width="1"/><circle cx="425" cy="-192" r="3" stroke="#000000" fill="none" stroke-width="1" display="none" /><path d="M 428 -195 L 425 -198 L 422 -195" fill="none" stroke="#000000" stroke-width="1"  display="none" /></g><g c_partid="part_pin" c_etype="pinpart"  c_show="show"  c_elec="4" c_spicepin="29" c_origin="435,-175" id="gge48988" locked="0" c_rotation="270"><text x="438" y="-208" font-family="Verdana" font-size="5.5pt" fill="#000000" text-anchor="start" c_pinname="5V"  transform="rotate(270,438,-208)" >5V</text><text x="434" y="-190" font-family="Verdana" font-size="5.5pt" fill="#000000" text-anchor="end" c_pinnumber="29" display="none" transform="rotate(270,434,-190)" >29</text><circle c_pindot="true" class="pindot" cx="435" cy="-175" r="2" fill="none" stroke="none" /><path d="M 435 -175 v -20" fill="none" stroke="#000000" stroke-width="1"/><circle cx="435" cy="-192" r="3" stroke="#000000" fill="none" stroke-width="1" display="none" /><path d="M 438 -195 L 435 -198 L 432 -195" fill="none" stroke="#000000" stroke-width="1"  display="none" /></g><g c_partid="part_pin" c_etype="pinpart"  c_show="show"  c_elec="4" c_spicepin="28" c_origin="445,-175" id="gge49009" locked="0" c_rotation="270"><text x="448" y="-207" font-family="Verdana" font-size="5.5pt" fill="#000000" text-anchor="start" c_pinname="GND"  transform="rotate(270,448,-207)" >GND</text><text x="444" y="-190" font-family="Verdana" font-size="5.5pt" fill="#000000" text-anchor="end" c_pinnumber="28" display="none" transform="rotate(270,444,-190)" >28</text><circle c_pindot="true" class="pindot" cx="445" cy="-175" r="2" fill="none" stroke="none" /><path d="M 445 -175 v -20" fill="none" stroke="#000000" stroke-width="1"/><circle cx="445" cy="-192" r="3" stroke="#000000" fill="none" stroke-width="1" display="none" /><path d="M 448 -195 L 445 -198 L 442 -195" fill="none" stroke="#000000" stroke-width="1"  display="none" /></g><g c_partid="part_pin" c_etype="pinpart"  c_show="show"  c_elec="4" c_spicepin="27" c_origin="455,-175" id="gge49030" locked="0" c_rotation="270"><text x="458" y="-207" font-family="Verdana" font-size="5.5pt" fill="#000000" text-anchor="start" c_pinname="GND"  transform="rotate(270,458,-207)" >GND</text><text x="454" y="-190" font-family="Verdana" font-size="5.5pt" fill="#000000" text-anchor="end" c_pinnumber="27" display="none" transform="rotate(270,454,-190)" >27</text><circle c_pindot="true" class="pindot" cx="455" cy="-175" r="2" fill="none" stroke="none" /><path d="M 455 -175 v -20" fill="none" stroke="#000000" stroke-width="1"/><circle cx="455" cy="-192" r="3" stroke="#000000" fill="none" stroke-width="1" display="none" /><path d="M 458 -195 L 455 -198 L 452 -195" fill="none" stroke="#000000" stroke-width="1"  display="none" /></g><g c_partid="part_pin" c_etype="pinpart"  c_show="show"  c_elec="0" c_spicepin="26" c_origin="465,-175" id="gge49051" locked="0" c_rotation="270"><text x="468" y="-207" font-family="Verdana" font-size="5.5pt" fill="#000000" text-anchor="start" c_pinname="VIN"  transform="rotate(270,468,-207)" >VIN</text><text x="464" y="-190" font-family="Verdana" font-size="5.5pt" fill="#000000" text-anchor="end" c_pinnumber="26" display="none" transform="rotate(270,464,-190)" >26</text><circle c_pindot="true" class="pindot" cx="465" cy="-175" r="2" fill="none" stroke="none" /><path d="M 465 -175 v -20" fill="none" stroke="#000000" stroke-width="1"/><circle cx="465" cy="-192" r="3" stroke="#000000" fill="none" stroke-width="1" display="none" /><path d="M 468 -195 L 465 -198 L 462 -195" fill="none" stroke="#000000" stroke-width="1"  display="none" /></g><g c_partid="part_pin" c_etype="pinpart"  c_show="show"  c_elec="1" c_spicepin="24" c_origin="490,-175" id="gge49072" locked="0" c_rotation="270"><text x="493" y="-207" font-family="Verdana" font-size="7pt" fill="#000000" text-anchor="start" c_pinname="A0"  transform="rotate(270,493,-207)" >A0</text><text x="489" y="-190" font-family="Verdana" font-size="7pt" fill="#000000" text-anchor="end" c_pinnumber="24" display="none" transform="rotate(270,489,-190)" >24</text><circle c_pindot="true" class="pindot" cx="490" cy="-175" r="2" fill="none" stroke="none" /><path d="M 490 -175 v -20" fill="none" stroke="#000000" stroke-width="1"/><circle cx="490" cy="-192" r="3" stroke="#000000" fill="none" stroke-width="1" display="none" /><path d="M 493 -195 L 490 -198 L 487 -195" fill="none" stroke="#000000" stroke-width="1"  display="none" /></g><g c_partid="part_pin" c_etype="pinpart"  c_show="show"  c_elec="1" c_spicepin="23" c_origin="500,-175" id="gge49093" locked="0" c_rotation="270"><text x="503" y="-207" font-family="Verdana" font-size="7pt" fill="#000000" text-anchor="start" c_pinname="A1"  transform="rotate(270,503,-207)" >A1</text><text x="499" y="-190" font-family="Verdana" font-size="7pt" fill="#000000" text-anchor="end" c_pinnumber="23" display="none" transform="rotate(270,499,-190)" >23</text><circle c_pindot="true" class="pindot" cx="500" cy="-175" r="2" fill="none" stroke="none" /><path d="M 500 -175 v -20" fill="none" stroke="#000000" stroke-width="1"/><circle cx="500" cy="-192" r="3" stroke="#000000" fill="none" stroke-width="1" display="none" /><path d="M 503 -195 L 500 -198 L 497 -195" fill="none" stroke="#000000" stroke-width="1"  display="none" /></g><g c_partid="part_pin" c_etype="pinpart"  c_show="show"  c_elec="1" c_spicepin="22" c_origin="510,-175" id="gge49114" locked="0" c_rotation="270"><text x="514" y="-207" font-family="Verdana" font-size="7pt" fill="#000000" text-anchor="start" c_pinname="A2"  transform="rotate(270,514,-207)" >A2</text><text x="509" y="-190" font-family="Verdana" font-size="7pt" fill="#000000" text-anchor="end" c_pinnumber="22" display="none" transform="rotate(270,509,-190)" >22</text><circle c_pindot="true" class="pindot" cx="510" cy="-175" r="2" fill="none" stroke="none" /><path d="M 510 -175 v -20" fill="none" stroke="#000000" stroke-width="1"/><circle cx="510" cy="-192" r="3" stroke="#000000" fill="none" stroke-width="1" display="none" /><path d="M 513 -195 L 510 -198 L 507 -195" fill="none" stroke="#000000" stroke-width="1"  display="none" /></g><g c_partid="part_pin" c_etype="pinpart"  c_show="show"  c_elec="1" c_spicepin="21" c_origin="520,-175" id="gge49135" locked="0" c_rotation="270"><text x="523" y="-207" font-family="Verdana" font-size="7pt" fill="#000000" text-anchor="start" c_pinname="A3"  transform="rotate(270,523,-207)" >A3</text><text x="519" y="-190" font-family="Verdana" font-size="7pt" fill="#000000" text-anchor="end" c_pinnumber="21" display="none" transform="rotate(270,519,-190)" >21</text><circle c_pindot="true" class="pindot" cx="520" cy="-175" r="2" fill="none" stroke="none" /><path d="M 520 -175 v -20" fill="none" stroke="#000000" stroke-width="1"/><circle cx="520" cy="-192" r="3" stroke="#000000" fill="none" stroke-width="1" display="none" /><path d="M 523 -195 L 520 -198 L 517 -195" fill="none" stroke="#000000" stroke-width="1"  display="none" /></g><g c_partid="part_pin" c_etype="pinpart"  c_show="show"  c_elec="1" c_spicepin="20" c_origin="530,-175" id="gge49156" locked="0" c_rotation="270"><text x="533" y="-207" font-family="Verdana" font-size="7pt" fill="#000000" text-anchor="start" c_pinname="A4"  transform="rotate(270,533,-207)" >A4</text><text x="529" y="-190" font-family="Verdana" font-size="7pt" fill="#000000" text-anchor="end" c_pinnumber="20" display="none" transform="rotate(270,529,-190)" >20</text><circle c_pindot="true" class="pindot" cx="530" cy="-175" r="2" fill="none" stroke="none" /><path d="M 530 -175 v -20" fill="none" stroke="#000000" stroke-width="1"/><circle cx="530" cy="-192" r="3" stroke="#000000" fill="none" stroke-width="1" display="none" /><path d="M 533 -195 L 530 -198 L 527 -195" fill="none" stroke="#000000" stroke-width="1"  display="none" /></g><g c_partid="part_pin" c_etype="pinpart"  c_show="show"  c_elec="1" c_spicepin="19" c_origin="540,-175" id="gge49177" locked="0" c_rotation="270"><text x="543" y="-207" font-family="Verdana" font-size="7pt" fill="#000000" text-anchor="start" c_pinname="A5"  transform="rotate(270,543,-207)" >A5</text><text x="539" y="-190" font-family="Verdana" font-size="7pt" fill="#000000" text-anchor="end" c_pinnumber="19" display="none" transform="rotate(270,539,-190)" >19</text><circle c_pindot="true" class="pindot" cx="540" cy="-175" r="2" fill="none" stroke="none" /><path d="M 540 -175 v -20" fill="none" stroke="#000000" stroke-width="1"/><circle cx="540" cy="-192" r="3" stroke="#000000" fill="none" stroke-width="1" display="none" /><path d="M 543 -195 L 540 -198 L 537 -195" fill="none" stroke="#000000" stroke-width="1"  display="none" /></g><g c_partid="part_pin" c_etype="pinpart"  c_show="show"  c_elec="3" c_spicepin="34" c_origin="530,-351" id="gge49198" locked="0" c_rotation="90"><text x="533" y="-321" font-family="Verdana" font-size="7pt" fill="#000000" text-anchor="end" c_pinname="TX 1"  transform="rotate(270,533,-321)" >TX 1</text><text x="529" y="-336" font-family="Verdana" font-size="7pt" fill="#000000" text-anchor="start" c_pinnumber="2" display="none" transform="rotate(270,529,-336)" >2</text><circle c_pindot="true" class="pindot" cx="530" cy="-351" r="2" fill="none" stroke="none" /><path d="M 530 -351 v 20" fill="none" stroke="#000000" stroke-width="1"/><circle cx="530" cy="-334" r="3" stroke="#000000" fill="none" stroke-width="1" display="none" /><path d="M 527 -331 L 530 -328 L 533 -331" fill="none" stroke="#000000" stroke-width="1"  display="none" /></g><g c_partid="part_pin" c_etype="pinpart"  c_show="show"  c_elec="0" c_spicepin="18" c_origin="370,-351" id="gge49219" locked="0" c_rotation="90"><text x="373" y="-319" font-family="Verdana" font-size="7pt" fill="#000000" text-anchor="end" c_pinname="SCL"  transform="rotate(270,373,-319)" >SCL</text><text x="369" y="-336" font-family="Verdana" font-size="7pt" fill="#000000" text-anchor="start" c_pinnumber="18" display="none" transform="rotate(270,369,-336)" >18</text><circle c_pindot="true" class="pindot" cx="370" cy="-351" r="2" fill="none" stroke="none" /><path d="M 370 -351 v 20" fill="none" stroke="#000000" stroke-width="1"/><circle cx="370" cy="-334" r="3" stroke="#000000" fill="none" stroke-width="1" display="none" /><path d="M 367 -331 L 370 -328 L 373 -331" fill="none" stroke="#000000" stroke-width="1"  display="none" /></g><g c_partid="part_pin" c_etype="pinpart"  c_show="show"  c_elec="0" c_spicepin="17" c_origin="380,-351" id="gge49240" locked="0" c_rotation="90"><text x="383" y="-319" font-family="Verdana" font-size="7pt" fill="#000000" text-anchor="end" c_pinname="SDA"  transform="rotate(270,383,-319)" >SDA</text><text x="379" y="-336" font-family="Verdana" font-size="7pt" fill="#000000" text-anchor="start" c_pinnumber="17" display="none" transform="rotate(270,379,-336)" >17</text><circle c_pindot="true" class="pindot" cx="380" cy="-351" r="2" fill="none" stroke="none" /><path d="M 380 -351 v 20" fill="none" stroke="#000000" stroke-width="1"/><circle cx="380" cy="-334" r="3" stroke="#000000" fill="none" stroke-width="1" display="none" /><path d="M 377 -331 L 380 -328 L 383 -331" fill="none" stroke="#000000" stroke-width="1"  display="none" /></g><g c_partid="part_pin" c_etype="pinpart"  c_show="show"  c_elec="0" c_spicepin="16" c_origin="390,-351" id="gge49261" locked="0" c_rotation="90"><text x="393" y="-320" font-family="Verdana" font-size="7pt" fill="#000000" text-anchor="end" c_pinname="AREF"  transform="rotate(270,393,-320)" >AREF</text><text x="389" y="-336" font-family="Verdana" font-size="7pt" fill="#000000" text-anchor="start" c_pinnumber="16" display="none" transform="rotate(270,389,-336)" >16</text><circle c_pindot="true" class="pindot" cx="390" cy="-351" r="2" fill="none" stroke="none" /><path d="M 390 -351 v 20" fill="none" stroke="#000000" stroke-width="1"/><circle cx="390" cy="-334" r="3" stroke="#000000" fill="none" stroke-width="1" display="none" /><path d="M 387 -331 L 390 -328 L 393 -331" fill="none" stroke="#000000" stroke-width="1"  display="none" /></g><g c_partid="part_pin" c_etype="pinpart"  c_show="show"  c_elec="4" c_spicepin="15" c_origin="400,-351" id="gge49282" locked="0" c_rotation="90"><text x="403" y="-320" font-family="Verdana" font-size="7pt" fill="#000000" text-anchor="end" c_pinname="GND"  transform="rotate(270,403,-320)" >GND</text><text x="399" y="-336" font-family="Verdana" font-size="7pt" fill="#000000" text-anchor="start" c_pinnumber="15" display="none" transform="rotate(270,399,-336)" >15</text><circle c_pindot="true" class="pindot" cx="400" cy="-351" r="2" fill="none" stroke="none" /><path d="M 400 -351 v 20" fill="none" stroke="#000000" stroke-width="1"/><circle cx="400" cy="-334" r="3" stroke="#000000" fill="none" stroke-width="1" display="none" /><path d="M 397 -331 L 400 -328 L 403 -331" fill="none" stroke="#000000" stroke-width="1"  display="none" /></g><g c_partid="part_pin" c_etype="pinpart"  c_show="show"  c_elec="3" c_spicepin="14" c_origin="410,-351" id="gge49303" locked="0" c_rotation="90"><text x="413" y="-320" font-family="Verdana" font-size="7pt" fill="#000000" text-anchor="end" c_pinname="13"  transform="rotate(270,413,-320)" >13</text><text x="409" y="-336" font-family="Verdana" font-size="7pt" fill="#000000" text-anchor="start" c_pinnumber="14" display="none" transform="rotate(270,409,-336)" >14</text><circle c_pindot="true" class="pindot" cx="410" cy="-351" r="2" fill="none" stroke="none" /><path d="M 410 -351 v 20" fill="none" stroke="#000000" stroke-width="1"/><circle cx="410" cy="-334" r="3" stroke="#000000" fill="none" stroke-width="1" display="none" /><path d="M 407 -331 L 410 -328 L 413 -331" fill="none" stroke="#000000" stroke-width="1"  display="none" /></g><g c_partid="part_pin" c_etype="pinpart"  c_show="show"  c_elec="3" c_spicepin="13" c_origin="420,-351" id="gge49324" locked="0" c_rotation="90"><text x="423" y="-320" font-family="Verdana" font-size="7pt" fill="#000000" text-anchor="end" c_pinname="12"  transform="rotate(270,423,-320)" >12</text><text x="419" y="-336" font-family="Verdana" font-size="7pt" fill="#000000" text-anchor="start" c_pinnumber="13" display="none" transform="rotate(270,419,-336)" >13</text><circle c_pindot="true" class="pindot" cx="420" cy="-351" r="2" fill="none" stroke="none" /><path d="M 420 -351 v 20" fill="none" stroke="#000000" stroke-width="1"/><circle cx="420" cy="-334" r="3" stroke="#000000" fill="none" stroke-width="1" display="none" /><path d="M 417 -331 L 420 -328 L 423 -331" fill="none" stroke="#000000" stroke-width="1"  display="none" /></g><g c_partid="part_pin" c_etype="pinpart"  c_show="show"  c_elec="3" c_spicepin="12" c_origin="430,-351" id="gge49345" locked="0" c_rotation="90"><text x="433" y="-321" font-family="Verdana" font-size="7pt" fill="#000000" text-anchor="end" c_pinname="~11"  transform="rotate(270,433,-321)" >~11</text><text x="429" y="-336" font-family="Verdana" font-size="7pt" fill="#000000" text-anchor="start" c_pinnumber="12" display="none" transform="rotate(270,429,-336)" >12</text><circle c_pindot="true" class="pindot" cx="430" cy="-351" r="2" fill="none" stroke="none" /><path d="M 430 -351 v 20" fill="none" stroke="#000000" stroke-width="1"/><circle cx="430" cy="-334" r="3" stroke="#000000" fill="none" stroke-width="1" display="none" /><path d="M 427 -331 L 430 -328 L 433 -331" fill="none" stroke="#000000" stroke-width="1"  display="none" /></g><g c_partid="part_pin" c_etype="pinpart"  c_show="show"  c_elec="3" c_spicepin="11" c_origin="440,-351" id="gge49366" locked="0" c_rotation="90"><text x="444" y="-320" font-family="Verdana" font-size="7pt" fill="#000000" text-anchor="end" c_pinname="~10"  transform="rotate(270,444,-320)" >~10</text><text x="439" y="-336" font-family="Verdana" font-size="7pt" fill="#000000" text-anchor="start" c_pinnumber="11" display="none" transform="rotate(270,439,-336)" >11</text><circle c_pindot="true" class="pindot" cx="440" cy="-351" r="2" fill="none" stroke="none" /><path d="M 440 -351 v 20" fill="none" stroke="#000000" stroke-width="1"/><circle cx="440" cy="-334" r="3" stroke="#000000" fill="none" stroke-width="1" display="none" /><path d="M 437 -331 L 440 -328 L 443 -331" fill="none" stroke="#000000" stroke-width="1"  display="none" /></g><g c_partid="part_pin" c_etype="pinpart"  c_show="show"  c_elec="3" c_spicepin="10" c_origin="450,-351" id="gge49387" locked="0" c_rotation="90"><text x="453" y="-320" font-family="Verdana" font-size="7pt" fill="#000000" text-anchor="end" c_pinname="~9"  transform="rotate(270,453,-320)" >~9</text><text x="449" y="-336" font-family="Verdana" font-size="7pt" fill="#000000" text-anchor="start" c_pinnumber="10" display="none" transform="rotate(270,449,-336)" >10</text><circle c_pindot="true" class="pindot" cx="450" cy="-351" r="2" fill="none" stroke="none" /><path d="M 450 -351 v 20" fill="none" stroke="#000000" stroke-width="1"/><circle cx="450" cy="-334" r="3" stroke="#000000" fill="none" stroke-width="1" display="none" /><path d="M 447 -331 L 450 -328 L 453 -331" fill="none" stroke="#000000" stroke-width="1"  display="none" /></g><g c_partid="part_pin" c_etype="pinpart"  c_show="show"  c_elec="3" c_spicepin="9" c_origin="460,-351" id="gge49408" locked="0" c_rotation="90"><text x="463" y="-320" font-family="Verdana" font-size="7pt" fill="#000000" text-anchor="end" c_pinname="8"  transform="rotate(270,463,-320)" >8</text><text x="459" y="-336" font-family="Verdana" font-size="7pt" fill="#000000" text-anchor="start" c_pinnumber="9" display="none" transform="rotate(270,459,-336)" >9</text><circle c_pindot="true" class="pindot" cx="460" cy="-351" r="2" fill="none" stroke="none" /><path d="M 460 -351 v 20" fill="none" stroke="#000000" stroke-width="1"/><circle cx="460" cy="-334" r="3" stroke="#000000" fill="none" stroke-width="1" display="none" /><path d="M 457 -331 L 460 -328 L 463 -331" fill="none" stroke="#000000" stroke-width="1"  display="none" /></g><g c_partid="part_pin" c_etype="pinpart"  c_show="show"  c_elec="3" c_spicepin="8" c_origin="470,-351" id="gge49429" locked="0" c_rotation="90"><text x="473" y="-320" font-family="Verdana" font-size="7pt" fill="#000000" text-anchor="end" c_pinname="7"  transform="rotate(270,473,-320)" >7</text><text x="469" y="-336" font-family="Verdana" font-size="7pt" fill="#000000" text-anchor="start" c_pinnumber="8" display="none" transform="rotate(270,469,-336)" >8</text><circle c_pindot="true" class="pindot" cx="470" cy="-351" r="2" fill="none" stroke="none" /><path d="M 470 -351 v 20" fill="none" stroke="#000000" stroke-width="1"/><circle cx="470" cy="-334" r="3" stroke="#000000" fill="none" stroke-width="1" display="none" /><path d="M 467 -331 L 470 -328 L 473 -331" fill="none" stroke="#000000" stroke-width="1"  display="none" /></g><g c_partid="part_pin" c_etype="pinpart"  c_show="show"  c_elec="3" c_spicepin="7" c_origin="480,-351" id="gge49450" locked="0" c_rotation="90"><text x="483" y="-320" font-family="Verdana" font-size="7pt" fill="#000000" text-anchor="end" c_pinname="~6"  transform="rotate(270,483,-320)" >~6</text><text x="479" y="-336" font-family="Verdana" font-size="7pt" fill="#000000" text-anchor="start" c_pinnumber="7" display="none" transform="rotate(270,479,-336)" >7</text><circle c_pindot="true" class="pindot" cx="480" cy="-351" r="2" fill="none" stroke="none" /><path d="M 480 -351 v 20" fill="none" stroke="#000000" stroke-width="1"/><circle cx="480" cy="-334" r="3" stroke="#000000" fill="none" stroke-width="1" display="none" /><path d="M 477 -331 L 480 -328 L 483 -331" fill="none" stroke="#000000" stroke-width="1"  display="none" /></g><g c_partid="part_pin" c_etype="pinpart"  c_show="show"  c_elec="3" c_spicepin="6" c_origin="490,-351" id="gge49471" locked="0" c_rotation="90"><text x="493" y="-320" font-family="Verdana" font-size="7pt" fill="#000000" text-anchor="end" c_pinname="~5"  transform="rotate(270,493,-320)" >~5</text><text x="489" y="-336" font-family="Verdana" font-size="7pt" fill="#000000" text-anchor="start" c_pinnumber="6" display="none" transform="rotate(270,489,-336)" >6</text><circle c_pindot="true" class="pindot" cx="490" cy="-351" r="2" fill="none" stroke="none" /><path d="M 490 -351 v 20" fill="none" stroke="#000000" stroke-width="1"/><circle cx="490" cy="-334" r="3" stroke="#000000" fill="none" stroke-width="1" display="none" /><path d="M 487 -331 L 490 -328 L 493 -331" fill="none" stroke="#000000" stroke-width="1"  display="none" /></g><g c_partid="part_pin" c_etype="pinpart"  c_show="show"  c_elec="3" c_spicepin="5" c_origin="500,-351" id="gge49492" locked="0" c_rotation="90"><text x="503" y="-320" font-family="Verdana" font-size="7pt" fill="#000000" text-anchor="end" c_pinname="4"  transform="rotate(270,503,-320)" >4</text><text x="499" y="-336" font-family="Verdana" font-size="7pt" fill="#000000" text-anchor="start" c_pinnumber="5" display="none" transform="rotate(270,499,-336)" >5</text><circle c_pindot="true" class="pindot" cx="500" cy="-351" r="2" fill="none" stroke="none" /><path d="M 500 -351 v 20" fill="none" stroke="#000000" stroke-width="1"/><circle cx="500" cy="-334" r="3" stroke="#000000" fill="none" stroke-width="1" display="none" /><path d="M 497 -331 L 500 -328 L 503 -331" fill="none" stroke="#000000" stroke-width="1"  display="none" /></g><g c_partid="part_pin" c_etype="pinpart"  c_show="show"  c_elec="3" c_spicepin="4" c_origin="510,-351" id="gge49513" locked="0" c_rotation="90"><text x="514" y="-320" font-family="Verdana" font-size="7pt" fill="#000000" text-anchor="end" c_pinname="3"  transform="rotate(270,514,-320)" >3</text><text x="509" y="-336" font-family="Verdana" font-size="7pt" fill="#000000" text-anchor="start" c_pinnumber="4" display="none" transform="rotate(270,509,-336)" >4</text><circle c_pindot="true" class="pindot" cx="510" cy="-351" r="2" fill="none" stroke="none" /><path d="M 510 -351 v 20" fill="none" stroke="#000000" stroke-width="1"/><circle cx="510" cy="-334" r="3" stroke="#000000" fill="none" stroke-width="1" display="none" /><path d="M 507 -331 L 510 -328 L 513 -331" fill="none" stroke="#000000" stroke-width="1"  display="none" /></g><g c_partid="part_pin" c_etype="pinpart"  c_show="show"  c_elec="3" c_spicepin="3" c_origin="520,-351" id="gge49534" locked="0" c_rotation="90"><text x="523" y="-320" font-family="Verdana" font-size="7pt" fill="#000000" text-anchor="end" c_pinname="2"  transform="rotate(270,523,-320)" >2</text><text x="519" y="-336" font-family="Verdana" font-size="7pt" fill="#000000" text-anchor="start" c_pinnumber="3" display="none" transform="rotate(270,519,-336)" >3</text><circle c_pindot="true" class="pindot" cx="520" cy="-351" r="2" fill="none" stroke="none" /><path d="M 520 -351 v 20" fill="none" stroke="#000000" stroke-width="1"/><circle cx="520" cy="-334" r="3" stroke="#000000" fill="none" stroke-width="1" display="none" /><path d="M 517 -331 L 520 -328 L 523 -331" fill="none" stroke="#000000" stroke-width="1"  display="none" /></g><g c_partid="part_pin" c_etype="pinpart"  c_show="show"  c_elec="3" c_spicepin="1" c_origin="540,-351" id="gge49555" locked="0" c_rotation="90"><text x="542" y="-320" font-family="Verdana" font-size="7pt" fill="#000000" text-anchor="end" c_pinname="RX 0"  transform="rotate(270,542,-320)" >RX 0</text><text x="539" y="-336" font-family="Verdana" font-size="7pt" fill="#000000" text-anchor="start" c_pinnumber="1" display="none" transform="rotate(270,539,-336)" >1</text><circle c_pindot="true" class="pindot" cx="540" cy="-351" r="2" fill="none" stroke="none" /><path d="M 540 -351 v 20" fill="none" stroke="#000000" stroke-width="1"/><circle cx="540" cy="-334" r="3" stroke="#000000" fill="none" stroke-width="1" display="none" /><path d="M 537 -331 L 540 -328 L 543 -331" fill="none" stroke="#000000" stroke-width="1"  display="none" /></g><ellipse cx="447.25" cy="-271.25" rx="12" ry="12" id="gge49576" locked="0" stroke="#000000" stroke-width="3" fill="none"   /><ellipse cx="423" cy="-271" rx="12" ry="12" id="gge49579" locked="0" stroke="#000000" stroke-width="3" fill="none"   /><g c_partid="part_annotation" id="gge49582" locked="0" c_origin="418,-248" c_shapetype="group" c_etype="pinpart"><text x="418" y="-248" fill="#000000" font-family="Arial" font-size="7pt" font-weight="normal" font-style="" dominant-baseline="" text-anchor="start" type="comment"  >Arduino</text></g><polyline points="419 -271 425 -271" stroke="#000000" id="gge49588" locked="0" stroke-width="3"   fill="none" stroke-linecap="round" /><polyline points="445 -271 451 -271 448 -271 448 -268 448 -274" stroke="#000000" id="gge49591" locked="0" stroke-width="3"   fill="none" stroke-linecap="round" /><rect id="gge49594" locked="0" c_etype="" x="325" y="-331"   width="230" height="136" stroke="#000000" stroke-width="1" fill="none"   /></g><g c_origin="120,-395" c_para="package`ULTRASONIC-HC-SR04`description`Ultrasonic Ranging Module HC-SR04`spicePre`U`spiceSymbolName`ULTRASONIC-HC-SR04`BOM_Manufacturer Part``" c_partid="part_lib_gge3acfbf8e94197c05" id="gge3acfbf8e94197c05" locked="0" c_shapetype="group" c_etype="pinpart" puuid="" uuid="5dfcf18bed754c58be54e83ded3f27b4" convert_to_pcb="yes" datastrid="" pdatastrid="" utime="1632317589" add_into_bom="yes" ><g c_partid="part_annotation" id="gge19873"   c_shapetype="group"><text c_note="note_name" x="106.17" y="-411.5" fill="#000080" font-family="Arial" font-size="7pt" font-weight="" font-style="" dominant-baseline="" text-anchor="start"  >HC-SR04</text></g><g c_partid="part_annotation" id="gge36872" display="none"  c_shapetype="group"><text c_note="note_pre" x="119.05" y="-447.86" fill="#000080" font-family="Arial" font-size="7pt" font-weight="" font-style="" dominant-baseline="" text-anchor="start"  >U1</text></g><g c_partid="part_pin" c_etype="pinpart"  c_show="show"  c_elec="4" c_spicepin="1" c_origin="110,-335" id="gge19885" locked="0" c_rotation="270"><text x="113" y="-358" font-family="Verdana" font-size="7pt" fill="#000000" text-anchor="start" c_pinname="VCC"  transform="rotate(270,113,-358)" >VCC</text><text x="109" y="-349" font-family="Verdana" font-size="7pt" fill="#000000" text-anchor="end" c_pinnumber="1"  transform="rotate(270,109,-349)" >1</text><circle c_pindot="true" class="pindot" cx="110" cy="-335" r="2" fill="none" stroke="none" /><path d="M 110 -335 v -20" fill="none" stroke="#000000" stroke-width="1"/><circle cx="110" cy="-352" r="3" stroke="#000000" fill="none" stroke-width="1" display="none" /><path d="M 113 -355 L 110 -358 L 107 -355" fill="none" stroke="#000000" stroke-width="1"  display="none" /></g><g c_partid="part_pin" c_etype="pinpart"  c_show="show"  c_elec="1" c_spicepin="2" c_origin="120,-335" id="gge19906" locked="0" c_rotation="270"><text x="123" y="-358" font-family="Verdana" font-size="7pt" fill="#000000" text-anchor="start" c_pinname="TRIG"  transform="rotate(270,123,-358)" >TRIG</text><text x="119" y="-349" font-family="Verdana" font-size="7pt" fill="#000000" text-anchor="end" c_pinnumber="2"  transform="rotate(270,119,-349)" >2</text><circle c_pindot="true" class="pindot" cx="120" cy="-335" r="2" fill="none" stroke="none" /><path d="M 120 -335 v -20" fill="none" stroke="#000000" stroke-width="1"/><circle cx="120" cy="-352" r="3" stroke="#000000" fill="none" stroke-width="1" display="none" /><path d="M 123 -355 L 120 -358 L 117 -355" fill="none" stroke="#000000" stroke-width="1"  display="none" /></g><g c_partid="part_pin" c_etype="pinpart"  c_show="show"  c_elec="2" c_spicepin="3" c_origin="130,-335" id="gge19927" locked="0" c_rotation="270"><text x="133" y="-358" font-family="Verdana" font-size="7pt" fill="#000000" text-anchor="start" c_pinname="ECHO"  transform="rotate(270,133,-358)" >ECHO</text><text x="129" y="-349" font-family="Verdana" font-size="7pt" fill="#000000" text-anchor="end" c_pinnumber="3"  transform="rotate(270,129,-349)" >3</text><circle c_pindot="true" class="pindot" cx="130" cy="-335" r="2" fill="none" stroke="none" /><path d="M 130 -335 v -20" fill="none" stroke="#000000" stroke-width="1"/><circle cx="130" cy="-352" r="3" stroke="#000000" fill="none" stroke-width="1" display="none" /><path d="M 133 -355 L 130 -358 L 127 -355" fill="none" stroke="#000000" stroke-width="1"  display="none" /></g><g c_partid="part_pin" c_etype="pinpart"  c_show="show"  c_elec="4" c_spicepin="4" c_origin="140,-335" id="gge19948" locked="0" c_rotation="270"><text x="143" y="-358" font-family="Verdana" font-size="7pt" fill="#000000" text-anchor="start" c_pinname="GND"  transform="rotate(270,143,-358)" >GND</text><text x="139" y="-349" font-family="Verdana" font-size="7pt" fill="#000000" text-anchor="end" c_pinnumber="4"  transform="rotate(270,139,-349)" >4</text><circle c_pindot="true" class="pindot" cx="140" cy="-335" r="2" fill="none" stroke="none" /><path d="M 140 -335 v -20" fill="none" stroke="#000000" stroke-width="1"/><circle cx="140" cy="-352" r="3" stroke="#000000" fill="none" stroke-width="1" display="none" /><path d="M 143 -355 L 140 -358 L 137 -355" fill="none" stroke="#000000" stroke-width="1"  display="none" /></g><polyline points="30 -355 30 -435" stroke="#000000" id="gge19969" locked="0" stroke-width="1"   fill="none" stroke-linecap="round" /><polyline points="30 -435 220 -435" stroke="#000000" id="gge19972" locked="0" stroke-width="1"   fill="none" stroke-linecap="round" /><polyline points="220 -435 220 -355" stroke="#000000" id="gge19975" locked="0" stroke-width="1"   fill="none" stroke-linecap="round" /><polyline points="220 -355 30 -355" stroke="#000000" id="gge19978" locked="0" stroke-width="1"   fill="none" stroke-linecap="round" /><ellipse cx="70" cy="-395" rx="30" ry="30" id="gge19981" locked="0" stroke="#000000" stroke-width="1" fill="none"   /><ellipse cx="180" cy="-395" rx="30" ry="30" id="gge19984" locked="0" stroke="#000000" stroke-width="1" fill="none"   /><ellipse cx="180" cy="-395" rx="15" ry="15" id="gge19987" locked="0" stroke="#000000" stroke-width="1" fill="none"   /><ellipse cx="70" cy="-395" rx="15" ry="15" id="gge19990" locked="0" stroke="#000000" stroke-width="1" fill="none"   /></g><g c_origin="60,-210" c_para="package`LCD2X16_I2C-P`BOM_Manufacturer``BOM_Manufacturer Part``BOM_Supplier Part``BOM_Supplier``link``Contributor`blantek212`spicePre`Z`spiceSymbolName`LCD2X16_I2C`" c_partid="part_lib_gge2330b7a1108a24a6" id="gge2330b7a1108a24a6" locked="0" c_shapetype="group" c_etype="pinpart" puuid="d73f7f5541d64425bc3d958c93f534c2" uuid="0ec22f49b2c441fc8f9dd71ac2d8bec9" convert_to_pcb="yes" datastrid="" pdatastrid="" utime="1614462053" add_into_bom="yes" ><g c_partid="part_annotation" id="gge36505"   c_shapetype="group"><text c_note="note_name" x="25.6" y="-236.5" fill="#000080" font-family="Arial" font-size="7pt" font-weight="" font-style="" dominant-baseline="" text-anchor="start"  >LCD2X16_I2C</text></g><g c_partid="part_annotation" id="gge36875" display="none"  c_shapetype="group"><text c_note="note_pre" x="49.63" y="-243" fill="#000080" font-family="Arial" font-size="7pt" font-weight="" font-style="" dominant-baseline="" text-anchor="start"  >Z1</text></g><rect id="gge36517" locked="0" c_etype="" x="30" y="-230" rx="2" ry="2" width="50" height="30" stroke="#000000" stroke-width="1" fill="none"   /><ellipse cx="35" cy="-205" rx="1.5" ry="1.5" id="gge36520" locked="0" stroke="#000000" stroke-width="1" fill="#000000"   /><g c_partid="part_pin" c_etype="pinpart"  c_show="show"  c_elec="0" c_spicepin="1" c_origin="40,-190" id="gge36523" locked="0" c_rotation="270"><text x="44" y="-203.7" font-family="Verdana" font-size="7pt" fill="#0000FF" text-anchor="start" c_pinname="GND"  transform="rotate(270,44,-203.7)" >GND</text><text x="39" y="-199.5" font-family="Verdana" font-size="7pt" fill="#0000FF" text-anchor="end" c_pinnumber="1"  transform="rotate(270,39,-199.5)" >1</text><circle c_pindot="true" class="pindot" cx="40" cy="-190" r="2" fill="none" stroke="none" /><path d="M 40 -190 v -10" fill="none" stroke="#000000" stroke-width="1"/><circle cx="40" cy="-197" r="3" stroke="#000000" fill="none" stroke-width="1" display="none" /><path d="M 43 -200 L 40 -203 L 37 -200" fill="none" stroke="#000000" stroke-width="1"  display="none" /></g><g c_partid="part_pin" c_etype="pinpart"  c_show="show"  c_elec="0" c_spicepin="2" c_origin="50,-190" id="gge36544" locked="0" c_rotation="270"><text x="54" y="-203.7" font-family="Verdana" font-size="7pt" fill="#0000FF" text-anchor="start" c_pinname="VCC"  transform="rotate(270,54,-203.7)" >VCC</text><text x="49" y="-199.5" font-family="Verdana" font-size="7pt" fill="#0000FF" text-anchor="end" c_pinnumber="2"  transform="rotate(270,49,-199.5)" >2</text><circle c_pindot="true" class="pindot" cx="50" cy="-190" r="2" fill="none" stroke="none" /><path d="M 50 -190 v -10" fill="none" stroke="#000000" stroke-width="1"/><circle cx="50" cy="-197" r="3" stroke="#000000" fill="none" stroke-width="1" display="none" /><path d="M 53 -200 L 50 -203 L 47 -200" fill="none" stroke="#000000" stroke-width="1"  display="none" /></g><g c_partid="part_pin" c_etype="pinpart"  c_show="show"  c_elec="0" c_spicepin="3" c_origin="60,-190" id="gge36565" locked="0" c_rotation="270"><text x="64" y="-203.7" font-family="Verdana" font-size="7pt" fill="#0000FF" text-anchor="start" c_pinname="SDA"  transform="rotate(270,64,-203.7)" >SDA</text><text x="59" y="-199.5" font-family="Verdana" font-size="7pt" fill="#0000FF" text-anchor="end" c_pinnumber="3"  transform="rotate(270,59,-199.5)" >3</text><circle c_pindot="true" class="pindot" cx="60" cy="-190" r="2" fill="none" stroke="none" /><path d="M 60 -190 v -10" fill="none" stroke="#000000" stroke-width="1"/><circle cx="60" cy="-197" r="3" stroke="#000000" fill="none" stroke-width="1" display="none" /><path d="M 63 -200 L 60 -203 L 57 -200" fill="none" stroke="#000000" stroke-width="1"  display="none" /></g><g c_partid="part_pin" c_etype="pinpart"  c_show="show"  c_elec="0" c_spicepin="4" c_origin="70,-190" id="gge36586" locked="0" c_rotation="270"><text x="74" y="-203.7" font-family="Verdana" font-size="7pt" fill="#0000FF" text-anchor="start" c_pinname="SCL"  transform="rotate(270,74,-203.7)" >SCL</text><text x="69" y="-199.5" font-family="Verdana" font-size="7pt" fill="#0000FF" text-anchor="end" c_pinnumber="4"  transform="rotate(270,69,-199.5)" >4</text><circle c_pindot="true" class="pindot" cx="70" cy="-190" r="2" fill="none" stroke="none" /><path d="M 70 -190 v -10" fill="none" stroke="#000000" stroke-width="1"/><circle cx="70" cy="-197" r="3" stroke="#000000" fill="none" stroke-width="1" display="none" /><path d="M 73 -200 L 70 -203 L 67 -200" fill="none" stroke="#000000" stroke-width="1"  display="none" /></g></g><polyline c_etype="wire" c_shapetype="line" points="510 -351 510 -415 305 -415 305 -305 120 -305 120 -335" stroke="#008800" id="gge36739" locked="0" stroke-width="1"   fill="none" stroke-linecap="round" /><polyline c_etype="wire" c_shapetype="line" points="130 -335 130 -315 290 -315 290 -430 520 -430 520 -351" stroke="#999999" id="gge36742" locked="0" stroke-width="1"   fill="none" stroke-linecap="round" /><polyline c_etype="wire" c_shapetype="line" points="435 -175 435 -170 50 -170 50 -190" stroke="#FF0000" id="gge36829" locked="0" stroke-width="1"   fill="none" stroke-linecap="round" /><polyline c_etype="wire" c_shapetype="line" points="445 -175 445 -160 40 -160 40 -190" stroke="#000000" id="gge36840" locked="0" stroke-width="1"   fill="none" stroke-linecap="round" /><polyline c_etype="wire" c_shapetype="line" points="70 -190 70 -140 540 -140 540 -175" stroke="#008800" id="gge36846" locked="0" stroke-width="1"   fill="none" stroke-linecap="round" /><polyline c_etype="wire" c_shapetype="line" points="530 -175 530 -125 60 -125 60 -190" stroke="#0033FF" id="gge36849" locked="0" stroke-width="1"   fill="none" stroke-linecap="round" /><polyline c_etype="wire" c_shapetype="line" points="400 -351 400 -395 250 -395 250 -325 140 -325 140 -335" stroke="#000000" id="gge36859" locked="0" stroke-width="1"   fill="none" stroke-linecap="round" /><polyline c_etype="wire" c_shapetype="line" points="110 -335 110 -170" stroke="#FF0000" id="gge36868" locked="0" stroke-width="1"   fill="none" stroke-linecap="round" /><g c_partid="part_junction" c_etype="pinpart" c_origin="110,-170" id="gge47470" locked="0" c_shapetype="group"><circle c_pindot="true" class="pindot" cx="110" cy="-170" r="2" fill="none" stroke="none"/><circle cx="110" cy="-170" r="2.5" fill="#CC0000" stroke-width="1"/></g></g></svg>