<svg xmlns="http://www.w3.org/2000/svg" xmlns:xlink="http://www.w3.org/1999/xlink" width="327.7" height="240" viewBox="40 -240 327.7 240"><title>TM1637</title><style type="text/css">
path, polyline, polygon {stroke-linejoin:round;}
rect, circle, ellipse, polyline, line, polygon, path {shape-rendering:crispEdges;}
</style>
<rect x="40" y="-240" width="327.7" height="240" fill="#3B4855" stroke="none"/><g xmlns="http://www.w3.org/2000/svg" id="g1" c_spiceCmd="null" c_para="Prefix Start`1" importFlag="" c_portOfADImportHack="" c_transformList=""><polyline c_etype="wire" c_shapetype="line" points="160 -35 160 -10 295 -10 295 -170 315 -170" stroke="#CC0000" id="gge268" locked="0" stroke-width="1"   fill="none" stroke-linecap="round" /><polyline c_etype="wire" c_shapetype="line" points="315 -160 305 -160 305 -20 170 -20 170 -35" stroke="#000000" id="gge277" locked="0" stroke-width="1"   fill="none" stroke-linecap="round" /><polyline c_etype="wire" c_shapetype="line" points="245 -211 245 -220 295 -220 295 -180 315 -180" stroke="#FF00FF" id="gge280" locked="0" stroke-width="1"   fill="none" stroke-linecap="round" /><polyline c_etype="wire" c_shapetype="line" points="235 -211 235 -230 305 -230 305 -190 315 -190" stroke="#000099" id="gge283" locked="0" stroke-width="1"   fill="none" stroke-linecap="round" /><g c_origin="340,-175" c_para="package`TM1637 DISPLAY 2 HOLES`BOM_Manufacturer``BOM_Manufacturer Part``BOM_Supplier Part``BOM_Supplier``link``Contributor`S&#x1a1;n V&#xf5; Ho&#xe0;i`spicePre`U`spiceSymbolName`TM1637 DISPLAY MODULE`" c_partid="part_lib_ggebeaa1ed30ede77f8" id="ggebeaa1ed30ede77f8" locked="0" c_shapetype="group" c_etype="pinpart" puuid="6d00a9905b494ec2870844956591fa26" uuid="e3a171240ab44117b754b342226bc58a" convert_to_pcb="yes" datastrid="9ca0fa7a25a74e48a56d1ab1b157c749" pdatastrid="e5b0560de2604b3981082d607760ebc1" utime="1653740496" add_into_bom="yes" ><g c_partid="part_annotation" id="gge1099"   c_shapetype="group"><text c_note="note_name" x="322.33" y="-201.4" fill="#000080" font-family="Arial" font-size="7pt" font-weight="" font-style="" dominant-baseline="" text-anchor="start"  >TM1637</text></g><g c_partid="part_annotation" id="gge1105" display="none"  c_shapetype="group"><text c_note="note_pre" x="328.05" y="-213" fill="#000080" font-family="Arial" font-size="7pt" font-weight="" font-style="" dominant-baseline="" text-anchor="start"  >U7</text></g><rect id="gge1111" locked="0" c_etype="" x="325" y="-200" rx="2" ry="2" width="30" height="50" stroke="#880000" stroke-width="1" fill="none"   /><ellipse cx="330" cy="-195" rx="1.5" ry="1.5" id="gge1114" locked="0" stroke="#880000" stroke-width="1" fill="#880000"   /><g c_partid="part_pin" c_etype="pinpart"  c_show="show"  c_elec="0" c_spicepin="1" c_origin="315,-190" id="gge1117" locked="0" c_rotation="180"><text x="328.7" y="-186" font-family="Verdana" font-size="7pt" fill="#0000FF" text-anchor="start" c_pinname="CLK"   >CLK</text><text x="324.5" y="-191" font-family="Verdana" font-size="7pt" fill="#0000FF" text-anchor="end" c_pinnumber="1"   >1</text><circle c_pindot="true" class="pindot" cx="315" cy="-190" r="2" fill="none" stroke="none" /><path d="M 315 -190 h 10" fill="none" stroke="#880000" stroke-width="1"/><circle cx="322" cy="-190" r="3" stroke="#880000" fill="none" stroke-width="1" display="none" /><path d="M 325 -187 L 328 -190 L 325 -193" fill="none" stroke="#880000" stroke-width="1"  display="none" /></g><g c_partid="part_pin" c_etype="pinpart"  c_show="show"  c_elec="0" c_spicepin="2" c_origin="315,-180" id="gge1138" locked="0" c_rotation="180"><text x="328.7" y="-176" font-family="Verdana" font-size="7pt" fill="#0000FF" text-anchor="start" c_pinname="DIO"   >DIO</text><text x="324.5" y="-181" font-family="Verdana" font-size="7pt" fill="#0000FF" text-anchor="end" c_pinnumber="2"   >2</text><circle c_pindot="true" class="pindot" cx="315" cy="-180" r="2" fill="none" stroke="none" /><path d="M 315 -180 h 10" fill="none" stroke="#880000" stroke-width="1"/><circle cx="322" cy="-180" r="3" stroke="#880000" fill="none" stroke-width="1" display="none" /><path d="M 325 -177 L 328 -180 L 325 -183" fill="none" stroke="#880000" stroke-width="1"  display="none" /></g><g c_partid="part_pin" c_etype="pinpart"  c_show="show"  c_elec="0" c_spicepin="3" c_origin="315,-170" id="gge1159" locked="0" c_rotation="180"><text x="328.7" y="-166" font-family="Verdana" font-size="7pt" fill="#FF0000" text-anchor="start" c_pinname="VCC"   >VCC</text><text x="324.5" y="-171" font-family="Verdana" font-size="7pt" fill="#FF0000" text-anchor="end" c_pinnumber="3"   >3</text><circle c_pindot="true" class="pindot" cx="315" cy="-170" r="2" fill="none" stroke="none" /><path d="M 315 -170 h 10" fill="none" stroke="#FF0000" stroke-width="1"/><circle cx="322" cy="-170" r="3" stroke="#FF0000" fill="none" stroke-width="1" display="none" /><path d="M 325 -167 L 328 -170 L 325 -173" fill="none" stroke="#FF0000" stroke-width="1"  display="none" /></g><g c_partid="part_pin" c_etype="pinpart"  c_show="show"  c_elec="0" c_spicepin="4" c_origin="315,-160" id="gge1180" locked="0" c_rotation="180"><text x="328.7" y="-156" font-family="Verdana" font-size="7pt" fill="#000000" text-anchor="start" c_pinname="GND"   >GND</text><text x="324.5" y="-161" font-family="Verdana" font-size="7pt" fill="#000000" text-anchor="end" c_pinnumber="4"   >4</text><circle c_pindot="true" class="pindot" cx="315" cy="-160" r="2" fill="none" stroke="none" /><path d="M 315 -160 h 10" fill="none" stroke="#000000" stroke-width="1"/><circle cx="322" cy="-160" r="3" stroke="#000000" fill="none" stroke-width="1" display="none" /><path d="M 325 -157 L 328 -160 L 325 -163" fill="none" stroke="#000000" stroke-width="1"  display="none" /></g></g><g c_origin="125,-165" c_para="package``BOM_Manufacturer``BOM_Manufacturer Part``BOM_Supplier Part``BOM_Supplier`Arduino`link``Contributor`Halina20011`spicePre`U`spiceSymbolName`ARDUINO UNO`" c_partid="part_lib_gged5250ad7e08e7036" id="gged5250ad7e08e7036" locked="0" c_shapetype="group" c_etype="pinpart" puuid="" uuid="4ec8fcb662d94f318a545330e18f639e" convert_to_pcb="yes" datastrid="039cfa9eba91419786d8b4c7ef933d60" pdatastrid="" utime="1663959301" add_into_bom="yes" ><g c_partid="part_annotation" id="gge370"   c_shapetype="group"><text c_note="note_name" x="56.59" y="-61.48" fill="#000080" font-family="Arial" font-size="7pt" font-weight="" font-style="" dominant-baseline="" text-anchor="start"  >ARDUINO UNO</text></g><g c_partid="part_annotation" id="gge376" display="none"  c_shapetype="group"><text c_note="note_pre" x="282" y="-119.28" fill="#000080" font-family="Arial" font-size="7pt" font-weight="" font-style="" dominant-baseline="" text-anchor="start"  >U5</text></g><polyline points="198 -139 198 -128 200 -126 204 -126 206 -128 206 -139 206 -138" stroke="#000000" id="gge1306" locked="0" stroke-width="2"   fill="none" stroke-linecap="round" /><polyline points="212 -126 212 -139 221 -126 221 -139" stroke="#000000" id="gge1309" locked="0" stroke-width="2"   fill="none" stroke-linecap="round" /><polyline points="230 -139 229 -139 227 -138 226 -136 226 -129 227 -127 229 -126 232 -126 234 -127 235 -129 235 -136 234 -138 232 -139 230 -139" stroke="#000000" id="gge1312" locked="0" stroke-width="2"   fill="none" stroke-linecap="round" /><g c_partid="part_pin" c_etype="pinpart"  c_show="show"  c_elec="0" c_spicepin="33" c_origin="120,-35" id="gge1315" locked="0" c_rotation="270"><text x="123" y="-57" font-family="Verdana" font-size="7pt" fill="#FFFFFF" text-anchor="start" c_pinname="33" display="none" transform="rotate(270,123,-57)" >33</text><text x="119" y="-50" font-family="Verdana" font-size="7pt" fill="#FFFFFF" text-anchor="end" c_pinnumber="33" display="none" transform="rotate(270,119,-50)" >33</text><circle c_pindot="true" class="pindot" cx="120" cy="-35" r="2" fill="none" stroke="none" /><path d="M 120 -35 v -20" fill="none" stroke="#000000" stroke-width="1"/><circle cx="120" cy="-52" r="3" stroke="#000000" fill="none" stroke-width="1" display="none" /><path d="M 123 -55 L 120 -58 L 117 -55" fill="none" stroke="#000000" stroke-width="1"  display="none" /></g><g c_partid="part_pin" c_etype="pinpart"  c_show="show"  c_elec="0" c_spicepin="32" c_origin="130,-35" id="gge1336" locked="0" c_rotation="270"><text x="132" y="-68" font-family="Verdana" font-size="5.5pt" fill="#000000" text-anchor="start" c_pinname="IOREF"  transform="rotate(270,132,-68)" >IOREF</text><text x="129" y="-50" font-family="Verdana" font-size="5.5pt" fill="#000000" text-anchor="end" c_pinnumber="32" display="none" transform="rotate(270,129,-50)" >32</text><circle c_pindot="true" class="pindot" cx="130" cy="-35" r="2" fill="none" stroke="none" /><path d="M 130 -35 v -20" fill="none" stroke="#000000" stroke-width="1"/><circle cx="130" cy="-52" r="3" stroke="#000000" fill="none" stroke-width="1" display="none" /><path d="M 133 -55 L 130 -58 L 127 -55" fill="none" stroke="#000000" stroke-width="1"  display="none" /></g><g c_partid="part_pin" c_etype="pinpart"  c_show="show"  c_elec="0" c_spicepin="31" c_origin="140,-35" id="gge1357" locked="0" c_rotation="270"><text x="142" y="-68" font-family="Verdana" font-size="5.5pt" fill="#000000" text-anchor="start" c_pinname="RESET"  transform="rotate(270,142,-68)" >RESET</text><text x="139" y="-50" font-family="Verdana" font-size="5.5pt" fill="#000000" text-anchor="end" c_pinnumber="31" display="none" transform="rotate(270,139,-50)" >31</text><circle c_pindot="true" class="pindot" cx="140" cy="-35" r="2" fill="none" stroke="none" /><path d="M 140 -35 v -20" fill="none" stroke="#000000" stroke-width="1"/><circle cx="140" cy="-52" r="3" stroke="#000000" fill="none" stroke-width="1" display="none" /><path d="M 143 -55 L 140 -58 L 137 -55" fill="none" stroke="#000000" stroke-width="1"  display="none" /></g><g c_partid="part_pin" c_etype="pinpart"  c_show="show"  c_elec="4" c_spicepin="30" c_origin="150,-35" id="gge1378" locked="0" c_rotation="270"><text x="153" y="-68" font-family="Verdana" font-size="5.5pt" fill="#000000" text-anchor="start" c_pinname="3.3V"  transform="rotate(270,153,-68)" >3.3V</text><text x="149" y="-50" font-family="Verdana" font-size="5.5pt" fill="#000000" text-anchor="end" c_pinnumber="30" display="none" transform="rotate(270,149,-50)" >30</text><circle c_pindot="true" class="pindot" cx="150" cy="-35" r="2" fill="none" stroke="none" /><path d="M 150 -35 v -20" fill="none" stroke="#000000" stroke-width="1"/><circle cx="150" cy="-52" r="3" stroke="#000000" fill="none" stroke-width="1" display="none" /><path d="M 153 -55 L 150 -58 L 147 -55" fill="none" stroke="#000000" stroke-width="1"  display="none" /></g><g c_partid="part_pin" c_etype="pinpart"  c_show="show"  c_elec="4" c_spicepin="29" c_origin="160,-35" id="gge1399" locked="0" c_rotation="270"><text x="163" y="-68" font-family="Verdana" font-size="5.5pt" fill="#000000" text-anchor="start" c_pinname="5V"  transform="rotate(270,163,-68)" >5V</text><text x="159" y="-50" font-family="Verdana" font-size="5.5pt" fill="#000000" text-anchor="end" c_pinnumber="29" display="none" transform="rotate(270,159,-50)" >29</text><circle c_pindot="true" class="pindot" cx="160" cy="-35" r="2" fill="none" stroke="none" /><path d="M 160 -35 v -20" fill="none" stroke="#000000" stroke-width="1"/><circle cx="160" cy="-52" r="3" stroke="#000000" fill="none" stroke-width="1" display="none" /><path d="M 163 -55 L 160 -58 L 157 -55" fill="none" stroke="#000000" stroke-width="1"  display="none" /></g><g c_partid="part_pin" c_etype="pinpart"  c_show="show"  c_elec="4" c_spicepin="28" c_origin="170,-35" id="gge1420" locked="0" c_rotation="270"><text x="173" y="-67" font-family="Verdana" font-size="5.5pt" fill="#000000" text-anchor="start" c_pinname="GND"  transform="rotate(270,173,-67)" >GND</text><text x="169" y="-50" font-family="Verdana" font-size="5.5pt" fill="#000000" text-anchor="end" c_pinnumber="28" display="none" transform="rotate(270,169,-50)" >28</text><circle c_pindot="true" class="pindot" cx="170" cy="-35" r="2" fill="none" stroke="none" /><path d="M 170 -35 v -20" fill="none" stroke="#000000" stroke-width="1"/><circle cx="170" cy="-52" r="3" stroke="#000000" fill="none" stroke-width="1" display="none" /><path d="M 173 -55 L 170 -58 L 167 -55" fill="none" stroke="#000000" stroke-width="1"  display="none" /></g><g c_partid="part_pin" c_etype="pinpart"  c_show="show"  c_elec="4" c_spicepin="27" c_origin="180,-35" id="gge1441" locked="0" c_rotation="270"><text x="183" y="-67" font-family="Verdana" font-size="5.5pt" fill="#000000" text-anchor="start" c_pinname="GND"  transform="rotate(270,183,-67)" >GND</text><text x="179" y="-50" font-family="Verdana" font-size="5.5pt" fill="#000000" text-anchor="end" c_pinnumber="27" display="none" transform="rotate(270,179,-50)" >27</text><circle c_pindot="true" class="pindot" cx="180" cy="-35" r="2" fill="none" stroke="none" /><path d="M 180 -35 v -20" fill="none" stroke="#000000" stroke-width="1"/><circle cx="180" cy="-52" r="3" stroke="#000000" fill="none" stroke-width="1" display="none" /><path d="M 183 -55 L 180 -58 L 177 -55" fill="none" stroke="#000000" stroke-width="1"  display="none" /></g><g c_partid="part_pin" c_etype="pinpart"  c_show="show"  c_elec="0" c_spicepin="26" c_origin="190,-35" id="gge1462" locked="0" c_rotation="270"><text x="193" y="-67" font-family="Verdana" font-size="5.5pt" fill="#000000" text-anchor="start" c_pinname="VIN"  transform="rotate(270,193,-67)" >VIN</text><text x="189" y="-50" font-family="Verdana" font-size="5.5pt" fill="#000000" text-anchor="end" c_pinnumber="26" display="none" transform="rotate(270,189,-50)" >26</text><circle c_pindot="true" class="pindot" cx="190" cy="-35" r="2" fill="none" stroke="none" /><path d="M 190 -35 v -20" fill="none" stroke="#000000" stroke-width="1"/><circle cx="190" cy="-52" r="3" stroke="#000000" fill="none" stroke-width="1" display="none" /><path d="M 193 -55 L 190 -58 L 187 -55" fill="none" stroke="#000000" stroke-width="1"  display="none" /></g><g c_partid="part_pin" c_etype="pinpart"  c_show="show"  c_elec="1" c_spicepin="24" c_origin="215,-35" id="gge1483" locked="0" c_rotation="270"><text x="218" y="-67" font-family="Verdana" font-size="7pt" fill="#000000" text-anchor="start" c_pinname="A0"  transform="rotate(270,218,-67)" >A0</text><text x="214" y="-50" font-family="Verdana" font-size="7pt" fill="#000000" text-anchor="end" c_pinnumber="24" display="none" transform="rotate(270,214,-50)" >24</text><circle c_pindot="true" class="pindot" cx="215" cy="-35" r="2" fill="none" stroke="none" /><path d="M 215 -35 v -20" fill="none" stroke="#000000" stroke-width="1"/><circle cx="215" cy="-52" r="3" stroke="#000000" fill="none" stroke-width="1" display="none" /><path d="M 218 -55 L 215 -58 L 212 -55" fill="none" stroke="#000000" stroke-width="1"  display="none" /></g><g c_partid="part_pin" c_etype="pinpart"  c_show="show"  c_elec="1" c_spicepin="23" c_origin="225,-35" id="gge1504" locked="0" c_rotation="270"><text x="228" y="-67" font-family="Verdana" font-size="7pt" fill="#000000" text-anchor="start" c_pinname="A1"  transform="rotate(270,228,-67)" >A1</text><text x="224" y="-50" font-family="Verdana" font-size="7pt" fill="#000000" text-anchor="end" c_pinnumber="23" display="none" transform="rotate(270,224,-50)" >23</text><circle c_pindot="true" class="pindot" cx="225" cy="-35" r="2" fill="none" stroke="none" /><path d="M 225 -35 v -20" fill="none" stroke="#000000" stroke-width="1"/><circle cx="225" cy="-52" r="3" stroke="#000000" fill="none" stroke-width="1" display="none" /><path d="M 228 -55 L 225 -58 L 222 -55" fill="none" stroke="#000000" stroke-width="1"  display="none" /></g><g c_partid="part_pin" c_etype="pinpart"  c_show="show"  c_elec="1" c_spicepin="22" c_origin="235,-35" id="gge1525" locked="0" c_rotation="270"><text x="239" y="-67" font-family="Verdana" font-size="7pt" fill="#000000" text-anchor="start" c_pinname="A2"  transform="rotate(270,239,-67)" >A2</text><text x="234" y="-50" font-family="Verdana" font-size="7pt" fill="#000000" text-anchor="end" c_pinnumber="22" display="none" transform="rotate(270,234,-50)" >22</text><circle c_pindot="true" class="pindot" cx="235" cy="-35" r="2" fill="none" stroke="none" /><path d="M 235 -35 v -20" fill="none" stroke="#000000" stroke-width="1"/><circle cx="235" cy="-52" r="3" stroke="#000000" fill="none" stroke-width="1" display="none" /><path d="M 238 -55 L 235 -58 L 232 -55" fill="none" stroke="#000000" stroke-width="1"  display="none" /></g><g c_partid="part_pin" c_etype="pinpart"  c_show="show"  c_elec="1" c_spicepin="21" c_origin="245,-35" id="gge1546" locked="0" c_rotation="270"><text x="248" y="-67" font-family="Verdana" font-size="7pt" fill="#000000" text-anchor="start" c_pinname="A3"  transform="rotate(270,248,-67)" >A3</text><text x="244" y="-50" font-family="Verdana" font-size="7pt" fill="#000000" text-anchor="end" c_pinnumber="21" display="none" transform="rotate(270,244,-50)" >21</text><circle c_pindot="true" class="pindot" cx="245" cy="-35" r="2" fill="none" stroke="none" /><path d="M 245 -35 v -20" fill="none" stroke="#000000" stroke-width="1"/><circle cx="245" cy="-52" r="3" stroke="#000000" fill="none" stroke-width="1" display="none" /><path d="M 248 -55 L 245 -58 L 242 -55" fill="none" stroke="#000000" stroke-width="1"  display="none" /></g><g c_partid="part_pin" c_etype="pinpart"  c_show="show"  c_elec="1" c_spicepin="20" c_origin="255,-35" id="gge1567" locked="0" c_rotation="270"><text x="258" y="-67" font-family="Verdana" font-size="7pt" fill="#000000" text-anchor="start" c_pinname="A4"  transform="rotate(270,258,-67)" >A4</text><text x="254" y="-50" font-family="Verdana" font-size="7pt" fill="#000000" text-anchor="end" c_pinnumber="20" display="none" transform="rotate(270,254,-50)" >20</text><circle c_pindot="true" class="pindot" cx="255" cy="-35" r="2" fill="none" stroke="none" /><path d="M 255 -35 v -20" fill="none" stroke="#000000" stroke-width="1"/><circle cx="255" cy="-52" r="3" stroke="#000000" fill="none" stroke-width="1" display="none" /><path d="M 258 -55 L 255 -58 L 252 -55" fill="none" stroke="#000000" stroke-width="1"  display="none" /></g><g c_partid="part_pin" c_etype="pinpart"  c_show="show"  c_elec="1" c_spicepin="19" c_origin="265,-35" id="gge1588" locked="0" c_rotation="270"><text x="268" y="-67" font-family="Verdana" font-size="7pt" fill="#000000" text-anchor="start" c_pinname="A5"  transform="rotate(270,268,-67)" >A5</text><text x="264" y="-50" font-family="Verdana" font-size="7pt" fill="#000000" text-anchor="end" c_pinnumber="19" display="none" transform="rotate(270,264,-50)" >19</text><circle c_pindot="true" class="pindot" cx="265" cy="-35" r="2" fill="none" stroke="none" /><path d="M 265 -35 v -20" fill="none" stroke="#000000" stroke-width="1"/><circle cx="265" cy="-52" r="3" stroke="#000000" fill="none" stroke-width="1" display="none" /><path d="M 268 -55 L 265 -58 L 262 -55" fill="none" stroke="#000000" stroke-width="1"  display="none" /></g><g c_partid="part_pin" c_etype="pinpart"  c_show="show"  c_elec="3" c_spicepin="34" c_origin="255,-211" id="gge1609" locked="0" c_rotation="90"><text x="258" y="-181" font-family="Verdana" font-size="7pt" fill="#000000" text-anchor="end" c_pinname="TX 1"  transform="rotate(270,258,-181)" >TX 1</text><text x="254" y="-196" font-family="Verdana" font-size="7pt" fill="#000000" text-anchor="start" c_pinnumber="2" display="none" transform="rotate(270,254,-196)" >2</text><circle c_pindot="true" class="pindot" cx="255" cy="-211" r="2" fill="none" stroke="none" /><path d="M 255 -211 v 20" fill="none" stroke="#000000" stroke-width="1"/><circle cx="255" cy="-194" r="3" stroke="#000000" fill="none" stroke-width="1" display="none" /><path d="M 252 -191 L 255 -188 L 258 -191" fill="none" stroke="#000000" stroke-width="1"  display="none" /></g><g c_partid="part_pin" c_etype="pinpart"  c_show="show"  c_elec="0" c_spicepin="18" c_origin="95,-211" id="gge1630" locked="0" c_rotation="90"><text x="98" y="-179" font-family="Verdana" font-size="7pt" fill="#000000" text-anchor="end" c_pinname="SCL"  transform="rotate(270,98,-179)" >SCL</text><text x="94" y="-196" font-family="Verdana" font-size="7pt" fill="#000000" text-anchor="start" c_pinnumber="18" display="none" transform="rotate(270,94,-196)" >18</text><circle c_pindot="true" class="pindot" cx="95" cy="-211" r="2" fill="none" stroke="none" /><path d="M 95 -211 v 20" fill="none" stroke="#000000" stroke-width="1"/><circle cx="95" cy="-194" r="3" stroke="#000000" fill="none" stroke-width="1" display="none" /><path d="M 92 -191 L 95 -188 L 98 -191" fill="none" stroke="#000000" stroke-width="1"  display="none" /></g><g c_partid="part_pin" c_etype="pinpart"  c_show="show"  c_elec="0" c_spicepin="17" c_origin="105,-211" id="gge1651" locked="0" c_rotation="90"><text x="108" y="-179" font-family="Verdana" font-size="7pt" fill="#000000" text-anchor="end" c_pinname="SDA"  transform="rotate(270,108,-179)" >SDA</text><text x="104" y="-196" font-family="Verdana" font-size="7pt" fill="#000000" text-anchor="start" c_pinnumber="17" display="none" transform="rotate(270,104,-196)" >17</text><circle c_pindot="true" class="pindot" cx="105" cy="-211" r="2" fill="none" stroke="none" /><path d="M 105 -211 v 20" fill="none" stroke="#000000" stroke-width="1"/><circle cx="105" cy="-194" r="3" stroke="#000000" fill="none" stroke-width="1" display="none" /><path d="M 102 -191 L 105 -188 L 108 -191" fill="none" stroke="#000000" stroke-width="1"  display="none" /></g><g c_partid="part_pin" c_etype="pinpart"  c_show="show"  c_elec="0" c_spicepin="16" c_origin="115,-211" id="gge1672" locked="0" c_rotation="90"><text x="118" y="-180" font-family="Verdana" font-size="7pt" fill="#000000" text-anchor="end" c_pinname="AREF"  transform="rotate(270,118,-180)" >AREF</text><text x="114" y="-196" font-family="Verdana" font-size="7pt" fill="#000000" text-anchor="start" c_pinnumber="16" display="none" transform="rotate(270,114,-196)" >16</text><circle c_pindot="true" class="pindot" cx="115" cy="-211" r="2" fill="none" stroke="none" /><path d="M 115 -211 v 20" fill="none" stroke="#000000" stroke-width="1"/><circle cx="115" cy="-194" r="3" stroke="#000000" fill="none" stroke-width="1" display="none" /><path d="M 112 -191 L 115 -188 L 118 -191" fill="none" stroke="#000000" stroke-width="1"  display="none" /></g><g c_partid="part_pin" c_etype="pinpart"  c_show="show"  c_elec="4" c_spicepin="15" c_origin="125,-211" id="gge1693" locked="0" c_rotation="90"><text x="128" y="-180" font-family="Verdana" font-size="7pt" fill="#000000" text-anchor="end" c_pinname="GND"  transform="rotate(270,128,-180)" >GND</text><text x="124" y="-196" font-family="Verdana" font-size="7pt" fill="#000000" text-anchor="start" c_pinnumber="15" display="none" transform="rotate(270,124,-196)" >15</text><circle c_pindot="true" class="pindot" cx="125" cy="-211" r="2" fill="none" stroke="none" /><path d="M 125 -211 v 20" fill="none" stroke="#000000" stroke-width="1"/><circle cx="125" cy="-194" r="3" stroke="#000000" fill="none" stroke-width="1" display="none" /><path d="M 122 -191 L 125 -188 L 128 -191" fill="none" stroke="#000000" stroke-width="1"  display="none" /></g><g c_partid="part_pin" c_etype="pinpart"  c_show="show"  c_elec="3" c_spicepin="14" c_origin="135,-211" id="gge1714" locked="0" c_rotation="90"><text x="138" y="-180" font-family="Verdana" font-size="7pt" fill="#000000" text-anchor="end" c_pinname="13"  transform="rotate(270,138,-180)" >13</text><text x="134" y="-196" font-family="Verdana" font-size="7pt" fill="#000000" text-anchor="start" c_pinnumber="14" display="none" transform="rotate(270,134,-196)" >14</text><circle c_pindot="true" class="pindot" cx="135" cy="-211" r="2" fill="none" stroke="none" /><path d="M 135 -211 v 20" fill="none" stroke="#000000" stroke-width="1"/><circle cx="135" cy="-194" r="3" stroke="#000000" fill="none" stroke-width="1" display="none" /><path d="M 132 -191 L 135 -188 L 138 -191" fill="none" stroke="#000000" stroke-width="1"  display="none" /></g><g c_partid="part_pin" c_etype="pinpart"  c_show="show"  c_elec="3" c_spicepin="13" c_origin="145,-211" id="gge1735" locked="0" c_rotation="90"><text x="148" y="-180" font-family="Verdana" font-size="7pt" fill="#000000" text-anchor="end" c_pinname="12"  transform="rotate(270,148,-180)" >12</text><text x="144" y="-196" font-family="Verdana" font-size="7pt" fill="#000000" text-anchor="start" c_pinnumber="13" display="none" transform="rotate(270,144,-196)" >13</text><circle c_pindot="true" class="pindot" cx="145" cy="-211" r="2" fill="none" stroke="none" /><path d="M 145 -211 v 20" fill="none" stroke="#000000" stroke-width="1"/><circle cx="145" cy="-194" r="3" stroke="#000000" fill="none" stroke-width="1" display="none" /><path d="M 142 -191 L 145 -188 L 148 -191" fill="none" stroke="#000000" stroke-width="1"  display="none" /></g><g c_partid="part_pin" c_etype="pinpart"  c_show="show"  c_elec="3" c_spicepin="12" c_origin="155,-211" id="gge1756" locked="0" c_rotation="90"><text x="158" y="-181" font-family="Verdana" font-size="7pt" fill="#000000" text-anchor="end" c_pinname="~11"  transform="rotate(270,158,-181)" >~11</text><text x="154" y="-196" font-family="Verdana" font-size="7pt" fill="#000000" text-anchor="start" c_pinnumber="12" display="none" transform="rotate(270,154,-196)" >12</text><circle c_pindot="true" class="pindot" cx="155" cy="-211" r="2" fill="none" stroke="none" /><path d="M 155 -211 v 20" fill="none" stroke="#000000" stroke-width="1"/><circle cx="155" cy="-194" r="3" stroke="#000000" fill="none" stroke-width="1" display="none" /><path d="M 152 -191 L 155 -188 L 158 -191" fill="none" stroke="#000000" stroke-width="1"  display="none" /></g><g c_partid="part_pin" c_etype="pinpart"  c_show="show"  c_elec="3" c_spicepin="11" c_origin="165,-211" id="gge1777" locked="0" c_rotation="90"><text x="169" y="-180" font-family="Verdana" font-size="7pt" fill="#000000" text-anchor="end" c_pinname="~10"  transform="rotate(270,169,-180)" >~10</text><text x="164" y="-196" font-family="Verdana" font-size="7pt" fill="#000000" text-anchor="start" c_pinnumber="11" display="none" transform="rotate(270,164,-196)" >11</text><circle c_pindot="true" class="pindot" cx="165" cy="-211" r="2" fill="none" stroke="none" /><path d="M 165 -211 v 20" fill="none" stroke="#000000" stroke-width="1"/><circle cx="165" cy="-194" r="3" stroke="#000000" fill="none" stroke-width="1" display="none" /><path d="M 162 -191 L 165 -188 L 168 -191" fill="none" stroke="#000000" stroke-width="1"  display="none" /></g><g c_partid="part_pin" c_etype="pinpart"  c_show="show"  c_elec="3" c_spicepin="10" c_origin="175,-211" id="gge1798" locked="0" c_rotation="90"><text x="178" y="-180" font-family="Verdana" font-size="7pt" fill="#000000" text-anchor="end" c_pinname="~9"  transform="rotate(270,178,-180)" >~9</text><text x="174" y="-196" font-family="Verdana" font-size="7pt" fill="#000000" text-anchor="start" c_pinnumber="10" display="none" transform="rotate(270,174,-196)" >10</text><circle c_pindot="true" class="pindot" cx="175" cy="-211" r="2" fill="none" stroke="none" /><path d="M 175 -211 v 20" fill="none" stroke="#000000" stroke-width="1"/><circle cx="175" cy="-194" r="3" stroke="#000000" fill="none" stroke-width="1" display="none" /><path d="M 172 -191 L 175 -188 L 178 -191" fill="none" stroke="#000000" stroke-width="1"  display="none" /></g><g c_partid="part_pin" c_etype="pinpart"  c_show="show"  c_elec="3" c_spicepin="9" c_origin="185,-211" id="gge1819" locked="0" c_rotation="90"><text x="188" y="-180" font-family="Verdana" font-size="7pt" fill="#000000" text-anchor="end" c_pinname="8"  transform="rotate(270,188,-180)" >8</text><text x="184" y="-196" font-family="Verdana" font-size="7pt" fill="#000000" text-anchor="start" c_pinnumber="9" display="none" transform="rotate(270,184,-196)" >9</text><circle c_pindot="true" class="pindot" cx="185" cy="-211" r="2" fill="none" stroke="none" /><path d="M 185 -211 v 20" fill="none" stroke="#000000" stroke-width="1"/><circle cx="185" cy="-194" r="3" stroke="#000000" fill="none" stroke-width="1" display="none" /><path d="M 182 -191 L 185 -188 L 188 -191" fill="none" stroke="#000000" stroke-width="1"  display="none" /></g><g c_partid="part_pin" c_etype="pinpart"  c_show="show"  c_elec="3" c_spicepin="8" c_origin="195,-211" id="gge1840" locked="0" c_rotation="90"><text x="198" y="-180" font-family="Verdana" font-size="7pt" fill="#000000" text-anchor="end" c_pinname="7"  transform="rotate(270,198,-180)" >7</text><text x="194" y="-196" font-family="Verdana" font-size="7pt" fill="#000000" text-anchor="start" c_pinnumber="8" display="none" transform="rotate(270,194,-196)" >8</text><circle c_pindot="true" class="pindot" cx="195" cy="-211" r="2" fill="none" stroke="none" /><path d="M 195 -211 v 20" fill="none" stroke="#000000" stroke-width="1"/><circle cx="195" cy="-194" r="3" stroke="#000000" fill="none" stroke-width="1" display="none" /><path d="M 192 -191 L 195 -188 L 198 -191" fill="none" stroke="#000000" stroke-width="1"  display="none" /></g><g c_partid="part_pin" c_etype="pinpart"  c_show="show"  c_elec="3" c_spicepin="7" c_origin="205,-211" id="gge1861" locked="0" c_rotation="90"><text x="208" y="-180" font-family="Verdana" font-size="7pt" fill="#000000" text-anchor="end" c_pinname="~6"  transform="rotate(270,208,-180)" >~6</text><text x="204" y="-196" font-family="Verdana" font-size="7pt" fill="#000000" text-anchor="start" c_pinnumber="7" display="none" transform="rotate(270,204,-196)" >7</text><circle c_pindot="true" class="pindot" cx="205" cy="-211" r="2" fill="none" stroke="none" /><path d="M 205 -211 v 20" fill="none" stroke="#000000" stroke-width="1"/><circle cx="205" cy="-194" r="3" stroke="#000000" fill="none" stroke-width="1" display="none" /><path d="M 202 -191 L 205 -188 L 208 -191" fill="none" stroke="#000000" stroke-width="1"  display="none" /></g><g c_partid="part_pin" c_etype="pinpart"  c_show="show"  c_elec="3" c_spicepin="6" c_origin="215,-211" id="gge1882" locked="0" c_rotation="90"><text x="218" y="-180" font-family="Verdana" font-size="7pt" fill="#000000" text-anchor="end" c_pinname="~5"  transform="rotate(270,218,-180)" >~5</text><text x="214" y="-196" font-family="Verdana" font-size="7pt" fill="#000000" text-anchor="start" c_pinnumber="6" display="none" transform="rotate(270,214,-196)" >6</text><circle c_pindot="true" class="pindot" cx="215" cy="-211" r="2" fill="none" stroke="none" /><path d="M 215 -211 v 20" fill="none" stroke="#000000" stroke-width="1"/><circle cx="215" cy="-194" r="3" stroke="#000000" fill="none" stroke-width="1" display="none" /><path d="M 212 -191 L 215 -188 L 218 -191" fill="none" stroke="#000000" stroke-width="1"  display="none" /></g><g c_partid="part_pin" c_etype="pinpart"  c_show="show"  c_elec="3" c_spicepin="5" c_origin="225,-211" id="gge1903" locked="0" c_rotation="90"><text x="228" y="-180" font-family="Verdana" font-size="7pt" fill="#000000" text-anchor="end" c_pinname="4"  transform="rotate(270,228,-180)" >4</text><text x="224" y="-196" font-family="Verdana" font-size="7pt" fill="#000000" text-anchor="start" c_pinnumber="5" display="none" transform="rotate(270,224,-196)" >5</text><circle c_pindot="true" class="pindot" cx="225" cy="-211" r="2" fill="none" stroke="none" /><path d="M 225 -211 v 20" fill="none" stroke="#000000" stroke-width="1"/><circle cx="225" cy="-194" r="3" stroke="#000000" fill="none" stroke-width="1" display="none" /><path d="M 222 -191 L 225 -188 L 228 -191" fill="none" stroke="#000000" stroke-width="1"  display="none" /></g><g c_partid="part_pin" c_etype="pinpart"  c_show="show"  c_elec="3" c_spicepin="4" c_origin="235,-211" id="gge1924" locked="0" c_rotation="90"><text x="239" y="-180" font-family="Verdana" font-size="7pt" fill="#000000" text-anchor="end" c_pinname="3"  transform="rotate(270,239,-180)" >3</text><text x="234" y="-196" font-family="Verdana" font-size="7pt" fill="#000000" text-anchor="start" c_pinnumber="4" display="none" transform="rotate(270,234,-196)" >4</text><circle c_pindot="true" class="pindot" cx="235" cy="-211" r="2" fill="none" stroke="none" /><path d="M 235 -211 v 20" fill="none" stroke="#000000" stroke-width="1"/><circle cx="235" cy="-194" r="3" stroke="#000000" fill="none" stroke-width="1" display="none" /><path d="M 232 -191 L 235 -188 L 238 -191" fill="none" stroke="#000000" stroke-width="1"  display="none" /></g><g c_partid="part_pin" c_etype="pinpart"  c_show="show"  c_elec="3" c_spicepin="3" c_origin="245,-211" id="gge1945" locked="0" c_rotation="90"><text x="248" y="-180" font-family="Verdana" font-size="7pt" fill="#000000" text-anchor="end" c_pinname="2"  transform="rotate(270,248,-180)" >2</text><text x="244" y="-196" font-family="Verdana" font-size="7pt" fill="#000000" text-anchor="start" c_pinnumber="3" display="none" transform="rotate(270,244,-196)" >3</text><circle c_pindot="true" class="pindot" cx="245" cy="-211" r="2" fill="none" stroke="none" /><path d="M 245 -211 v 20" fill="none" stroke="#000000" stroke-width="1"/><circle cx="245" cy="-194" r="3" stroke="#000000" fill="none" stroke-width="1" display="none" /><path d="M 242 -191 L 245 -188 L 248 -191" fill="none" stroke="#000000" stroke-width="1"  display="none" /></g><g c_partid="part_pin" c_etype="pinpart"  c_show="show"  c_elec="3" c_spicepin="1" c_origin="265,-211" id="gge1966" locked="0" c_rotation="90"><text x="267" y="-180" font-family="Verdana" font-size="7pt" fill="#000000" text-anchor="end" c_pinname="RX 0"  transform="rotate(270,267,-180)" >RX 0</text><text x="264" y="-196" font-family="Verdana" font-size="7pt" fill="#000000" text-anchor="start" c_pinnumber="1" display="none" transform="rotate(270,264,-196)" >1</text><circle c_pindot="true" class="pindot" cx="265" cy="-211" r="2" fill="none" stroke="none" /><path d="M 265 -211 v 20" fill="none" stroke="#000000" stroke-width="1"/><circle cx="265" cy="-194" r="3" stroke="#000000" fill="none" stroke-width="1" display="none" /><path d="M 262 -191 L 265 -188 L 268 -191" fill="none" stroke="#000000" stroke-width="1"  display="none" /></g><ellipse cx="172.25" cy="-131.25" rx="12" ry="12" id="gge1987" locked="0" stroke="#000000" stroke-width="3" fill="none"   /><ellipse cx="148" cy="-131" rx="12" ry="12" id="gge1990" locked="0" stroke="#000000" stroke-width="3" fill="none"   /><g c_partid="part_annotation" id="gge1993" locked="0" c_origin="143,-108" c_shapetype="group" c_etype="pinpart"><text x="143" y="-108" fill="#000000" font-family="Arial" font-size="7pt" font-weight="normal" font-style="" dominant-baseline="" text-anchor="start" type="comment"  >Arduino</text></g><polyline points="144 -131 150 -131" stroke="#000000" id="gge1999" locked="0" stroke-width="3"   fill="none" stroke-linecap="round" /><polyline points="170 -131 176 -131 173 -131 173 -128 173 -134" stroke="#000000" id="gge2002" locked="0" stroke-width="3"   fill="none" stroke-linecap="round" /><rect id="gge2005" locked="0" c_etype="" x="50" y="-191"   width="230" height="136" stroke="#000000" stroke-width="1" fill="none"   /></g></g></svg>